0
SECTION
2
HEADER
9
$ACADVER
1
AC1009
9
$INSUNITS
70
1.0
9
$MEASUREMENT
70
0.0
0
ENDSEC
0
SECTION
2
TABLES
0
TABLE
2
LAYER
70
6.0
0
LAYER
2
OUTLINE
70
0.0
62
7.0
6
CONTINUOUS
0
LAYER
2
DETAIL
70
0.0
62
8.0
6
CONTINUOUS
0
LAYER
2
DIMS
70
0.0
62
3.0
6
CONTINUOUS
0
LAYER
2
TEXT
70
0.0
62
4.0
6
CONTINUOUS
0
LAYER
2
TITLE
70
0.0
62
7.0
6
CONTINUOUS
0
LAYER
2
VIEWLABEL
70
0.0
62
2.0
6
CONTINUOUS
0
ENDTAB
0
ENDSEC
0
SECTION
2
ENTITIES
0
LINE
8
OUTLINE
10
0.0
20
2.0
30
0.0
11
13.0
21
2.0
31
0.0
0
LINE
8
OUTLINE
10
13.0
20
2.0
30
0.0
11
13.0
21
40.75
31
0.0
0
LINE
8
OUTLINE
10
13.0
20
40.75
30
0.0
11
0.0
21
40.75
31
0.0
0
LINE
8
OUTLINE
10
0.0
20
40.75
30
0.0
11
0.0
21
2.0
31
0.0
0
LINE
8
OUTLINE
10
0.0
20
2.0
30
0.0
11
13.0
21
2.0
31
0.0
0
LINE
8
OUTLINE
10
13.0
20
2.0
30
0.0
11
13.0
21
40.75
31
0.0
0
LINE
8
OUTLINE
10
13.0
20
40.75
30
0.0
11
0.0
21
40.75
31
0.0
0
LINE
8
OUTLINE
10
0.0
20
40.75
30
0.0
11
0.0
21
2.0
31
0.0
0
LINE
8
OUTLINE
10
0.0
20
2.0
30
0.0
11
0.0
21
2.0
31
0.0
0
LINE
8
OUTLINE
10
13.0
20
2.0
30
0.0
11
13.0
21
2.0
31
0.0
0
LINE
8
OUTLINE
10
13.0
20
40.75
30
0.0
11
13.0
21
40.75
31
0.0
0
LINE
8
OUTLINE
10
0.0
20
40.75
30
0.0
11
0.0
21
40.75
31
0.0
0
LINE
8
OUTLINE
10
37.0
20
2.0
30
0.0
11
50.0
21
2.0
31
0.0
0
LINE
8
OUTLINE
10
50.0
20
2.0
30
0.0
11
50.0
21
40.75
31
0.0
0
LINE
8
OUTLINE
10
50.0
20
40.75
30
0.0
11
37.0
21
40.75
31
0.0
0
LINE
8
OUTLINE
10
37.0
20
40.75
30
0.0
11
37.0
21
2.0
31
0.0
0
LINE
8
OUTLINE
10
37.0
20
2.0
30
0.0
11
50.0
21
2.0
31
0.0
0
LINE
8
OUTLINE
10
50.0
20
2.0
30
0.0
11
50.0
21
40.75
31
0.0
0
LINE
8
OUTLINE
10
50.0
20
40.75
30
0.0
11
37.0
21
40.75
31
0.0
0
LINE
8
OUTLINE
10
37.0
20
40.75
30
0.0
11
37.0
21
2.0
31
0.0
0
LINE
8
OUTLINE
10
37.0
20
2.0
30
0.0
11
37.0
21
2.0
31
0.0
0
LINE
8
OUTLINE
10
50.0
20
2.0
30
0.0
11
50.0
21
2.0
31
0.0
0
LINE
8
OUTLINE
10
50.0
20
40.75
30
0.0
11
50.0
21
40.75
31
0.0
0
LINE
8
OUTLINE
10
37.0
20
40.75
30
0.0
11
37.0
21
40.75
31
0.0
0
LINE
8
OUTLINE
10
74.0
20
2.0
30
0.0
11
87.0
21
2.0
31
0.0
0
LINE
8
OUTLINE
10
87.0
20
2.0
30
0.0
11
87.0
21
40.75
31
0.0
0
LINE
8
OUTLINE
10
87.0
20
40.75
30
0.0
11
74.0
21
40.75
31
0.0
0
LINE
8
OUTLINE
10
74.0
20
40.75
30
0.0
11
74.0
21
2.0
31
0.0
0
LINE
8
OUTLINE
10
74.0
20
2.0
30
0.0
11
87.0
21
2.0
31
0.0
0
LINE
8
OUTLINE
10
87.0
20
2.0
30
0.0
11
87.0
21
40.75
31
0.0
0
LINE
8
OUTLINE
10
87.0
20
40.75
30
0.0
11
74.0
21
40.75
31
0.0
0
LINE
8
OUTLINE
10
74.0
20
40.75
30
0.0
11
74.0
21
2.0
31
0.0
0
LINE
8
OUTLINE
10
74.0
20
2.0
30
0.0
11
74.0
21
2.0
31
0.0
0
LINE
8
OUTLINE
10
87.0
20
2.0
30
0.0
11
87.0
21
2.0
31
0.0
0
LINE
8
OUTLINE
10
87.0
20
40.75
30
0.0
11
87.0
21
40.75
31
0.0
0
LINE
8
OUTLINE
10
74.0
20
40.75
30
0.0
11
74.0
21
40.75
31
0.0
0
LINE
8
OUTLINE
10
13.0
20
2.0
30
0.0
11
37.0
21
2.0
31
0.0
0
LINE
8
OUTLINE
10
37.0
20
2.0
30
0.0
11
37.0
21
40.75
31
0.0
0
LINE
8
OUTLINE
10
37.0
20
40.75
30
0.0
11
13.0
21
40.75
31
0.0
0
LINE
8
OUTLINE
10
13.0
20
40.75
30
0.0
11
13.0
21
2.0
31
0.0
0
LINE
8
OUTLINE
10
13.0
20
2.0
30
0.0
11
37.0
21
2.0
31
0.0
0
LINE
8
OUTLINE
10
37.0
20
2.0
30
0.0
11
37.0
21
40.75
31
0.0
0
LINE
8
OUTLINE
10
37.0
20
40.75
30
0.0
11
13.0
21
40.75
31
0.0
0
LINE
8
OUTLINE
10
13.0
20
40.75
30
0.0
11
13.0
21
2.0
31
0.0
0
LINE
8
OUTLINE
10
13.0
20
2.0
30
0.0
11
13.0
21
2.0
31
0.0
0
LINE
8
OUTLINE
10
37.0
20
2.0
30
0.0
11
37.0
21
2.0
31
0.0
0
LINE
8
OUTLINE
10
37.0
20
40.75
30
0.0
11
37.0
21
40.75
31
0.0
0
LINE
8
OUTLINE
10
13.0
20
40.75
30
0.0
11
13.0
21
40.75
31
0.0
0
LINE
8
OUTLINE
10
50.0
20
2.0
30
0.0
11
74.0
21
2.0
31
0.0
0
LINE
8
OUTLINE
10
74.0
20
2.0
30
0.0
11
74.0
21
40.75
31
0.0
0
LINE
8
OUTLINE
10
74.0
20
40.75
30
0.0
11
50.0
21
40.75
31
0.0
0
LINE
8
OUTLINE
10
50.0
20
40.75
30
0.0
11
50.0
21
2.0
31
0.0
0
LINE
8
OUTLINE
10
50.0
20
2.0
30
0.0
11
74.0
21
2.0
31
0.0
0
LINE
8
OUTLINE
10
74.0
20
2.0
30
0.0
11
74.0
21
40.75
31
0.0
0
LINE
8
OUTLINE
10
74.0
20
40.75
30
0.0
11
50.0
21
40.75
31
0.0
0
LINE
8
OUTLINE
10
50.0
20
40.75
30
0.0
11
50.0
21
2.0
31
0.0
0
LINE
8
OUTLINE
10
50.0
20
2.0
30
0.0
11
50.0
21
2.0
31
0.0
0
LINE
8
OUTLINE
10
74.0
20
2.0
30
0.0
11
74.0
21
2.0
31
0.0
0
LINE
8
OUTLINE
10
74.0
20
40.75
30
0.0
11
74.0
21
40.75
31
0.0
0
LINE
8
OUTLINE
10
50.0
20
40.75
30
0.0
11
50.0
21
40.75
31
0.0
0
LINE
8
OUTLINE
10
0.0
20
2.0
30
0.0
11
0.75
21
2.0
31
0.0
0
LINE
8
OUTLINE
10
0.75
20
2.0
30
0.0
11
0.75
21
2.0001
31
0.0
0
LINE
8
OUTLINE
10
0.75
20
40.7499
30
0.0
11
0.75
21
40.75
31
0.0
0
LINE
8
OUTLINE
10
0.75
20
40.75
30
0.0
11
0.0
21
40.75
31
0.0
0
LINE
8
OUTLINE
10
0.0
20
40.75
30
0.0
11
0.0
21
2.0
31
0.0
0
LINE
8
OUTLINE
10
0.0
20
2.0
30
0.0
11
0.75
21
2.0
31
0.0
0
LINE
8
OUTLINE
10
0.75
20
2.0
30
0.0
11
0.75
21
40.75
31
0.0
0
LINE
8
OUTLINE
10
0.75
20
40.75
30
0.0
11
0.0
21
40.75
31
0.0
0
LINE
8
OUTLINE
10
0.0
20
40.75
30
0.0
11
0.0
21
2.0
31
0.0
0
LINE
8
OUTLINE
10
0.0
20
2.0
30
0.0
11
0.0
21
2.0
31
0.0
0
LINE
8
OUTLINE
10
0.75
20
2.0
30
0.0
11
0.75
21
2.0
31
0.0
0
LINE
8
OUTLINE
10
0.75
20
40.75
30
0.0
11
0.75
21
40.75
31
0.0
0
LINE
8
OUTLINE
10
0.0
20
40.75
30
0.0
11
0.0
21
40.75
31
0.0
0
LINE
8
OUTLINE
10
86.25
20
2.0
30
0.0
11
87.0
21
2.0
31
0.0
0
LINE
8
OUTLINE
10
87.0
20
2.0
30
0.0
11
87.0
21
40.75
31
0.0
0
LINE
8
OUTLINE
10
87.0
20
40.75
30
0.0
11
86.25
21
40.75
31
0.0
0
LINE
8
OUTLINE
10
86.25
20
40.75
30
0.0
11
86.25
21
40.7499
31
0.0
0
LINE
8
OUTLINE
10
86.25
20
2.0001
30
0.0
11
86.25
21
2.0
31
0.0
0
LINE
8
OUTLINE
10
86.25
20
2.0
30
0.0
11
87.0
21
2.0
31
0.0
0
LINE
8
OUTLINE
10
87.0
20
2.0
30
0.0
11
87.0
21
40.75
31
0.0
0
LINE
8
OUTLINE
10
87.0
20
40.75
30
0.0
11
86.25
21
40.75
31
0.0
0
LINE
8
OUTLINE
10
86.25
20
40.75
30
0.0
11
86.25
21
2.0
31
0.0
0
LINE
8
OUTLINE
10
86.25
20
2.0
30
0.0
11
86.25
21
2.0
31
0.0
0
LINE
8
OUTLINE
10
87.0
20
2.0
30
0.0
11
87.0
21
2.0
31
0.0
0
LINE
8
OUTLINE
10
87.0
20
40.75
30
0.0
11
87.0
21
40.75
31
0.0
0
LINE
8
OUTLINE
10
86.25
20
40.75
30
0.0
11
86.25
21
40.75
31
0.0
0
LINE
8
OUTLINE
10
0.75
20
2.0
30
0.0
11
86.25
21
2.0
31
0.0
0
LINE
8
OUTLINE
10
86.25
20
2.0
30
0.0
11
86.25
21
2.0001
31
0.0
0
LINE
8
OUTLINE
10
0.75
20
2.0001
30
0.0
11
0.75
21
2.0
31
0.0
0
LINE
8
OUTLINE
10
0.75
20
2.0
30
0.0
11
86.25
21
2.0
31
0.0
0
LINE
8
OUTLINE
10
86.25
20
2.0
30
0.0
11
86.25
21
2.0001
31
0.0
0
LINE
8
OUTLINE
10
0.75
20
2.0001
30
0.0
11
0.75
21
2.0
31
0.0
0
LINE
8
OUTLINE
10
0.75
20
2.0
30
0.0
11
0.75
21
2.0
31
0.0
0
LINE
8
OUTLINE
10
86.25
20
2.0
30
0.0
11
86.25
21
2.0
31
0.0
0
LINE
8
OUTLINE
10
70.25
20
2.0
30
0.0
11
86.25
21
2.0
31
0.0
0
LINE
8
OUTLINE
10
86.25
20
2.0
30
0.0
11
86.25
21
2.0001
31
0.0
0
LINE
8
OUTLINE
10
70.25
20
2.0001
30
0.0
11
70.25
21
2.0
31
0.0
0
LINE
8
OUTLINE
10
70.25
20
2.0
30
0.0
11
86.25
21
2.0
31
0.0
0
LINE
8
OUTLINE
10
86.25
20
2.0
30
0.0
11
86.25
21
2.0001
31
0.0
0
LINE
8
OUTLINE
10
70.25
20
2.0001
30
0.0
11
70.25
21
2.0
31
0.0
0
LINE
8
OUTLINE
10
70.25
20
2.0
30
0.0
11
70.25
21
2.0
31
0.0
0
LINE
8
OUTLINE
10
86.25
20
2.0
30
0.0
11
86.25
21
2.0
31
0.0
0
LINE
8
OUTLINE
10
0.0
20
0.0
30
0.0
11
87.0
21
0.0
31
0.0
0
LINE
8
OUTLINE
10
87.0
20
0.0
30
0.0
11
87.0
21
2.0
31
0.0
0
LINE
8
OUTLINE
10
87.0
20
2.0
30
0.0
11
0.0
21
2.0
31
0.0
0
LINE
8
OUTLINE
10
0.0
20
2.0
30
0.0
11
0.0
21
0.0
31
0.0
0
LINE
8
OUTLINE
10
0.0
20
0.0
30
0.0
11
87.0
21
0.0
31
0.0
0
LINE
8
OUTLINE
10
87.0
20
0.0
30
0.0
11
87.0
21
2.0
31
0.0
0
LINE
8
OUTLINE
10
87.0
20
2.0
30
0.0
11
0.0
21
2.0
31
0.0
0
LINE
8
OUTLINE
10
0.0
20
2.0
30
0.0
11
0.0
21
0.0
31
0.0
0
LINE
8
OUTLINE
10
0.0
20
0.0
30
0.0
11
0.0
21
0.0
31
0.0
0
LINE
8
OUTLINE
10
87.0
20
0.0
30
0.0
11
87.0
21
0.0
31
0.0
0
LINE
8
OUTLINE
10
87.0
20
2.0
30
0.0
11
87.0
21
2.0
31
0.0
0
LINE
8
OUTLINE
10
0.0
20
2.0
30
0.0
11
0.0
21
2.0
31
0.0
0
LINE
8
OUTLINE
10
0.0
20
40.75
30
0.0
11
87.0
21
40.75
31
0.0
0
LINE
8
OUTLINE
10
87.0
20
40.75
30
0.0
11
87.0
21
42.0
31
0.0
0
LINE
8
OUTLINE
10
87.0
20
42.0
30
0.0
11
0.0
21
42.0
31
0.0
0
LINE
8
OUTLINE
10
0.0
20
42.0
30
0.0
11
0.0
21
40.75
31
0.0
0
LINE
8
OUTLINE
10
0.0
20
40.75
30
0.0
11
87.0
21
40.75
31
0.0
0
LINE
8
OUTLINE
10
87.0
20
40.75
30
0.0
11
87.0
21
42.0
31
0.0
0
LINE
8
OUTLINE
10
87.0
20
42.0
30
0.0
11
0.0
21
42.0
31
0.0
0
LINE
8
OUTLINE
10
0.0
20
42.0
30
0.0
11
0.0
21
40.75
31
0.0
0
LINE
8
OUTLINE
10
0.0
20
40.75
30
0.0
11
0.0
21
40.75
31
0.0
0
LINE
8
OUTLINE
10
87.0
20
40.75
30
0.0
11
87.0
21
40.75
31
0.0
0
LINE
8
OUTLINE
10
87.0
20
42.0
30
0.0
11
87.0
21
42.0
31
0.0
0
LINE
8
OUTLINE
10
0.0
20
42.0
30
0.0
11
0.0
21
42.0
31
0.0
0
TEXT
8
VIEWLABEL
10
0.0
20
-20.88
30
0.0
40
2.001
1
FRONT ELEVATION
50
0.0
72
0.0
73
0.0
11
0.0
21
-20.88
31
0.0
0
LINE
8
OUTLINE
10
113.85
20
2.0
30
0.0
11
113.85
21
2.0
31
0.0
0
LINE
8
OUTLINE
10
113.85
20
2.0
30
0.0
11
113.85
21
2.0001
31
0.0
0
LINE
8
OUTLINE
10
113.85
20
40.7499
30
0.0
11
113.85
21
40.75
31
0.0
0
LINE
8
OUTLINE
10
113.85
20
40.75
30
0.0
11
113.85
21
40.75
31
0.0
0
LINE
8
OUTLINE
10
113.85
20
40.75
30
0.0
11
113.85
21
40.7499
31
0.0
0
LINE
8
OUTLINE
10
113.85
20
2.0001
30
0.0
11
113.85
21
2.0
31
0.0
0
LINE
8
OUTLINE
10
113.1
20
2.0
30
0.0
11
113.1
21
2.0
31
0.0
0
LINE
8
OUTLINE
10
113.1
20
2.0
30
0.0
11
113.1
21
40.75
31
0.0
0
LINE
8
OUTLINE
10
113.1
20
40.75
30
0.0
11
113.1
21
40.75
31
0.0
0
LINE
8
OUTLINE
10
113.1
20
40.75
30
0.0
11
113.1
21
2.0
31
0.0
0
LINE
8
OUTLINE
10
113.85
20
2.0
30
0.0
11
113.1
21
2.0
31
0.0
0
LINE
8
OUTLINE
10
113.85
20
2.0
30
0.0
11
113.1
21
2.0
31
0.0
0
LINE
8
OUTLINE
10
113.85
20
40.75
30
0.0
11
113.1
21
40.75
31
0.0
0
LINE
8
OUTLINE
10
113.85
20
40.75
30
0.0
11
113.1
21
40.75
31
0.0
0
LINE
8
OUTLINE
10
113.85
20
2.0
30
0.0
11
113.85
21
2.0
31
0.0
0
LINE
8
OUTLINE
10
113.85
20
2.0
30
0.0
11
113.85
21
2.0001
31
0.0
0
LINE
8
OUTLINE
10
113.85
20
40.7499
30
0.0
11
113.85
21
40.75
31
0.0
0
LINE
8
OUTLINE
10
113.85
20
40.75
30
0.0
11
113.85
21
40.75
31
0.0
0
LINE
8
OUTLINE
10
113.85
20
40.75
30
0.0
11
113.85
21
40.7499
31
0.0
0
LINE
8
OUTLINE
10
113.85
20
2.0001
30
0.0
11
113.85
21
2.0
31
0.0
0
LINE
8
OUTLINE
10
113.1
20
2.0
30
0.0
11
113.1
21
2.0
31
0.0
0
LINE
8
OUTLINE
10
113.1
20
2.0
30
0.0
11
113.1
21
40.75
31
0.0
0
LINE
8
OUTLINE
10
113.1
20
40.75
30
0.0
11
113.1
21
40.75
31
0.0
0
LINE
8
OUTLINE
10
113.1
20
40.75
30
0.0
11
113.1
21
2.0
31
0.0
0
LINE
8
OUTLINE
10
113.85
20
2.0
30
0.0
11
113.1
21
2.0
31
0.0
0
LINE
8
OUTLINE
10
113.85
20
2.0
30
0.0
11
113.1
21
2.0
31
0.0
0
LINE
8
OUTLINE
10
113.85
20
40.75
30
0.0
11
113.1
21
40.75
31
0.0
0
LINE
8
OUTLINE
10
113.85
20
40.75
30
0.0
11
113.1
21
40.75
31
0.0
0
LINE
8
OUTLINE
10
113.85
20
2.0
30
0.0
11
113.85
21
2.0
31
0.0
0
LINE
8
OUTLINE
10
113.85
20
2.0
30
0.0
11
113.85
21
40.75
31
0.0
0
LINE
8
OUTLINE
10
113.85
20
40.75
30
0.0
11
113.85
21
40.75
31
0.0
0
LINE
8
OUTLINE
10
113.85
20
40.75
30
0.0
11
113.85
21
40.7499
31
0.0
0
LINE
8
OUTLINE
10
113.85
20
2.0001
30
0.0
11
113.85
21
2.0
31
0.0
0
LINE
8
OUTLINE
10
113.1
20
2.0
30
0.0
11
113.1
21
2.0
31
0.0
0
LINE
8
OUTLINE
10
113.1
20
2.0
30
0.0
11
113.1
21
40.75
31
0.0
0
LINE
8
OUTLINE
10
113.1
20
40.75
30
0.0
11
113.1
21
40.75
31
0.0
0
LINE
8
OUTLINE
10
113.1
20
40.75
30
0.0
11
113.1
21
2.0
31
0.0
0
LINE
8
OUTLINE
10
113.85
20
2.0
30
0.0
11
113.1
21
2.0
31
0.0
0
LINE
8
OUTLINE
10
113.85
20
2.0
30
0.0
11
113.1
21
2.0
31
0.0
0
LINE
8
OUTLINE
10
113.85
20
40.75
30
0.0
11
113.1
21
40.75
31
0.0
0
LINE
8
OUTLINE
10
113.85
20
40.75
30
0.0
11
113.1
21
40.75
31
0.0
0
LINE
8
OUTLINE
10
114.35
20
2.0
30
0.0
11
114.35
21
2.0
31
0.0
0
LINE
8
OUTLINE
10
114.35
20
2.0
30
0.0
11
114.35
21
2.0001
31
0.0
0
LINE
8
OUTLINE
10
114.35
20
40.7499
30
0.0
11
114.35
21
40.75
31
0.0
0
LINE
8
OUTLINE
10
114.35
20
40.75
30
0.0
11
114.35
21
40.75
31
0.0
0
LINE
8
OUTLINE
10
114.35
20
40.75
30
0.0
11
114.35
21
40.7499
31
0.0
0
LINE
8
OUTLINE
10
114.35
20
2.0001
30
0.0
11
114.35
21
2.0
31
0.0
0
LINE
8
OUTLINE
10
113.6
20
2.0
30
0.0
11
113.6
21
2.0
31
0.0
0
LINE
8
OUTLINE
10
113.6
20
2.0
30
0.0
11
113.6
21
2.0001
31
0.0
0
LINE
8
OUTLINE
10
113.6
20
40.7499
30
0.0
11
113.6
21
40.75
31
0.0
0
LINE
8
OUTLINE
10
113.6
20
40.75
30
0.0
11
113.6
21
40.75
31
0.0
0
LINE
8
OUTLINE
10
113.6
20
40.75
30
0.0
11
113.6
21
40.7499
31
0.0
0
LINE
8
OUTLINE
10
113.6
20
2.0001
30
0.0
11
113.6
21
2.0
31
0.0
0
LINE
8
OUTLINE
10
114.35
20
2.0
30
0.0
11
113.6
21
2.0
31
0.0
0
LINE
8
OUTLINE
10
114.35
20
2.0
30
0.0
11
113.6
21
2.0
31
0.0
0
LINE
8
OUTLINE
10
114.35
20
40.75
30
0.0
11
113.6
21
40.75
31
0.0
0
LINE
8
OUTLINE
10
114.35
20
40.75
30
0.0
11
113.6
21
40.75
31
0.0
0
LINE
8
OUTLINE
10
114.35
20
2.0
30
0.0
11
114.35
21
2.0
31
0.0
0
LINE
8
OUTLINE
10
114.35
20
2.0
30
0.0
11
114.35
21
2.0001
31
0.0
0
LINE
8
OUTLINE
10
114.35
20
40.7499
30
0.0
11
114.35
21
40.75
31
0.0
0
LINE
8
OUTLINE
10
114.35
20
40.75
30
0.0
11
114.35
21
40.75
31
0.0
0
LINE
8
OUTLINE
10
114.35
20
40.75
30
0.0
11
114.35
21
40.7499
31
0.0
0
LINE
8
OUTLINE
10
114.35
20
2.0001
30
0.0
11
114.35
21
2.0
31
0.0
0
LINE
8
OUTLINE
10
113.6
20
2.0
30
0.0
11
113.6
21
2.0
31
0.0
0
LINE
8
OUTLINE
10
113.6
20
2.0
30
0.0
11
113.6
21
2.0001
31
0.0
0
LINE
8
OUTLINE
10
113.6
20
40.7499
30
0.0
11
113.6
21
40.75
31
0.0
0
LINE
8
OUTLINE
10
113.6
20
40.75
30
0.0
11
113.6
21
40.75
31
0.0
0
LINE
8
OUTLINE
10
113.6
20
40.75
30
0.0
11
113.6
21
40.7499
31
0.0
0
LINE
8
OUTLINE
10
113.6
20
2.0001
30
0.0
11
113.6
21
2.0
31
0.0
0
LINE
8
OUTLINE
10
114.35
20
2.0
30
0.0
11
113.6
21
2.0
31
0.0
0
LINE
8
OUTLINE
10
114.35
20
2.0
30
0.0
11
113.6
21
2.0
31
0.0
0
LINE
8
OUTLINE
10
114.35
20
40.75
30
0.0
11
113.6
21
40.75
31
0.0
0
LINE
8
OUTLINE
10
114.35
20
40.75
30
0.0
11
113.6
21
40.75
31
0.0
0
LINE
8
OUTLINE
10
149.1
20
2.0
30
0.0
11
149.1
21
2.0
31
0.0
0
LINE
8
OUTLINE
10
149.1
20
2.0
30
0.0
11
149.1
21
40.75
31
0.0
0
LINE
8
OUTLINE
10
149.1
20
40.75
30
0.0
11
149.1
21
40.75
31
0.0
0
LINE
8
OUTLINE
10
149.1
20
40.75
30
0.0
11
149.1
21
2.0
31
0.0
0
LINE
8
OUTLINE
10
113.1
20
2.0
30
0.0
11
113.1
21
2.0
31
0.0
0
LINE
8
OUTLINE
10
113.1
20
2.0
30
0.0
11
113.1
21
40.75
31
0.0
0
LINE
8
OUTLINE
10
113.1
20
40.75
30
0.0
11
113.1
21
40.75
31
0.0
0
LINE
8
OUTLINE
10
113.1
20
40.75
30
0.0
11
113.1
21
2.0
31
0.0
0
LINE
8
OUTLINE
10
149.1
20
2.0
30
0.0
11
113.1
21
2.0
31
0.0
0
LINE
8
OUTLINE
10
149.1
20
2.0
30
0.0
11
113.1
21
2.0
31
0.0
0
LINE
8
OUTLINE
10
149.1
20
40.75
30
0.0
11
113.1
21
40.75
31
0.0
0
LINE
8
OUTLINE
10
149.1
20
40.75
30
0.0
11
113.1
21
40.75
31
0.0
0
LINE
8
OUTLINE
10
149.1
20
2.0
30
0.0
11
149.1
21
2.0
31
0.0
0
LINE
8
OUTLINE
10
149.1
20
2.0
30
0.0
11
149.1
21
40.75
31
0.0
0
LINE
8
OUTLINE
10
149.1
20
40.75
30
0.0
11
149.1
21
40.75
31
0.0
0
LINE
8
OUTLINE
10
149.1
20
40.75
30
0.0
11
149.1
21
2.0
31
0.0
0
LINE
8
OUTLINE
10
113.1
20
2.0
30
0.0
11
113.1
21
2.0
31
0.0
0
LINE
8
OUTLINE
10
113.1
20
2.0
30
0.0
11
113.1
21
40.75
31
0.0
0
LINE
8
OUTLINE
10
113.1
20
40.75
30
0.0
11
113.1
21
40.75
31
0.0
0
LINE
8
OUTLINE
10
113.1
20
40.75
30
0.0
11
113.1
21
2.0
31
0.0
0
LINE
8
OUTLINE
10
149.1
20
2.0
30
0.0
11
113.1
21
2.0
31
0.0
0
LINE
8
OUTLINE
10
149.1
20
2.0
30
0.0
11
113.1
21
2.0
31
0.0
0
LINE
8
OUTLINE
10
149.1
20
40.75
30
0.0
11
113.1
21
40.75
31
0.0
0
LINE
8
OUTLINE
10
149.1
20
40.75
30
0.0
11
113.1
21
40.75
31
0.0
0
LINE
8
OUTLINE
10
149.1
20
2.0
30
0.0
11
149.1
21
2.0
31
0.0
0
LINE
8
OUTLINE
10
149.1
20
2.0
30
0.0
11
149.1
21
29.0
31
0.0
0
LINE
8
OUTLINE
10
149.1
20
29.0
30
0.0
11
149.1
21
29.0
31
0.0
0
LINE
8
OUTLINE
10
149.1
20
29.0
30
0.0
11
149.1
21
2.0
31
0.0
0
LINE
8
OUTLINE
10
148.35
20
2.0
30
0.0
11
148.35
21
2.0
31
0.0
0
LINE
8
OUTLINE
10
148.35
20
2.0
30
0.0
11
148.35
21
2.0001
31
0.0
0
LINE
8
OUTLINE
10
148.35
20
2.0001
30
0.0
11
148.35
21
2.0
31
0.0
0
LINE
8
OUTLINE
10
149.1
20
2.0
30
0.0
11
148.35
21
2.0
31
0.0
0
LINE
8
OUTLINE
10
149.1
20
2.0
30
0.0
11
148.35
21
2.0
31
0.0
0
LINE
8
OUTLINE
10
149.1
20
29.0
30
0.0
11
149.0999
21
29.0
31
0.0
0
LINE
8
OUTLINE
10
149.1
20
29.0
30
0.0
11
149.0999
21
29.0
31
0.0
0
LINE
8
OUTLINE
10
148.35
20
2.0
30
0.0
11
148.35
21
2.0
31
0.0
0
LINE
8
OUTLINE
10
148.35
20
2.0
30
0.0
11
148.35
21
2.0001
31
0.0
0
LINE
8
OUTLINE
10
148.35
20
2.0001
30
0.0
11
148.35
21
2.0
31
0.0
0
LINE
8
OUTLINE
10
123.1
20
2.0
30
0.0
11
123.1
21
2.0
31
0.0
0
LINE
8
OUTLINE
10
123.1
20
2.0
30
0.0
11
123.1
21
2.0001
31
0.0
0
LINE
8
OUTLINE
10
123.1
20
2.0001
30
0.0
11
123.1
21
2.0
31
0.0
0
LINE
8
OUTLINE
10
148.35
20
2.0
30
0.0
11
123.1
21
2.0
31
0.0
0
LINE
8
OUTLINE
10
148.35
20
2.0
30
0.0
11
123.1
21
2.0
31
0.0
0
LINE
8
OUTLINE
10
149.1
20
0.0
30
0.0
11
149.1
21
0.0
31
0.0
0
LINE
8
OUTLINE
10
149.1
20
0.0
30
0.0
11
149.1
21
2.0
31
0.0
0
LINE
8
OUTLINE
10
149.1
20
2.0
30
0.0
11
149.1
21
2.0
31
0.0
0
LINE
8
OUTLINE
10
149.1
20
2.0
30
0.0
11
149.1
21
0.0
31
0.0
0
LINE
8
OUTLINE
10
116.1
20
0.0
30
0.0
11
116.1
21
0.0
31
0.0
0
LINE
8
OUTLINE
10
116.1
20
0.0
30
0.0
11
116.1
21
2.0
31
0.0
0
LINE
8
OUTLINE
10
116.1
20
2.0
30
0.0
11
116.1
21
2.0
31
0.0
0
LINE
8
OUTLINE
10
116.1
20
2.0
30
0.0
11
116.1
21
0.0
31
0.0
0
LINE
8
OUTLINE
10
149.1
20
0.0
30
0.0
11
116.1
21
0.0
31
0.0
0
LINE
8
OUTLINE
10
149.1
20
0.0
30
0.0
11
116.1
21
0.0
31
0.0
0
LINE
8
OUTLINE
10
149.1
20
2.0
30
0.0
11
116.1
21
2.0
31
0.0
0
LINE
8
OUTLINE
10
149.1
20
2.0
30
0.0
11
116.1
21
2.0
31
0.0
0
LINE
8
OUTLINE
10
123.1
20
40.75
30
0.0
11
123.1
21
40.75
31
0.0
0
LINE
8
OUTLINE
10
123.1
20
40.75
30
0.0
11
123.1
21
42.0
31
0.0
0
LINE
8
OUTLINE
10
123.1
20
42.0
30
0.0
11
123.1
21
42.0
31
0.0
0
LINE
8
OUTLINE
10
123.1
20
42.0
30
0.0
11
123.1
21
40.75
31
0.0
0
LINE
8
OUTLINE
10
113.1
20
40.75
30
0.0
11
113.1
21
40.75
31
0.0
0
LINE
8
OUTLINE
10
113.1
20
40.75
30
0.0
11
113.1
21
42.0
31
0.0
0
LINE
8
OUTLINE
10
113.1
20
42.0
30
0.0
11
113.1
21
42.0
31
0.0
0
LINE
8
OUTLINE
10
113.1
20
42.0
30
0.0
11
113.1
21
40.75
31
0.0
0
LINE
8
OUTLINE
10
123.1
20
40.75
30
0.0
11
113.1
21
40.75
31
0.0
0
LINE
8
OUTLINE
10
123.1
20
40.75
30
0.0
11
113.1
21
40.75
31
0.0
0
LINE
8
OUTLINE
10
123.1
20
42.0
30
0.0
11
113.1
21
42.0
31
0.0
0
LINE
8
OUTLINE
10
123.1
20
42.0
30
0.0
11
113.1
21
42.0
31
0.0
0
TEXT
8
VIEWLABEL
10
113.1
20
-20.88
30
0.0
40
2.001
1
RIGHT SIDE ELEVATION
50
0.0
72
0.0
73
0.0
11
113.1
21
-20.88
31
0.0
0
LINE
8
OUTLINE
10
0.0
20
72.33
30
0.0
11
0.0001
21
72.33
31
0.0
0
LINE
8
OUTLINE
10
0.0001
20
72.33
30
0.0
11
0.0
21
72.33
31
0.0
0
LINE
8
OUTLINE
10
0.0
20
72.33
30
0.0
11
0.0
21
72.33
31
0.0
0
LINE
8
OUTLINE
10
0.0
20
71.58
30
0.0
11
13.0
21
71.58
31
0.0
0
LINE
8
OUTLINE
10
13.0
20
71.58
30
0.0
11
13.0
21
71.58
31
0.0
0
LINE
8
OUTLINE
10
13.0
20
71.58
30
0.0
11
0.0
21
71.58
31
0.0
0
LINE
8
OUTLINE
10
0.0
20
71.58
30
0.0
11
0.0
21
71.58
31
0.0
0
LINE
8
OUTLINE
10
0.0
20
72.33
30
0.0
11
0.0
21
71.58
31
0.0
0
LINE
8
OUTLINE
10
13.0
20
71.5801
30
0.0
11
13.0
21
71.58
31
0.0
0
LINE
8
OUTLINE
10
13.0
20
71.5801
30
0.0
11
13.0
21
71.58
31
0.0
0
LINE
8
OUTLINE
10
0.0
20
72.33
30
0.0
11
0.0
21
71.58
31
0.0
0
LINE
8
OUTLINE
10
37.0
20
71.58
30
0.0
11
50.0
21
71.58
31
0.0
0
LINE
8
OUTLINE
10
50.0
20
71.58
30
0.0
11
50.0
21
71.58
31
0.0
0
LINE
8
OUTLINE
10
50.0
20
71.58
30
0.0
11
37.0
21
71.58
31
0.0
0
LINE
8
OUTLINE
10
37.0
20
71.58
30
0.0
11
37.0
21
71.58
31
0.0
0
LINE
8
OUTLINE
10
37.0
20
71.5801
30
0.0
11
37.0
21
71.58
31
0.0
0
LINE
8
OUTLINE
10
50.0
20
71.5801
30
0.0
11
50.0
21
71.58
31
0.0
0
LINE
8
OUTLINE
10
50.0
20
71.5801
30
0.0
11
50.0
21
71.58
31
0.0
0
LINE
8
OUTLINE
10
37.0
20
71.5801
30
0.0
11
37.0
21
71.58
31
0.0
0
LINE
8
OUTLINE
10
86.9999
20
72.33
30
0.0
11
87.0
21
72.33
31
0.0
0
LINE
8
OUTLINE
10
87.0
20
72.33
30
0.0
11
87.0
21
72.33
31
0.0
0
LINE
8
OUTLINE
10
87.0
20
72.33
30
0.0
11
86.9999
21
72.33
31
0.0
0
LINE
8
OUTLINE
10
74.0
20
71.58
30
0.0
11
87.0
21
71.58
31
0.0
0
LINE
8
OUTLINE
10
87.0
20
71.58
30
0.0
11
87.0
21
71.58
31
0.0
0
LINE
8
OUTLINE
10
87.0
20
71.58
30
0.0
11
74.0
21
71.58
31
0.0
0
LINE
8
OUTLINE
10
74.0
20
71.58
30
0.0
11
74.0
21
71.58
31
0.0
0
LINE
8
OUTLINE
10
74.0
20
71.5801
30
0.0
11
74.0
21
71.58
31
0.0
0
LINE
8
OUTLINE
10
87.0
20
72.33
30
0.0
11
87.0
21
71.58
31
0.0
0
LINE
8
OUTLINE
10
87.0
20
72.33
30
0.0
11
87.0
21
71.58
31
0.0
0
LINE
8
OUTLINE
10
74.0
20
71.5801
30
0.0
11
74.0
21
71.58
31
0.0
0
LINE
8
OUTLINE
10
0.0
20
107.58
30
0.0
11
0.75
21
107.58
31
0.0
0
LINE
8
OUTLINE
10
0.75
20
107.58
30
0.0
11
0.75
21
107.58
31
0.0
0
LINE
8
OUTLINE
10
0.75
20
107.58
30
0.0
11
0.0
21
107.58
31
0.0
0
LINE
8
OUTLINE
10
0.0
20
107.58
30
0.0
11
0.0
21
107.58
31
0.0
0
LINE
8
OUTLINE
10
0.0
20
71.58
30
0.0
11
0.75
21
71.58
31
0.0
0
LINE
8
OUTLINE
10
0.75
20
71.58
30
0.0
11
0.75
21
71.58
31
0.0
0
LINE
8
OUTLINE
10
0.75
20
71.58
30
0.0
11
0.0
21
71.58
31
0.0
0
LINE
8
OUTLINE
10
0.0
20
71.58
30
0.0
11
0.0
21
71.58
31
0.0
0
LINE
8
OUTLINE
10
0.0
20
107.58
30
0.0
11
0.0
21
71.58
31
0.0
0
LINE
8
OUTLINE
10
0.75
20
107.58
30
0.0
11
0.75
21
81.5799
31
0.0
0
LINE
8
OUTLINE
10
0.75
20
71.5801
30
0.0
11
0.75
21
71.58
31
0.0
0
LINE
8
OUTLINE
10
0.75
20
107.58
30
0.0
11
0.75
21
81.5799
31
0.0
0
LINE
8
OUTLINE
10
0.75
20
71.5801
30
0.0
11
0.75
21
71.58
31
0.0
0
LINE
8
OUTLINE
10
0.0
20
107.58
30
0.0
11
0.0
21
71.58
31
0.0
0
LINE
8
OUTLINE
10
86.25
20
107.58
30
0.0
11
87.0
21
107.58
31
0.0
0
LINE
8
OUTLINE
10
87.0
20
107.58
30
0.0
11
87.0
21
107.58
31
0.0
0
LINE
8
OUTLINE
10
87.0
20
107.58
30
0.0
11
86.25
21
107.58
31
0.0
0
LINE
8
OUTLINE
10
86.25
20
107.58
30
0.0
11
86.25
21
107.58
31
0.0
0
LINE
8
OUTLINE
10
86.25
20
71.58
30
0.0
11
87.0
21
71.58
31
0.0
0
LINE
8
OUTLINE
10
87.0
20
71.58
30
0.0
11
87.0
21
71.58
31
0.0
0
LINE
8
OUTLINE
10
87.0
20
71.58
30
0.0
11
86.25
21
71.58
31
0.0
0
LINE
8
OUTLINE
10
86.25
20
71.58
30
0.0
11
86.25
21
71.58
31
0.0
0
LINE
8
OUTLINE
10
86.25
20
107.58
30
0.0
11
86.25
21
81.5799
31
0.0
0
LINE
8
OUTLINE
10
86.25
20
71.5801
30
0.0
11
86.25
21
71.58
31
0.0
0
LINE
8
OUTLINE
10
87.0
20
107.58
30
0.0
11
87.0
21
71.58
31
0.0
0
LINE
8
OUTLINE
10
87.0
20
107.58
30
0.0
11
87.0
21
71.58
31
0.0
0
LINE
8
OUTLINE
10
86.25
20
107.58
30
0.0
11
86.25
21
81.5799
31
0.0
0
LINE
8
OUTLINE
10
86.25
20
71.5801
30
0.0
11
86.25
21
71.58
31
0.0
0
LINE
8
OUTLINE
10
0.75
20
107.58
30
0.0
11
86.25
21
107.58
31
0.0
0
LINE
8
OUTLINE
10
86.25
20
107.58
30
0.0
11
86.25
21
107.58
31
0.0
0
LINE
8
OUTLINE
10
86.25
20
107.58
30
0.0
11
0.75
21
107.58
31
0.0
0
LINE
8
OUTLINE
10
0.75
20
107.58
30
0.0
11
0.75
21
107.58
31
0.0
0
LINE
8
OUTLINE
10
0.75
20
106.83
30
0.0
11
86.25
21
106.83
31
0.0
0
LINE
8
OUTLINE
10
86.25
20
106.83
30
0.0
11
86.25
21
106.83
31
0.0
0
LINE
8
OUTLINE
10
86.25
20
106.83
30
0.0
11
0.75
21
106.83
31
0.0
0
LINE
8
OUTLINE
10
0.75
20
106.83
30
0.0
11
0.75
21
106.83
31
0.0
0
LINE
8
OUTLINE
10
0.75
20
107.58
30
0.0
11
0.75
21
106.83
31
0.0
0
LINE
8
OUTLINE
10
86.25
20
107.58
30
0.0
11
86.25
21
106.83
31
0.0
0
LINE
8
OUTLINE
10
86.25
20
107.58
30
0.0
11
86.25
21
106.83
31
0.0
0
LINE
8
OUTLINE
10
0.75
20
107.58
30
0.0
11
0.75
21
106.83
31
0.0
0
LINE
8
OUTLINE
10
0.75
20
106.83
30
0.0
11
86.25
21
106.83
31
0.0
0
LINE
8
OUTLINE
10
86.25
20
106.83
30
0.0
11
86.25
21
106.83
31
0.0
0
LINE
8
OUTLINE
10
86.25
20
106.83
30
0.0
11
0.75
21
106.83
31
0.0
0
LINE
8
OUTLINE
10
0.75
20
106.83
30
0.0
11
0.75
21
106.83
31
0.0
0
LINE
8
OUTLINE
10
0.75
20
81.58
30
0.0
11
86.25
21
81.58
31
0.0
0
LINE
8
OUTLINE
10
86.25
20
81.58
30
0.0
11
86.25
21
81.58
31
0.0
0
LINE
8
OUTLINE
10
86.25
20
81.58
30
0.0
11
0.75
21
81.58
31
0.0
0
LINE
8
OUTLINE
10
0.75
20
81.58
30
0.0
11
0.75
21
81.58
31
0.0
0
LINE
8
OUTLINE
10
0.75
20
106.83
30
0.0
11
0.75
21
81.58
31
0.0
0
LINE
8
OUTLINE
10
86.25
20
106.83
30
0.0
11
86.25
21
81.58
31
0.0
0
LINE
8
OUTLINE
10
86.25
20
106.83
30
0.0
11
86.25
21
81.58
31
0.0
0
LINE
8
OUTLINE
10
0.75
20
106.83
30
0.0
11
0.75
21
81.58
31
0.0
0
LINE
8
OUTLINE
10
70.25
20
106.83
30
0.0
11
86.25
21
106.83
31
0.0
0
LINE
8
OUTLINE
10
86.25
20
106.83
30
0.0
11
86.25
21
106.83
31
0.0
0
LINE
8
OUTLINE
10
86.25
20
106.83
30
0.0
11
70.25
21
106.83
31
0.0
0
LINE
8
OUTLINE
10
70.25
20
106.83
30
0.0
11
70.25
21
106.83
31
0.0
0
LINE
8
OUTLINE
10
70.25
20
81.58
30
0.0
11
86.25
21
81.58
31
0.0
0
LINE
8
OUTLINE
10
86.25
20
81.58
30
0.0
11
86.25
21
81.58
31
0.0
0
LINE
8
OUTLINE
10
86.25
20
81.58
30
0.0
11
70.25
21
81.58
31
0.0
0
LINE
8
OUTLINE
10
70.25
20
81.58
30
0.0
11
70.25
21
81.58
31
0.0
0
LINE
8
OUTLINE
10
70.25
20
106.83
30
0.0
11
70.25
21
106.8299
31
0.0
0
LINE
8
OUTLINE
10
70.25
20
81.5801
30
0.0
11
70.25
21
81.58
31
0.0
0
LINE
8
OUTLINE
10
86.25
20
106.83
30
0.0
11
86.25
21
81.58
31
0.0
0
LINE
8
OUTLINE
10
86.25
20
106.83
30
0.0
11
86.25
21
81.58
31
0.0
0
LINE
8
OUTLINE
10
70.25
20
106.83
30
0.0
11
70.25
21
106.8299
31
0.0
0
LINE
8
OUTLINE
10
70.25
20
81.5801
30
0.0
11
70.25
21
81.58
31
0.0
0
LINE
8
OUTLINE
10
0.0
20
107.58
30
0.0
11
87.0
21
107.58
31
0.0
0
LINE
8
OUTLINE
10
87.0
20
107.58
30
0.0
11
87.0
21
107.58
31
0.0
0
LINE
8
OUTLINE
10
87.0
20
107.58
30
0.0
11
0.0
21
107.58
31
0.0
0
LINE
8
OUTLINE
10
0.0
20
107.58
30
0.0
11
0.0
21
107.58
31
0.0
0
LINE
8
OUTLINE
10
0.0
20
74.58
30
0.0
11
0.0001
21
74.58
31
0.0
0
LINE
8
OUTLINE
10
86.9999
20
74.58
30
0.0
11
87.0
21
74.58
31
0.0
0
LINE
8
OUTLINE
10
87.0
20
74.58
30
0.0
11
87.0
21
74.58
31
0.0
0
LINE
8
OUTLINE
10
87.0
20
74.58
30
0.0
11
86.9999
21
74.58
31
0.0
0
LINE
8
OUTLINE
10
0.0001
20
74.58
30
0.0
11
0.0
21
74.58
31
0.0
0
LINE
8
OUTLINE
10
0.0
20
74.58
30
0.0
11
0.0
21
74.58
31
0.0
0
LINE
8
OUTLINE
10
0.0
20
107.58
30
0.0
11
0.0
21
74.58
31
0.0
0
LINE
8
OUTLINE
10
87.0
20
107.58
30
0.0
11
87.0
21
74.58
31
0.0
0
LINE
8
OUTLINE
10
87.0
20
107.58
30
0.0
11
87.0
21
74.58
31
0.0
0
LINE
8
OUTLINE
10
0.0
20
107.58
30
0.0
11
0.0
21
74.58
31
0.0
0
LINE
8
OUTLINE
10
0.0
20
81.58
30
0.0
11
87.0
21
81.58
31
0.0
0
LINE
8
OUTLINE
10
87.0
20
81.58
30
0.0
11
87.0
21
81.58
31
0.0
0
LINE
8
OUTLINE
10
87.0
20
81.58
30
0.0
11
0.0
21
81.58
31
0.0
0
LINE
8
OUTLINE
10
0.0
20
81.58
30
0.0
11
0.0
21
81.58
31
0.0
0
LINE
8
OUTLINE
10
0.0
20
71.58
30
0.0
11
87.0
21
71.58
31
0.0
0
LINE
8
OUTLINE
10
87.0
20
71.58
30
0.0
11
87.0
21
71.58
31
0.0
0
LINE
8
OUTLINE
10
87.0
20
71.58
30
0.0
11
0.0
21
71.58
31
0.0
0
LINE
8
OUTLINE
10
0.0
20
71.58
30
0.0
11
0.0
21
71.58
31
0.0
0
LINE
8
OUTLINE
10
0.0
20
81.58
30
0.0
11
0.0
21
71.58
31
0.0
0
LINE
8
OUTLINE
10
87.0
20
81.58
30
0.0
11
87.0
21
71.58
31
0.0
0
LINE
8
OUTLINE
10
87.0
20
81.58
30
0.0
11
87.0
21
71.58
31
0.0
0
LINE
8
OUTLINE
10
0.0
20
81.58
30
0.0
11
0.0
21
71.58
31
0.0
0
TEXT
8
VIEWLABEL
10
0.0
20
114.54
30
0.0
40
2.001
1
PLAN
50
0.0
72
0.0
73
0.0
11
0.0
21
114.54
31
0.0
0
LINE
8
OUTLINE
10
113.1
20
90.40726
30
0.0
11
122.292388
21
87.790233
31
0.0
0
LINE
8
OUTLINE
10
122.292388
20
87.790233
30
0.0
11
122.292388
21
124.936685
31
0.0
0
LINE
8
OUTLINE
10
122.292388
20
124.936685
30
0.0
11
113.1
21
127.553713
31
0.0
0
LINE
8
OUTLINE
10
113.1
20
127.553713
30
0.0
11
113.1
21
90.40726
31
0.0
0
LINE
8
OUTLINE
10
113.100263
20
90.407335
30
0.0
11
113.1
21
90.40726
31
0.0
0
LINE
8
OUTLINE
10
122.646204
20
87.890962
30
0.0
11
122.292388
21
87.790233
31
0.0
0
LINE
8
OUTLINE
10
122.292651
20
124.93676
30
0.0
11
122.292388
21
124.936685
31
0.0
0
LINE
8
OUTLINE
10
113.100263
20
127.553788
30
0.0
11
113.1
21
127.553713
31
0.0
0
LINE
8
OUTLINE
10
139.262951
20
82.958797
30
0.0
11
148.455339
21
80.34177
31
0.0
0
LINE
8
OUTLINE
10
148.455339
20
80.34177
30
0.0
11
148.455339
21
117.488222
31
0.0
0
LINE
8
OUTLINE
10
148.455339
20
117.488222
30
0.0
11
139.262951
21
120.10525
31
0.0
0
LINE
8
OUTLINE
10
139.262951
20
120.10525
30
0.0
11
139.262951
21
82.958797
31
0.0
0
LINE
8
OUTLINE
10
139.263214
20
82.958872
30
0.0
11
139.262951
21
82.958797
31
0.0
0
LINE
8
OUTLINE
10
148.809155
20
80.442499
30
0.0
11
148.455339
21
80.34177
31
0.0
0
LINE
8
OUTLINE
10
148.455602
20
117.488297
30
0.0
11
148.455339
21
117.488222
31
0.0
0
LINE
8
OUTLINE
10
139.263214
20
120.105325
30
0.0
11
139.262951
21
120.10525
31
0.0
0
LINE
8
OUTLINE
10
175.148357
20
73.044364
30
0.0
11
175.14862
21
73.044289
31
0.0
0
LINE
8
OUTLINE
10
175.14862
20
73.044289
30
0.0
11
175.14862
21
110.190742
31
0.0
0
LINE
8
OUTLINE
10
175.14862
20
110.190742
30
0.0
11
175.148357
21
110.190817
31
0.0
0
LINE
8
OUTLINE
10
165.425902
20
75.510334
30
0.0
11
174.61829
21
72.893307
31
0.0
0
LINE
8
OUTLINE
10
174.61829
20
72.893307
30
0.0
11
174.61829
21
110.039759
31
0.0
0
LINE
8
OUTLINE
10
174.61829
20
110.039759
30
0.0
11
165.425902
21
112.656787
31
0.0
0
LINE
8
OUTLINE
10
165.425902
20
112.656787
30
0.0
11
165.425902
21
75.510334
31
0.0
0
LINE
8
OUTLINE
10
165.426165
20
75.510409
30
0.0
11
165.425902
21
75.510334
31
0.0
0
LINE
8
OUTLINE
10
175.14862
20
73.044289
30
0.0
11
174.61829
21
72.893307
31
0.0
0
LINE
8
OUTLINE
10
175.14862
20
110.190742
30
0.0
11
174.61829
21
110.039759
31
0.0
0
LINE
8
OUTLINE
10
165.426165
20
112.656862
30
0.0
11
165.425902
21
112.656787
31
0.0
0
LINE
8
OUTLINE
10
122.645942
20
87.890888
30
0.0
11
139.263092
21
83.160067
31
0.0
0
LINE
8
OUTLINE
10
122.645942
20
124.836166
30
0.0
11
122.645942
21
87.890888
31
0.0
0
LINE
8
OUTLINE
10
122.646204
20
87.890962
30
0.0
11
122.645942
21
87.890888
31
0.0
0
LINE
8
OUTLINE
10
148.808892
20
80.442425
30
0.0
11
165.426043
21
75.711604
31
0.0
0
LINE
8
OUTLINE
10
148.808892
20
117.387704
30
0.0
11
148.808892
21
80.442425
31
0.0
0
LINE
8
OUTLINE
10
148.809155
20
80.442499
30
0.0
11
148.808892
21
80.442425
31
0.0
0
LINE
8
OUTLINE
10
139.086174
20
125.37991
30
0.0
11
139.086174
21
134.649883
31
0.0
0
LINE
8
OUTLINE
10
139.086174
20
134.649883
30
0.0
11
138.555844
21
134.800866
31
0.0
0
LINE
8
OUTLINE
10
138.555844
20
134.800866
30
0.0
11
138.555844
21
134.800661
31
0.0
0
LINE
8
OUTLINE
10
113.1
20
90.40726
30
0.0
11
113.63033
21
90.256278
31
0.0
0
LINE
8
OUTLINE
10
113.63033
20
90.256278
30
0.0
11
113.63033
21
127.40273
31
0.0
0
LINE
8
OUTLINE
10
113.63033
20
127.40273
30
0.0
11
113.1
21
127.553713
31
0.0
0
LINE
8
OUTLINE
10
113.1
20
127.553713
30
0.0
11
113.1
21
90.40726
31
0.0
0
LINE
8
OUTLINE
10
113.100263
20
90.407335
30
0.0
11
113.1
21
90.40726
31
0.0
0
LINE
8
OUTLINE
10
113.630593
20
90.256353
30
0.0
11
113.63033
21
90.256278
31
0.0
0
LINE
8
OUTLINE
10
139.086174
20
134.649883
30
0.0
11
122.805643
21
130.014897
31
0.0
0
LINE
8
OUTLINE
10
113.630593
20
127.402805
30
0.0
11
113.63033
21
127.40273
31
0.0
0
LINE
8
OUTLINE
10
138.555844
20
134.800866
30
0.0
11
122.275313
21
130.165879
31
0.0
0
LINE
8
OUTLINE
10
113.100263
20
127.553788
30
0.0
11
113.1
21
127.553713
31
0.0
0
LINE
8
OUTLINE
10
200.073871
20
80.140535
30
0.0
11
200.074134
21
80.14046
31
0.0
0
LINE
8
OUTLINE
10
200.074134
20
80.14046
30
0.0
11
200.074134
21
117.286913
31
0.0
0
LINE
8
OUTLINE
10
200.074134
20
117.286913
30
0.0
11
199.543804
21
117.437895
31
0.0
0
LINE
8
OUTLINE
10
199.543804
20
117.437895
30
0.0
11
199.543804
21
117.43769
31
0.0
0
LINE
8
OUTLINE
10
174.08796
20
73.044289
30
0.0
11
174.61829
21
72.893307
31
0.0
0
LINE
8
OUTLINE
10
174.61829
20
72.893307
30
0.0
11
174.61829
21
110.039759
31
0.0
0
LINE
8
OUTLINE
10
174.61829
20
110.039759
30
0.0
11
174.08796
21
110.190742
31
0.0
0
LINE
8
OUTLINE
10
174.08796
20
110.190742
30
0.0
11
174.08796
21
73.044289
31
0.0
0
LINE
8
OUTLINE
10
174.088223
20
73.044364
30
0.0
11
174.08796
21
73.044289
31
0.0
0
LINE
8
OUTLINE
10
200.074134
20
80.14046
30
0.0
11
174.61829
21
72.893307
31
0.0
0
LINE
8
OUTLINE
10
200.074134
20
117.286913
30
0.0
11
174.61829
21
110.039759
31
0.0
0
LINE
8
OUTLINE
10
199.543804
20
117.437895
30
0.0
11
181.689216
21
112.354782
31
0.0
0
LINE
8
OUTLINE
10
174.088223
20
110.190817
30
0.0
11
174.08796
21
110.190742
31
0.0
0
LINE
8
OUTLINE
10
200.073871
20
78.223298
30
0.0
11
200.074134
21
78.223224
31
0.0
0
LINE
8
OUTLINE
10
200.074134
20
78.223224
30
0.0
11
200.074134
21
80.14046
31
0.0
0
LINE
8
OUTLINE
10
200.074134
20
80.14046
30
0.0
11
200.073871
21
80.140535
31
0.0
0
LINE
8
OUTLINE
10
115.22132
20
89.093953
30
0.0
11
176.73961
21
71.58
31
0.0
0
LINE
8
OUTLINE
10
176.73961
20
71.58
30
0.0
11
176.73961
21
73.497236
31
0.0
0
LINE
8
OUTLINE
10
176.73961
20
73.497236
30
0.0
11
176.739347
21
73.497311
31
0.0
0
LINE
8
OUTLINE
10
115.22132
20
89.803467
30
0.0
11
115.22132
21
89.093953
31
0.0
0
LINE
8
OUTLINE
10
115.221583
20
89.094028
30
0.0
11
115.22132
21
89.093953
31
0.0
0
LINE
8
OUTLINE
10
200.074134
20
78.223224
30
0.0
11
176.73961
21
71.58
31
0.0
0
LINE
8
OUTLINE
10
200.074134
20
80.14046
30
0.0
11
176.73961
21
73.497236
31
0.0
0
LINE
8
OUTLINE
10
181.689095
20
112.052932
30
0.0
11
181.689358
21
112.052858
31
0.0
0
LINE
8
OUTLINE
10
181.689358
20
112.052858
30
0.0
11
181.689358
21
113.25113
31
0.0
0
LINE
8
OUTLINE
10
181.689358
20
113.25113
30
0.0
11
120.171068
21
130.765083
31
0.0
0
LINE
8
OUTLINE
10
120.171068
20
130.765083
30
0.0
11
120.171068
21
130.764878
31
0.0
0
LINE
8
OUTLINE
10
113.1
20
127.553713
30
0.0
11
174.61829
21
110.039759
31
0.0
0
LINE
8
OUTLINE
10
174.61829
20
110.039759
30
0.0
11
174.61829
21
111.238032
31
0.0
0
LINE
8
OUTLINE
10
174.61829
20
111.238032
30
0.0
11
113.1
21
128.751985
31
0.0
0
LINE
8
OUTLINE
10
113.1
20
128.751985
30
0.0
11
113.1
21
127.553713
31
0.0
0
LINE
8
OUTLINE
10
113.100263
20
127.553788
30
0.0
11
113.1
21
127.553713
31
0.0
0
LINE
8
OUTLINE
10
181.689358
20
112.052858
30
0.0
11
174.61829
21
110.039759
31
0.0
0
LINE
8
OUTLINE
10
181.689358
20
113.25113
30
0.0
11
174.61829
21
111.238032
31
0.0
0
LINE
8
OUTLINE
10
120.171068
20
130.765083
30
0.0
11
113.1
21
128.751985
31
0.0
0
TEXT
8
VIEWLABEL
10
113.1
20
141.760866
30
0.0
40
2.001
1
ISOMETRIC
50
0.0
72
0.0
73
0.0
11
113.1
21
141.760866
31
0.0
0
LINE
8
DIMS
10
0.0
20
0.0
30
0.0
11
0.0
21
-9.744
31
0.0
0
LINE
8
DIMS
10
87.0
20
0.0
30
0.0
11
87.0
21
-9.744
31
0.0
0
LINE
8
DIMS
10
0.0
20
-8.7
30
0.0
11
87.0
21
-8.7
31
0.0
0
SOLID
8
DIMS
10
0.0
20
-8.7
30
0.0
11
1.566
21
-8.98188
31
0.0
12
1.566
22
-8.41812
32
0.0
13
1.566
23
-8.41812
33
0.0
0
SOLID
8
DIMS
10
87.0
20
-8.7
30
0.0
11
85.434
21
-8.41812
31
0.0
12
85.434
22
-8.98188
32
0.0
13
85.434
23
-8.98188
33
0.0
0
TEXT
8
DIMS
10
43.5
20
-8.004
30
0.0
40
1.74
1
87"
50
0.0
72
1.0
73
0.0
11
43.5
21
-8.004
31
0.0
0
LINE
8
DIMS
10
0.0
20
0.0
30
0.0
11
-9.744
21
0.0
31
0.0
0
LINE
8
DIMS
10
0.0
20
42.0
30
0.0
11
-9.744
21
42.0
31
0.0
0
LINE
8
DIMS
10
-8.7
20
0.0
30
0.0
11
-8.7
21
42.0
31
0.0
0
SOLID
8
DIMS
10
-8.7
20
0.0
30
0.0
11
-8.41812
21
1.566
31
0.0
12
-8.98188
22
1.566
32
0.0
13
-8.98188
23
1.566
33
0.0
0
SOLID
8
DIMS
10
-8.7
20
42.0
30
0.0
11
-8.98188
21
40.434
31
0.0
12
-8.41812
22
40.434
32
0.0
13
-8.41812
23
40.434
33
0.0
0
TEXT
8
DIMS
10
-9.396
20
21.0
30
0.0
40
1.74
1
42"
50
90.0
72
1.0
73
0.0
11
-9.396
21
21.0
31
0.0
0
LINE
8
DIMS
10
113.1
20
0.0
30
0.0
11
113.1
21
-9.744
31
0.0
0
LINE
8
DIMS
10
149.1
20
0.0
30
0.0
11
149.1
21
-9.744
31
0.0
0
LINE
8
DIMS
10
113.1
20
-8.7
30
0.0
11
149.1
21
-8.7
31
0.0
0
SOLID
8
DIMS
10
113.1
20
-8.7
30
0.0
11
114.666
21
-8.98188
31
0.0
12
114.666
22
-8.41812
32
0.0
13
114.666
23
-8.41812
33
0.0
0
SOLID
8
DIMS
10
149.1
20
-8.7
30
0.0
11
147.534
21
-8.41812
31
0.0
12
147.534
22
-8.98188
32
0.0
13
147.534
23
-8.98188
33
0.0
0
TEXT
8
DIMS
10
131.1
20
-8.004
30
0.0
40
1.74
1
36"
50
0.0
72
1.0
73
0.0
11
131.1
21
-8.004
31
0.0
0
LINE
8
TITLE
10
-26.1
20
-51.33
30
0.0
11
210.514134
21
-51.33
31
0.0
0
LINE
8
TITLE
10
210.514134
20
-51.33
30
0.0
11
210.514134
21
162.640866
31
0.0
0
LINE
8
TITLE
10
210.514134
20
162.640866
30
0.0
11
-26.1
21
162.640866
31
0.0
0
LINE
8
TITLE
10
-26.1
20
162.640866
30
0.0
11
-26.1
21
-51.33
31
0.0
0
LINE
8
TITLE
10
136.564134
20
-51.33
30
0.0
11
210.514134
21
-51.33
31
0.0
0
LINE
8
TITLE
10
210.514134
20
-51.33
30
0.0
11
210.514134
21
-38.28
31
0.0
0
LINE
8
TITLE
10
210.514134
20
-38.28
30
0.0
11
136.564134
21
-38.28
31
0.0
0
LINE
8
TITLE
10
136.564134
20
-38.28
30
0.0
11
136.564134
21
-51.33
31
0.0
0
LINE
8
TITLE
10
136.564134
20
-48.0675
30
0.0
11
210.514134
21
-48.0675
31
0.0
0
LINE
8
TITLE
10
136.564134
20
-44.805
30
0.0
11
210.514134
21
-44.805
31
0.0
0
LINE
8
TITLE
10
136.564134
20
-41.5425
30
0.0
11
210.514134
21
-41.5425
31
0.0
0
LINE
8
TITLE
10
182.413134
20
-51.33
30
0.0
11
182.413134
21
-41.5425
31
0.0
0
TEXT
8
TITLE
10
137.434134
20
-41.21625
30
0.0
40
2.61
1
ARNOLD CONTRACT
50
0.0
72
0.0
73
0.0
11
137.434134
21
-41.21625
31
0.0
0
TEXT
8
TITLE
10
137.434134
20
-44.04375
30
0.0
40
1.74
1
PROJECT: Floor Play — Complete Wellness
50
0.0
72
0.0
73
0.0
11
137.434134
21
-44.04375
31
0.0
0
TEXT
8
TITLE
10
137.434134
20
-47.30625
30
0.0
40
1.74
1
ITEM: Reception Desk Option 01
50
0.0
72
0.0
73
0.0
11
137.434134
21
-47.30625
31
0.0
0
TEXT
8
TITLE
10
137.434134
20
-50.56875
30
0.0
40
1.74
1
87" W  x  36" D  x  42" H
50
0.0
72
0.0
73
0.0
11
137.434134
21
-50.56875
31
0.0
0
TEXT
8
TITLE
10
183.283134
20
-44.04375
30
0.0
40
1.74
1
QUOTE: 26_AC 149_R0
50
0.0
72
0.0
73
0.0
11
183.283134
21
-44.04375
31
0.0
0
TEXT
8
TITLE
10
183.283134
20
-47.30625
30
0.0
40
1.74
1
ITEM No: 1a
50
0.0
72
0.0
73
0.0
11
183.283134
21
-47.30625
31
0.0
0
TEXT
8
TITLE
10
183.283134
20
-50.56875
30
0.0
40
1.74
1
DATE: 2026-08-26
50
0.0
72
0.0
73
0.0
11
183.283134
21
-50.56875
31
0.0
0
TEXT
8
TITLE
10
209.644134
20
-40.78125
30
0.0
40
1.74
1
FULL SIZE (1:1)
50
0.0
72
2.0
73
0.0
11
209.644134
21
-40.78125
31
0.0
0
ENDSEC
0
EOF
