0
SECTION
2
HEADER
9
$ACADVER
1
AC1009
9
$INSUNITS
70
1.0
9
$MEASUREMENT
70
0.0
0
ENDSEC
0
SECTION
2
TABLES
0
TABLE
2
LAYER
70
6.0
0
LAYER
2
OUTLINE
70
0.0
62
7.0
6
CONTINUOUS
0
LAYER
2
DETAIL
70
0.0
62
8.0
6
CONTINUOUS
0
LAYER
2
DIMS
70
0.0
62
3.0
6
CONTINUOUS
0
LAYER
2
TEXT
70
0.0
62
4.0
6
CONTINUOUS
0
LAYER
2
TITLE
70
0.0
62
7.0
6
CONTINUOUS
0
LAYER
2
VIEWLABEL
70
0.0
62
2.0
6
CONTINUOUS
0
ENDTAB
0
ENDSEC
0
SECTION
2
ENTITIES
0
LINE
8
OUTLINE
10
1.0
20
4.0
30
0.0
11
1.75
21
4.0
31
0.0
0
LINE
8
OUTLINE
10
1.75
20
4.0
30
0.0
11
1.75
21
4.0001
31
0.0
0
LINE
8
OUTLINE
10
1.75
20
28.7499
30
0.0
11
1.75
21
28.75
31
0.0
0
LINE
8
OUTLINE
10
1.75
20
28.75
30
0.0
11
1.0
21
28.75
31
0.0
0
LINE
8
OUTLINE
10
1.0
20
28.75
30
0.0
11
1.0
21
4.0
31
0.0
0
LINE
8
OUTLINE
10
1.0
20
4.0
30
0.0
11
1.75
21
4.0
31
0.0
0
LINE
8
OUTLINE
10
1.75
20
4.0
30
0.0
11
1.75
21
4.0001
31
0.0
0
LINE
8
OUTLINE
10
1.75
20
28.7499
30
0.0
11
1.75
21
28.75
31
0.0
0
LINE
8
OUTLINE
10
1.75
20
28.75
30
0.0
11
1.0
21
28.75
31
0.0
0
LINE
8
OUTLINE
10
1.0
20
28.75
30
0.0
11
1.0
21
4.0
31
0.0
0
LINE
8
OUTLINE
10
1.0
20
4.0
30
0.0
11
1.0
21
4.0
31
0.0
0
LINE
8
OUTLINE
10
1.75
20
4.0
30
0.0
11
1.75
21
4.0
31
0.0
0
LINE
8
OUTLINE
10
1.75
20
28.75
30
0.0
11
1.75
21
28.75
31
0.0
0
LINE
8
OUTLINE
10
1.0
20
28.75
30
0.0
11
1.0
21
28.75
31
0.0
0
LINE
8
OUTLINE
10
72.25
20
4.0
30
0.0
11
73.0
21
4.0
31
0.0
0
LINE
8
OUTLINE
10
73.0
20
4.0
30
0.0
11
73.0
21
28.75
31
0.0
0
LINE
8
OUTLINE
10
73.0
20
28.75
30
0.0
11
72.25
21
28.75
31
0.0
0
LINE
8
OUTLINE
10
72.25
20
28.75
30
0.0
11
72.25
21
28.7499
31
0.0
0
LINE
8
OUTLINE
10
72.25
20
4.0001
30
0.0
11
72.25
21
4.0
31
0.0
0
LINE
8
OUTLINE
10
72.25
20
4.0
30
0.0
11
73.0
21
4.0
31
0.0
0
LINE
8
OUTLINE
10
73.0
20
4.0
30
0.0
11
73.0
21
28.75
31
0.0
0
LINE
8
OUTLINE
10
73.0
20
28.75
30
0.0
11
72.25
21
28.75
31
0.0
0
LINE
8
OUTLINE
10
72.25
20
28.75
30
0.0
11
72.25
21
28.7499
31
0.0
0
LINE
8
OUTLINE
10
72.25
20
4.0001
30
0.0
11
72.25
21
4.0
31
0.0
0
LINE
8
OUTLINE
10
72.25
20
4.0
30
0.0
11
72.25
21
4.0
31
0.0
0
LINE
8
OUTLINE
10
73.0
20
4.0
30
0.0
11
73.0
21
4.0
31
0.0
0
LINE
8
OUTLINE
10
73.0
20
28.75
30
0.0
11
73.0
21
28.75
31
0.0
0
LINE
8
OUTLINE
10
72.25
20
28.75
30
0.0
11
72.25
21
28.75
31
0.0
0
LINE
8
OUTLINE
10
1.75
20
4.0
30
0.0
11
72.25
21
4.0
31
0.0
0
LINE
8
OUTLINE
10
72.25
20
4.0
30
0.0
11
72.25
21
4.0001
31
0.0
0
LINE
8
OUTLINE
10
1.75
20
4.0001
30
0.0
11
1.75
21
4.0
31
0.0
0
LINE
8
OUTLINE
10
1.75
20
4.0
30
0.0
11
72.25
21
4.0
31
0.0
0
LINE
8
OUTLINE
10
72.25
20
4.0
30
0.0
11
72.25
21
4.0001
31
0.0
0
LINE
8
OUTLINE
10
1.75
20
4.0001
30
0.0
11
1.75
21
4.0
31
0.0
0
LINE
8
OUTLINE
10
1.75
20
4.0
30
0.0
11
1.75
21
4.0
31
0.0
0
LINE
8
OUTLINE
10
72.25
20
4.0
30
0.0
11
72.25
21
4.0
31
0.0
0
LINE
8
OUTLINE
10
72.25
20
28.7499
30
0.0
11
72.25
21
28.75
31
0.0
0
LINE
8
OUTLINE
10
72.25
20
28.75
30
0.0
11
1.75
21
28.75
31
0.0
0
LINE
8
OUTLINE
10
1.75
20
28.75
30
0.0
11
1.75
21
28.7499
31
0.0
0
LINE
8
OUTLINE
10
72.25
20
28.7499
30
0.0
11
72.25
21
28.75
31
0.0
0
LINE
8
OUTLINE
10
72.25
20
28.75
30
0.0
11
1.75
21
28.75
31
0.0
0
LINE
8
OUTLINE
10
1.75
20
28.75
30
0.0
11
1.75
21
28.7499
31
0.0
0
LINE
8
OUTLINE
10
72.25
20
28.75
30
0.0
11
72.25
21
28.75
31
0.0
0
LINE
8
OUTLINE
10
1.75
20
28.75
30
0.0
11
1.75
21
28.75
31
0.0
0
LINE
8
OUTLINE
10
1.0
20
0.0
30
0.0
11
73.0
21
0.0
31
0.0
0
LINE
8
OUTLINE
10
73.0
20
0.0
30
0.0
11
73.0
21
4.0
31
0.0
0
LINE
8
OUTLINE
10
73.0
20
4.0
30
0.0
11
1.0
21
4.0
31
0.0
0
LINE
8
OUTLINE
10
1.0
20
4.0
30
0.0
11
1.0
21
0.0
31
0.0
0
LINE
8
OUTLINE
10
1.0
20
0.0
30
0.0
11
73.0
21
0.0
31
0.0
0
LINE
8
OUTLINE
10
73.0
20
0.0
30
0.0
11
73.0
21
4.0
31
0.0
0
LINE
8
OUTLINE
10
73.0
20
4.0
30
0.0
11
1.0
21
4.0
31
0.0
0
LINE
8
OUTLINE
10
1.0
20
4.0
30
0.0
11
1.0
21
0.0
31
0.0
0
LINE
8
OUTLINE
10
1.0
20
0.0
30
0.0
11
1.0
21
0.0
31
0.0
0
LINE
8
OUTLINE
10
73.0
20
0.0
30
0.0
11
73.0
21
0.0
31
0.0
0
LINE
8
OUTLINE
10
73.0
20
4.0
30
0.0
11
73.0
21
4.0
31
0.0
0
LINE
8
OUTLINE
10
1.0
20
4.0
30
0.0
11
1.0
21
4.0
31
0.0
0
LINE
8
OUTLINE
10
1.0
20
4.0
30
0.0
11
24.916667
21
4.0
31
0.0
0
LINE
8
OUTLINE
10
24.916667
20
4.0
30
0.0
11
24.916667
21
28.75
31
0.0
0
LINE
8
OUTLINE
10
24.916667
20
28.75
30
0.0
11
1.0
21
28.75
31
0.0
0
LINE
8
OUTLINE
10
1.0
20
28.75
30
0.0
11
1.0
21
4.0
31
0.0
0
LINE
8
OUTLINE
10
1.0
20
4.0
30
0.0
11
24.916667
21
4.0
31
0.0
0
LINE
8
OUTLINE
10
24.916667
20
4.0
30
0.0
11
24.916667
21
28.75
31
0.0
0
LINE
8
OUTLINE
10
24.916667
20
28.75
30
0.0
11
1.0
21
28.75
31
0.0
0
LINE
8
OUTLINE
10
1.0
20
28.75
30
0.0
11
1.0
21
4.0
31
0.0
0
LINE
8
OUTLINE
10
1.0
20
4.0
30
0.0
11
1.0
21
4.0
31
0.0
0
LINE
8
OUTLINE
10
24.916667
20
4.0
30
0.0
11
24.916667
21
4.0
31
0.0
0
LINE
8
OUTLINE
10
24.916667
20
28.75
30
0.0
11
24.916667
21
28.75
31
0.0
0
LINE
8
OUTLINE
10
1.0
20
28.75
30
0.0
11
1.0
21
28.75
31
0.0
0
LINE
8
OUTLINE
10
8.958333
20
25.4375
30
0.0
11
16.958333
21
25.4375
31
0.0
0
LINE
8
OUTLINE
10
16.958333
20
25.4375
30
0.0
11
16.958333
21
26.0625
31
0.0
0
LINE
8
OUTLINE
10
16.958333
20
26.0625
30
0.0
11
8.958333
21
26.0625
31
0.0
0
LINE
8
OUTLINE
10
8.958333
20
26.0625
30
0.0
11
8.958333
21
25.4375
31
0.0
0
LINE
8
OUTLINE
10
8.958333
20
25.4375
30
0.0
11
16.958333
21
25.4375
31
0.0
0
LINE
8
OUTLINE
10
16.958333
20
25.4375
30
0.0
11
16.958333
21
26.0625
31
0.0
0
LINE
8
OUTLINE
10
16.958333
20
26.0625
30
0.0
11
8.958333
21
26.0625
31
0.0
0
LINE
8
OUTLINE
10
8.958333
20
26.0625
30
0.0
11
8.958333
21
25.4375
31
0.0
0
LINE
8
OUTLINE
10
8.958333
20
25.4375
30
0.0
11
8.958333
21
25.4375
31
0.0
0
LINE
8
OUTLINE
10
16.958333
20
25.4375
30
0.0
11
16.958333
21
25.4375
31
0.0
0
LINE
8
OUTLINE
10
16.958333
20
26.0625
30
0.0
11
16.958333
21
26.0625
31
0.0
0
LINE
8
OUTLINE
10
8.958333
20
26.0625
30
0.0
11
8.958333
21
26.0625
31
0.0
0
LINE
8
OUTLINE
10
10.158333
20
25.4375
30
0.0
11
10.783333
21
25.4375
31
0.0
0
LINE
8
OUTLINE
10
10.783333
20
25.4375
30
0.0
11
10.783333
21
25.4376
31
0.0
0
LINE
8
OUTLINE
10
10.783333
20
26.0624
30
0.0
11
10.783333
21
26.0625
31
0.0
0
LINE
8
OUTLINE
10
10.783333
20
26.0625
30
0.0
11
10.158333
21
26.0625
31
0.0
0
LINE
8
OUTLINE
10
10.158333
20
26.0625
30
0.0
11
10.158333
21
26.0624
31
0.0
0
LINE
8
OUTLINE
10
10.158333
20
25.4376
30
0.0
11
10.158333
21
25.4375
31
0.0
0
LINE
8
OUTLINE
10
10.158333
20
25.4375
30
0.0
11
10.783333
21
25.4375
31
0.0
0
LINE
8
OUTLINE
10
10.783333
20
25.4375
30
0.0
11
10.783333
21
25.4376
31
0.0
0
LINE
8
OUTLINE
10
10.783333
20
26.0624
30
0.0
11
10.783333
21
26.0625
31
0.0
0
LINE
8
OUTLINE
10
10.783333
20
26.0625
30
0.0
11
10.158333
21
26.0625
31
0.0
0
LINE
8
OUTLINE
10
10.158333
20
26.0625
30
0.0
11
10.158333
21
26.0624
31
0.0
0
LINE
8
OUTLINE
10
10.158333
20
25.4376
30
0.0
11
10.158333
21
25.4375
31
0.0
0
LINE
8
OUTLINE
10
10.158333
20
25.4375
30
0.0
11
10.158333
21
25.4375
31
0.0
0
LINE
8
OUTLINE
10
10.783333
20
25.4375
30
0.0
11
10.783333
21
25.4375
31
0.0
0
LINE
8
OUTLINE
10
10.783333
20
26.0625
30
0.0
11
10.783333
21
26.0625
31
0.0
0
LINE
8
OUTLINE
10
10.158333
20
26.0625
30
0.0
11
10.158333
21
26.0625
31
0.0
0
LINE
8
OUTLINE
10
15.133333
20
25.4375
30
0.0
11
15.758333
21
25.4375
31
0.0
0
LINE
8
OUTLINE
10
15.758333
20
25.4375
30
0.0
11
15.758333
21
25.4376
31
0.0
0
LINE
8
OUTLINE
10
15.758333
20
26.0624
30
0.0
11
15.758333
21
26.0625
31
0.0
0
LINE
8
OUTLINE
10
15.758333
20
26.0625
30
0.0
11
15.133333
21
26.0625
31
0.0
0
LINE
8
OUTLINE
10
15.133333
20
26.0625
30
0.0
11
15.133333
21
26.0624
31
0.0
0
LINE
8
OUTLINE
10
15.133333
20
25.4376
30
0.0
11
15.133333
21
25.4375
31
0.0
0
LINE
8
OUTLINE
10
15.133333
20
25.4375
30
0.0
11
15.758333
21
25.4375
31
0.0
0
LINE
8
OUTLINE
10
15.758333
20
25.4375
30
0.0
11
15.758333
21
25.4376
31
0.0
0
LINE
8
OUTLINE
10
15.758333
20
26.0624
30
0.0
11
15.758333
21
26.0625
31
0.0
0
LINE
8
OUTLINE
10
15.758333
20
26.0625
30
0.0
11
15.133333
21
26.0625
31
0.0
0
LINE
8
OUTLINE
10
15.133333
20
26.0625
30
0.0
11
15.133333
21
26.0624
31
0.0
0
LINE
8
OUTLINE
10
15.133333
20
25.4376
30
0.0
11
15.133333
21
25.4375
31
0.0
0
LINE
8
OUTLINE
10
15.133333
20
25.4375
30
0.0
11
15.133333
21
25.4375
31
0.0
0
LINE
8
OUTLINE
10
15.758333
20
25.4375
30
0.0
11
15.758333
21
25.4375
31
0.0
0
LINE
8
OUTLINE
10
15.758333
20
26.0625
30
0.0
11
15.758333
21
26.0625
31
0.0
0
LINE
8
OUTLINE
10
15.133333
20
26.0625
30
0.0
11
15.133333
21
26.0625
31
0.0
0
LINE
8
OUTLINE
10
25.041667
20
4.0
30
0.0
11
48.958333
21
4.0
31
0.0
0
LINE
8
OUTLINE
10
48.958333
20
4.0
30
0.0
11
48.958333
21
28.75
31
0.0
0
LINE
8
OUTLINE
10
48.958333
20
28.75
30
0.0
11
25.041667
21
28.75
31
0.0
0
LINE
8
OUTLINE
10
25.041667
20
28.75
30
0.0
11
25.041667
21
4.0
31
0.0
0
LINE
8
OUTLINE
10
25.041667
20
4.0
30
0.0
11
48.958333
21
4.0
31
0.0
0
LINE
8
OUTLINE
10
48.958333
20
4.0
30
0.0
11
48.958333
21
28.75
31
0.0
0
LINE
8
OUTLINE
10
48.958333
20
28.75
30
0.0
11
25.041667
21
28.75
31
0.0
0
LINE
8
OUTLINE
10
25.041667
20
28.75
30
0.0
11
25.041667
21
4.0
31
0.0
0
LINE
8
OUTLINE
10
25.041667
20
4.0
30
0.0
11
25.041667
21
4.0
31
0.0
0
LINE
8
OUTLINE
10
48.958333
20
4.0
30
0.0
11
48.958333
21
4.0
31
0.0
0
LINE
8
OUTLINE
10
48.958333
20
28.75
30
0.0
11
48.958333
21
28.75
31
0.0
0
LINE
8
OUTLINE
10
25.041667
20
28.75
30
0.0
11
25.041667
21
28.75
31
0.0
0
LINE
8
OUTLINE
10
33.0
20
25.4375
30
0.0
11
41.0
21
25.4375
31
0.0
0
LINE
8
OUTLINE
10
41.0
20
25.4375
30
0.0
11
41.0
21
26.0625
31
0.0
0
LINE
8
OUTLINE
10
41.0
20
26.0625
30
0.0
11
33.0
21
26.0625
31
0.0
0
LINE
8
OUTLINE
10
33.0
20
26.0625
30
0.0
11
33.0
21
25.4375
31
0.0
0
LINE
8
OUTLINE
10
33.0
20
25.4375
30
0.0
11
41.0
21
25.4375
31
0.0
0
LINE
8
OUTLINE
10
41.0
20
25.4375
30
0.0
11
41.0
21
26.0625
31
0.0
0
LINE
8
OUTLINE
10
41.0
20
26.0625
30
0.0
11
33.0
21
26.0625
31
0.0
0
LINE
8
OUTLINE
10
33.0
20
26.0625
30
0.0
11
33.0
21
25.4375
31
0.0
0
LINE
8
OUTLINE
10
33.0
20
25.4375
30
0.0
11
33.0
21
25.4375
31
0.0
0
LINE
8
OUTLINE
10
41.0
20
25.4375
30
0.0
11
41.0
21
25.4375
31
0.0
0
LINE
8
OUTLINE
10
41.0
20
26.0625
30
0.0
11
41.0
21
26.0625
31
0.0
0
LINE
8
OUTLINE
10
33.0
20
26.0625
30
0.0
11
33.0
21
26.0625
31
0.0
0
LINE
8
OUTLINE
10
34.2
20
25.4375
30
0.0
11
34.825
21
25.4375
31
0.0
0
LINE
8
OUTLINE
10
34.825
20
25.4375
30
0.0
11
34.825
21
25.4376
31
0.0
0
LINE
8
OUTLINE
10
34.825
20
26.0624
30
0.0
11
34.825
21
26.0625
31
0.0
0
LINE
8
OUTLINE
10
34.825
20
26.0625
30
0.0
11
34.2
21
26.0625
31
0.0
0
LINE
8
OUTLINE
10
34.2
20
26.0625
30
0.0
11
34.2
21
26.0624
31
0.0
0
LINE
8
OUTLINE
10
34.2
20
25.4376
30
0.0
11
34.2
21
25.4375
31
0.0
0
LINE
8
OUTLINE
10
34.2
20
25.4375
30
0.0
11
34.825
21
25.4375
31
0.0
0
LINE
8
OUTLINE
10
34.825
20
25.4375
30
0.0
11
34.825
21
25.4376
31
0.0
0
LINE
8
OUTLINE
10
34.825
20
26.0624
30
0.0
11
34.825
21
26.0625
31
0.0
0
LINE
8
OUTLINE
10
34.825
20
26.0625
30
0.0
11
34.2
21
26.0625
31
0.0
0
LINE
8
OUTLINE
10
34.2
20
26.0625
30
0.0
11
34.2
21
26.0624
31
0.0
0
LINE
8
OUTLINE
10
34.2
20
25.4376
30
0.0
11
34.2
21
25.4375
31
0.0
0
LINE
8
OUTLINE
10
34.2
20
25.4375
30
0.0
11
34.2
21
25.4375
31
0.0
0
LINE
8
OUTLINE
10
34.825
20
25.4375
30
0.0
11
34.825
21
25.4375
31
0.0
0
LINE
8
OUTLINE
10
34.825
20
26.0625
30
0.0
11
34.825
21
26.0625
31
0.0
0
LINE
8
OUTLINE
10
34.2
20
26.0625
30
0.0
11
34.2
21
26.0625
31
0.0
0
LINE
8
OUTLINE
10
39.175
20
25.4375
30
0.0
11
39.8
21
25.4375
31
0.0
0
LINE
8
OUTLINE
10
39.8
20
25.4375
30
0.0
11
39.8
21
25.4376
31
0.0
0
LINE
8
OUTLINE
10
39.8
20
26.0624
30
0.0
11
39.8
21
26.0625
31
0.0
0
LINE
8
OUTLINE
10
39.8
20
26.0625
30
0.0
11
39.175
21
26.0625
31
0.0
0
LINE
8
OUTLINE
10
39.175
20
26.0625
30
0.0
11
39.175
21
26.0624
31
0.0
0
LINE
8
OUTLINE
10
39.175
20
25.4376
30
0.0
11
39.175
21
25.4375
31
0.0
0
LINE
8
OUTLINE
10
39.175
20
25.4375
30
0.0
11
39.8
21
25.4375
31
0.0
0
LINE
8
OUTLINE
10
39.8
20
25.4375
30
0.0
11
39.8
21
25.4376
31
0.0
0
LINE
8
OUTLINE
10
39.8
20
26.0624
30
0.0
11
39.8
21
26.0625
31
0.0
0
LINE
8
OUTLINE
10
39.8
20
26.0625
30
0.0
11
39.175
21
26.0625
31
0.0
0
LINE
8
OUTLINE
10
39.175
20
26.0625
30
0.0
11
39.175
21
26.0624
31
0.0
0
LINE
8
OUTLINE
10
39.175
20
25.4376
30
0.0
11
39.175
21
25.4375
31
0.0
0
LINE
8
OUTLINE
10
39.175
20
25.4375
30
0.0
11
39.175
21
25.4375
31
0.0
0
LINE
8
OUTLINE
10
39.8
20
25.4375
30
0.0
11
39.8
21
25.4375
31
0.0
0
LINE
8
OUTLINE
10
39.8
20
26.0625
30
0.0
11
39.8
21
26.0625
31
0.0
0
LINE
8
OUTLINE
10
39.175
20
26.0625
30
0.0
11
39.175
21
26.0625
31
0.0
0
LINE
8
OUTLINE
10
49.083333
20
4.0
30
0.0
11
73.0
21
4.0
31
0.0
0
LINE
8
OUTLINE
10
73.0
20
4.0
30
0.0
11
73.0
21
28.75
31
0.0
0
LINE
8
OUTLINE
10
73.0
20
28.75
30
0.0
11
49.083333
21
28.75
31
0.0
0
LINE
8
OUTLINE
10
49.083333
20
28.75
30
0.0
11
49.083333
21
4.0
31
0.0
0
LINE
8
OUTLINE
10
49.083333
20
4.0
30
0.0
11
73.0
21
4.0
31
0.0
0
LINE
8
OUTLINE
10
73.0
20
4.0
30
0.0
11
73.0
21
28.75
31
0.0
0
LINE
8
OUTLINE
10
73.0
20
28.75
30
0.0
11
49.083333
21
28.75
31
0.0
0
LINE
8
OUTLINE
10
49.083333
20
28.75
30
0.0
11
49.083333
21
4.0
31
0.0
0
LINE
8
OUTLINE
10
49.083333
20
4.0
30
0.0
11
49.083333
21
4.0
31
0.0
0
LINE
8
OUTLINE
10
73.0
20
4.0
30
0.0
11
73.0
21
4.0
31
0.0
0
LINE
8
OUTLINE
10
73.0
20
28.75
30
0.0
11
73.0
21
28.75
31
0.0
0
LINE
8
OUTLINE
10
49.083333
20
28.75
30
0.0
11
49.083333
21
28.75
31
0.0
0
LINE
8
OUTLINE
10
57.041667
20
25.4375
30
0.0
11
65.041667
21
25.4375
31
0.0
0
LINE
8
OUTLINE
10
65.041667
20
25.4375
30
0.0
11
65.041667
21
26.0625
31
0.0
0
LINE
8
OUTLINE
10
65.041667
20
26.0625
30
0.0
11
57.041667
21
26.0625
31
0.0
0
LINE
8
OUTLINE
10
57.041667
20
26.0625
30
0.0
11
57.041667
21
25.4375
31
0.0
0
LINE
8
OUTLINE
10
57.041667
20
25.4375
30
0.0
11
65.041667
21
25.4375
31
0.0
0
LINE
8
OUTLINE
10
65.041667
20
25.4375
30
0.0
11
65.041667
21
26.0625
31
0.0
0
LINE
8
OUTLINE
10
65.041667
20
26.0625
30
0.0
11
57.041667
21
26.0625
31
0.0
0
LINE
8
OUTLINE
10
57.041667
20
26.0625
30
0.0
11
57.041667
21
25.4375
31
0.0
0
LINE
8
OUTLINE
10
57.041667
20
25.4375
30
0.0
11
57.041667
21
25.4375
31
0.0
0
LINE
8
OUTLINE
10
65.041667
20
25.4375
30
0.0
11
65.041667
21
25.4375
31
0.0
0
LINE
8
OUTLINE
10
65.041667
20
26.0625
30
0.0
11
65.041667
21
26.0625
31
0.0
0
LINE
8
OUTLINE
10
57.041667
20
26.0625
30
0.0
11
57.041667
21
26.0625
31
0.0
0
LINE
8
OUTLINE
10
58.241667
20
25.4375
30
0.0
11
58.866667
21
25.4375
31
0.0
0
LINE
8
OUTLINE
10
58.866667
20
25.4375
30
0.0
11
58.866667
21
25.4376
31
0.0
0
LINE
8
OUTLINE
10
58.866667
20
26.0624
30
0.0
11
58.866667
21
26.0625
31
0.0
0
LINE
8
OUTLINE
10
58.866667
20
26.0625
30
0.0
11
58.241667
21
26.0625
31
0.0
0
LINE
8
OUTLINE
10
58.241667
20
26.0625
30
0.0
11
58.241667
21
26.0624
31
0.0
0
LINE
8
OUTLINE
10
58.241667
20
25.4376
30
0.0
11
58.241667
21
25.4375
31
0.0
0
LINE
8
OUTLINE
10
58.241667
20
25.4375
30
0.0
11
58.866667
21
25.4375
31
0.0
0
LINE
8
OUTLINE
10
58.866667
20
25.4375
30
0.0
11
58.866667
21
25.4376
31
0.0
0
LINE
8
OUTLINE
10
58.866667
20
26.0624
30
0.0
11
58.866667
21
26.0625
31
0.0
0
LINE
8
OUTLINE
10
58.866667
20
26.0625
30
0.0
11
58.241667
21
26.0625
31
0.0
0
LINE
8
OUTLINE
10
58.241667
20
26.0625
30
0.0
11
58.241667
21
26.0624
31
0.0
0
LINE
8
OUTLINE
10
58.241667
20
25.4376
30
0.0
11
58.241667
21
25.4375
31
0.0
0
LINE
8
OUTLINE
10
58.241667
20
25.4375
30
0.0
11
58.241667
21
25.4375
31
0.0
0
LINE
8
OUTLINE
10
58.866667
20
25.4375
30
0.0
11
58.866667
21
25.4375
31
0.0
0
LINE
8
OUTLINE
10
58.866667
20
26.0625
30
0.0
11
58.866667
21
26.0625
31
0.0
0
LINE
8
OUTLINE
10
58.241667
20
26.0625
30
0.0
11
58.241667
21
26.0625
31
0.0
0
LINE
8
OUTLINE
10
63.216667
20
25.4375
30
0.0
11
63.841667
21
25.4375
31
0.0
0
LINE
8
OUTLINE
10
63.841667
20
25.4375
30
0.0
11
63.841667
21
25.4376
31
0.0
0
LINE
8
OUTLINE
10
63.841667
20
26.0624
30
0.0
11
63.841667
21
26.0625
31
0.0
0
LINE
8
OUTLINE
10
63.841667
20
26.0625
30
0.0
11
63.216667
21
26.0625
31
0.0
0
LINE
8
OUTLINE
10
63.216667
20
26.0625
30
0.0
11
63.216667
21
26.0624
31
0.0
0
LINE
8
OUTLINE
10
63.216667
20
25.4376
30
0.0
11
63.216667
21
25.4375
31
0.0
0
LINE
8
OUTLINE
10
63.216667
20
25.4375
30
0.0
11
63.841667
21
25.4375
31
0.0
0
LINE
8
OUTLINE
10
63.841667
20
25.4375
30
0.0
11
63.841667
21
25.4376
31
0.0
0
LINE
8
OUTLINE
10
63.841667
20
26.0624
30
0.0
11
63.841667
21
26.0625
31
0.0
0
LINE
8
OUTLINE
10
63.841667
20
26.0625
30
0.0
11
63.216667
21
26.0625
31
0.0
0
LINE
8
OUTLINE
10
63.216667
20
26.0625
30
0.0
11
63.216667
21
26.0624
31
0.0
0
LINE
8
OUTLINE
10
63.216667
20
25.4376
30
0.0
11
63.216667
21
25.4375
31
0.0
0
LINE
8
OUTLINE
10
63.216667
20
25.4375
30
0.0
11
63.216667
21
25.4375
31
0.0
0
LINE
8
OUTLINE
10
63.841667
20
25.4375
30
0.0
11
63.841667
21
25.4375
31
0.0
0
LINE
8
OUTLINE
10
63.841667
20
26.0625
30
0.0
11
63.841667
21
26.0625
31
0.0
0
LINE
8
OUTLINE
10
63.216667
20
26.0625
30
0.0
11
63.216667
21
26.0625
31
0.0
0
LINE
8
OUTLINE
10
0.0
20
28.75
30
0.0
11
74.0
21
28.75
31
0.0
0
LINE
8
OUTLINE
10
74.0
20
28.75
30
0.0
11
74.0
21
30.0
31
0.0
0
LINE
8
OUTLINE
10
74.0
20
30.0
30
0.0
11
0.0
21
30.0
31
0.0
0
LINE
8
OUTLINE
10
0.0
20
30.0
30
0.0
11
0.0
21
28.75
31
0.0
0
LINE
8
OUTLINE
10
0.0
20
28.75
30
0.0
11
74.0
21
28.75
31
0.0
0
LINE
8
OUTLINE
10
74.0
20
28.75
30
0.0
11
74.0
21
30.0
31
0.0
0
LINE
8
OUTLINE
10
74.0
20
30.0
30
0.0
11
0.0
21
30.0
31
0.0
0
LINE
8
OUTLINE
10
0.0
20
30.0
30
0.0
11
0.0
21
28.75
31
0.0
0
LINE
8
OUTLINE
10
0.0
20
28.75
30
0.0
11
0.0
21
28.75
31
0.0
0
LINE
8
OUTLINE
10
74.0
20
28.75
30
0.0
11
74.0
21
28.75
31
0.0
0
LINE
8
OUTLINE
10
74.0
20
30.0
30
0.0
11
74.0
21
30.0
31
0.0
0
LINE
8
OUTLINE
10
0.0
20
30.0
30
0.0
11
0.0
21
30.0
31
0.0
0
TEXT
8
VIEWLABEL
10
0.0
20
-17.76
30
0.0
40
1.702
1
FRONT ELEVATION
50
0.0
72
0.0
73
0.0
11
0.0
21
-17.76
31
0.0
0
LINE
8
OUTLINE
10
117.7
20
4.0
30
0.0
11
117.7
21
4.0
31
0.0
0
LINE
8
OUTLINE
10
117.7
20
4.0
30
0.0
11
117.7
21
28.75
31
0.0
0
LINE
8
OUTLINE
10
117.7
20
28.75
30
0.0
11
117.7
21
28.75
31
0.0
0
LINE
8
OUTLINE
10
117.7
20
28.75
30
0.0
11
117.7
21
4.0
31
0.0
0
LINE
8
OUTLINE
10
98.45
20
4.0
30
0.0
11
98.45
21
4.0
31
0.0
0
LINE
8
OUTLINE
10
98.45
20
4.0
30
0.0
11
98.45
21
28.75
31
0.0
0
LINE
8
OUTLINE
10
98.45
20
28.75
30
0.0
11
98.45
21
28.75
31
0.0
0
LINE
8
OUTLINE
10
98.45
20
28.75
30
0.0
11
98.45
21
4.0
31
0.0
0
LINE
8
OUTLINE
10
117.7
20
4.0
30
0.0
11
98.45
21
4.0
31
0.0
0
LINE
8
OUTLINE
10
117.7
20
4.0
30
0.0
11
98.45
21
4.0
31
0.0
0
LINE
8
OUTLINE
10
117.7
20
28.75
30
0.0
11
98.45
21
28.75
31
0.0
0
LINE
8
OUTLINE
10
117.7
20
28.75
30
0.0
11
98.45
21
28.75
31
0.0
0
LINE
8
OUTLINE
10
117.7
20
4.0
30
0.0
11
117.7
21
4.0
31
0.0
0
LINE
8
OUTLINE
10
117.7
20
4.0
30
0.0
11
117.7
21
28.75
31
0.0
0
LINE
8
OUTLINE
10
117.7
20
28.75
30
0.0
11
117.7
21
28.75
31
0.0
0
LINE
8
OUTLINE
10
117.7
20
28.75
30
0.0
11
117.7
21
4.0
31
0.0
0
LINE
8
OUTLINE
10
98.45
20
4.0
30
0.0
11
98.45
21
4.0
31
0.0
0
LINE
8
OUTLINE
10
98.45
20
4.0
30
0.0
11
98.45
21
28.75
31
0.0
0
LINE
8
OUTLINE
10
98.45
20
28.75
30
0.0
11
98.45
21
28.75
31
0.0
0
LINE
8
OUTLINE
10
98.45
20
28.75
30
0.0
11
98.45
21
4.0
31
0.0
0
LINE
8
OUTLINE
10
117.7
20
4.0
30
0.0
11
98.45
21
4.0
31
0.0
0
LINE
8
OUTLINE
10
117.7
20
4.0
30
0.0
11
98.45
21
4.0
31
0.0
0
LINE
8
OUTLINE
10
117.7
20
28.75
30
0.0
11
98.45
21
28.75
31
0.0
0
LINE
8
OUTLINE
10
117.7
20
28.75
30
0.0
11
98.45
21
28.75
31
0.0
0
LINE
8
OUTLINE
10
117.7
20
4.0
30
0.0
11
117.7
21
4.0
31
0.0
0
LINE
8
OUTLINE
10
117.7
20
4.0
30
0.0
11
117.7
21
4.75
31
0.0
0
LINE
8
OUTLINE
10
117.7
20
4.75
30
0.0
11
117.7
21
4.75
31
0.0
0
LINE
8
OUTLINE
10
117.7
20
4.75
30
0.0
11
117.7
21
4.0
31
0.0
0
LINE
8
OUTLINE
10
98.45
20
4.0
30
0.0
11
98.45
21
4.0
31
0.0
0
LINE
8
OUTLINE
10
98.45
20
4.0
30
0.0
11
98.45
21
4.75
31
0.0
0
LINE
8
OUTLINE
10
98.45
20
4.75
30
0.0
11
98.45
21
4.75
31
0.0
0
LINE
8
OUTLINE
10
98.45
20
4.75
30
0.0
11
98.45
21
4.0
31
0.0
0
LINE
8
OUTLINE
10
117.7
20
4.0
30
0.0
11
98.45
21
4.0
31
0.0
0
LINE
8
OUTLINE
10
117.7
20
4.0
30
0.0
11
98.45
21
4.0
31
0.0
0
LINE
8
OUTLINE
10
117.7
20
4.75
30
0.0
11
117.6999
21
4.75
31
0.0
0
LINE
8
OUTLINE
10
98.4501
20
4.75
30
0.0
11
98.45
21
4.75
31
0.0
0
LINE
8
OUTLINE
10
117.7
20
4.75
30
0.0
11
117.6999
21
4.75
31
0.0
0
LINE
8
OUTLINE
10
98.4501
20
4.75
30
0.0
11
98.45
21
4.75
31
0.0
0
LINE
8
OUTLINE
10
117.7
20
28.0
30
0.0
11
117.7
21
28.0
31
0.0
0
LINE
8
OUTLINE
10
117.7
20
28.0
30
0.0
11
117.7
21
28.75
31
0.0
0
LINE
8
OUTLINE
10
117.7
20
28.75
30
0.0
11
117.7
21
28.75
31
0.0
0
LINE
8
OUTLINE
10
117.7
20
28.75
30
0.0
11
117.7
21
28.0
31
0.0
0
LINE
8
OUTLINE
10
98.45
20
28.0
30
0.0
11
98.45
21
28.0
31
0.0
0
LINE
8
OUTLINE
10
98.45
20
28.0
30
0.0
11
98.45
21
28.75
31
0.0
0
LINE
8
OUTLINE
10
98.45
20
28.75
30
0.0
11
98.45
21
28.75
31
0.0
0
LINE
8
OUTLINE
10
98.45
20
28.75
30
0.0
11
98.45
21
28.0
31
0.0
0
LINE
8
OUTLINE
10
117.7
20
28.0
30
0.0
11
117.6999
21
28.0
31
0.0
0
LINE
8
OUTLINE
10
98.4501
20
28.0
30
0.0
11
98.45
21
28.0
31
0.0
0
LINE
8
OUTLINE
10
117.7
20
28.0
30
0.0
11
117.6999
21
28.0
31
0.0
0
LINE
8
OUTLINE
10
98.4501
20
28.0
30
0.0
11
98.45
21
28.0
31
0.0
0
LINE
8
OUTLINE
10
117.7
20
28.75
30
0.0
11
98.45
21
28.75
31
0.0
0
LINE
8
OUTLINE
10
117.7
20
28.75
30
0.0
11
98.45
21
28.75
31
0.0
0
LINE
8
OUTLINE
10
117.7
20
4.75
30
0.0
11
117.7
21
4.75
31
0.0
0
LINE
8
OUTLINE
10
117.7
20
4.75
30
0.0
11
117.7
21
28.0
31
0.0
0
LINE
8
OUTLINE
10
117.7
20
28.0
30
0.0
11
117.7
21
28.0
31
0.0
0
LINE
8
OUTLINE
10
117.7
20
28.0
30
0.0
11
117.7
21
4.75
31
0.0
0
LINE
8
OUTLINE
10
117.7
20
4.75
30
0.0
11
117.6999
21
4.75
31
0.0
0
LINE
8
OUTLINE
10
117.7
20
4.75
30
0.0
11
117.6999
21
4.75
31
0.0
0
LINE
8
OUTLINE
10
117.7
20
28.0
30
0.0
11
117.6999
21
28.0
31
0.0
0
LINE
8
OUTLINE
10
117.7
20
28.0
30
0.0
11
117.6999
21
28.0
31
0.0
0
LINE
8
OUTLINE
10
117.7
20
0.0
30
0.0
11
117.7
21
0.0
31
0.0
0
LINE
8
OUTLINE
10
117.7
20
0.0
30
0.0
11
117.7
21
4.0
31
0.0
0
LINE
8
OUTLINE
10
117.7
20
4.0
30
0.0
11
117.7
21
4.0
31
0.0
0
LINE
8
OUTLINE
10
117.7
20
4.0
30
0.0
11
117.7
21
0.0
31
0.0
0
LINE
8
OUTLINE
10
101.45
20
0.0
30
0.0
11
101.45
21
0.0
31
0.0
0
LINE
8
OUTLINE
10
101.45
20
0.0
30
0.0
11
101.45
21
4.0
31
0.0
0
LINE
8
OUTLINE
10
101.45
20
4.0
30
0.0
11
101.45
21
4.0
31
0.0
0
LINE
8
OUTLINE
10
101.45
20
4.0
30
0.0
11
101.45
21
0.0
31
0.0
0
LINE
8
OUTLINE
10
117.7
20
0.0
30
0.0
11
101.45
21
0.0
31
0.0
0
LINE
8
OUTLINE
10
117.7
20
0.0
30
0.0
11
101.45
21
0.0
31
0.0
0
LINE
8
OUTLINE
10
117.7
20
4.0
30
0.0
11
101.45
21
4.0
31
0.0
0
LINE
8
OUTLINE
10
117.7
20
4.0
30
0.0
11
101.45
21
4.0
31
0.0
0
LINE
8
OUTLINE
10
98.45
20
4.0
30
0.0
11
98.45
21
4.0
31
0.0
0
LINE
8
OUTLINE
10
98.45
20
4.0
30
0.0
11
98.45
21
28.75
31
0.0
0
LINE
8
OUTLINE
10
98.45
20
28.75
30
0.0
11
98.45
21
28.75
31
0.0
0
LINE
8
OUTLINE
10
98.45
20
28.75
30
0.0
11
98.45
21
4.0
31
0.0
0
LINE
8
OUTLINE
10
97.7
20
4.0
30
0.0
11
97.7
21
4.0
31
0.0
0
LINE
8
OUTLINE
10
97.7
20
4.0
30
0.0
11
97.7
21
28.75
31
0.0
0
LINE
8
OUTLINE
10
97.7
20
28.75
30
0.0
11
97.7
21
28.75
31
0.0
0
LINE
8
OUTLINE
10
97.7
20
28.75
30
0.0
11
97.7
21
4.0
31
0.0
0
LINE
8
OUTLINE
10
98.45
20
4.0
30
0.0
11
97.7
21
4.0
31
0.0
0
LINE
8
OUTLINE
10
98.45
20
4.0
30
0.0
11
97.7
21
4.0
31
0.0
0
LINE
8
OUTLINE
10
98.45
20
28.75
30
0.0
11
97.7
21
28.75
31
0.0
0
LINE
8
OUTLINE
10
98.45
20
28.75
30
0.0
11
97.7
21
28.75
31
0.0
0
LINE
8
OUTLINE
10
96.825
20
25.4375
30
0.0
11
96.825
21
25.4375
31
0.0
0
LINE
8
OUTLINE
10
96.825
20
25.4375
30
0.0
11
96.825
21
26.0625
31
0.0
0
LINE
8
OUTLINE
10
96.825
20
26.0625
30
0.0
11
96.825
21
26.0625
31
0.0
0
LINE
8
OUTLINE
10
96.825
20
26.0625
30
0.0
11
96.825
21
25.4375
31
0.0
0
LINE
8
OUTLINE
10
96.2
20
25.4375
30
0.0
11
96.2
21
25.4375
31
0.0
0
LINE
8
OUTLINE
10
96.2
20
25.4375
30
0.0
11
96.2
21
26.0625
31
0.0
0
LINE
8
OUTLINE
10
96.2
20
26.0625
30
0.0
11
96.2
21
26.0625
31
0.0
0
LINE
8
OUTLINE
10
96.2
20
26.0625
30
0.0
11
96.2
21
25.4375
31
0.0
0
LINE
8
OUTLINE
10
96.825
20
25.4375
30
0.0
11
96.2
21
25.4375
31
0.0
0
LINE
8
OUTLINE
10
96.825
20
25.4375
30
0.0
11
96.2
21
25.4375
31
0.0
0
LINE
8
OUTLINE
10
96.825
20
26.0625
30
0.0
11
96.2
21
26.0625
31
0.0
0
LINE
8
OUTLINE
10
96.825
20
26.0625
30
0.0
11
96.2
21
26.0625
31
0.0
0
LINE
8
OUTLINE
10
97.7
20
25.4375
30
0.0
11
97.7
21
25.4375
31
0.0
0
LINE
8
OUTLINE
10
97.7
20
25.4375
30
0.0
11
97.7
21
26.0625
31
0.0
0
LINE
8
OUTLINE
10
97.7
20
26.0625
30
0.0
11
97.7
21
26.0625
31
0.0
0
LINE
8
OUTLINE
10
97.7
20
26.0625
30
0.0
11
97.7
21
25.4375
31
0.0
0
LINE
8
OUTLINE
10
96.825
20
25.4375
30
0.0
11
96.825
21
25.4375
31
0.0
0
LINE
8
OUTLINE
10
96.825
20
25.4375
30
0.0
11
96.825
21
26.0625
31
0.0
0
LINE
8
OUTLINE
10
96.825
20
26.0625
30
0.0
11
96.825
21
26.0625
31
0.0
0
LINE
8
OUTLINE
10
96.825
20
26.0625
30
0.0
11
96.825
21
25.4375
31
0.0
0
LINE
8
OUTLINE
10
97.7
20
25.4375
30
0.0
11
96.825
21
25.4375
31
0.0
0
LINE
8
OUTLINE
10
97.7
20
25.4375
30
0.0
11
96.825
21
25.4375
31
0.0
0
LINE
8
OUTLINE
10
97.7
20
26.0625
30
0.0
11
96.825
21
26.0625
31
0.0
0
LINE
8
OUTLINE
10
97.7
20
26.0625
30
0.0
11
96.825
21
26.0625
31
0.0
0
LINE
8
OUTLINE
10
97.7
20
25.4375
30
0.0
11
97.7
21
25.4375
31
0.0
0
LINE
8
OUTLINE
10
97.7
20
25.4375
30
0.0
11
97.7
21
26.0625
31
0.0
0
LINE
8
OUTLINE
10
97.7
20
26.0625
30
0.0
11
97.7
21
26.0625
31
0.0
0
LINE
8
OUTLINE
10
97.7
20
26.0625
30
0.0
11
97.7
21
25.4375
31
0.0
0
LINE
8
OUTLINE
10
96.825
20
25.4375
30
0.0
11
96.825
21
25.4375
31
0.0
0
LINE
8
OUTLINE
10
96.825
20
25.4375
30
0.0
11
96.825
21
26.0625
31
0.0
0
LINE
8
OUTLINE
10
96.825
20
26.0625
30
0.0
11
96.825
21
26.0625
31
0.0
0
LINE
8
OUTLINE
10
96.825
20
26.0625
30
0.0
11
96.825
21
25.4375
31
0.0
0
LINE
8
OUTLINE
10
97.7
20
25.4375
30
0.0
11
96.825
21
25.4375
31
0.0
0
LINE
8
OUTLINE
10
97.7
20
25.4375
30
0.0
11
96.825
21
25.4375
31
0.0
0
LINE
8
OUTLINE
10
97.7
20
26.0625
30
0.0
11
96.825
21
26.0625
31
0.0
0
LINE
8
OUTLINE
10
97.7
20
26.0625
30
0.0
11
96.825
21
26.0625
31
0.0
0
LINE
8
OUTLINE
10
98.45
20
4.0
30
0.0
11
98.45
21
4.0
31
0.0
0
LINE
8
OUTLINE
10
98.45
20
4.0
30
0.0
11
98.45
21
28.75
31
0.0
0
LINE
8
OUTLINE
10
98.45
20
28.75
30
0.0
11
98.45
21
28.75
31
0.0
0
LINE
8
OUTLINE
10
98.45
20
28.75
30
0.0
11
98.45
21
4.0
31
0.0
0
LINE
8
OUTLINE
10
97.7
20
4.0
30
0.0
11
97.7
21
4.0
31
0.0
0
LINE
8
OUTLINE
10
97.7
20
4.0
30
0.0
11
97.7
21
28.75
31
0.0
0
LINE
8
OUTLINE
10
97.7
20
28.75
30
0.0
11
97.7
21
28.75
31
0.0
0
LINE
8
OUTLINE
10
97.7
20
28.75
30
0.0
11
97.7
21
4.0
31
0.0
0
LINE
8
OUTLINE
10
98.45
20
4.0
30
0.0
11
97.7
21
4.0
31
0.0
0
LINE
8
OUTLINE
10
98.45
20
4.0
30
0.0
11
97.7
21
4.0
31
0.0
0
LINE
8
OUTLINE
10
98.45
20
28.75
30
0.0
11
97.7
21
28.75
31
0.0
0
LINE
8
OUTLINE
10
98.45
20
28.75
30
0.0
11
97.7
21
28.75
31
0.0
0
LINE
8
OUTLINE
10
96.825
20
25.4375
30
0.0
11
96.825
21
25.4375
31
0.0
0
LINE
8
OUTLINE
10
96.825
20
25.4375
30
0.0
11
96.825
21
26.0625
31
0.0
0
LINE
8
OUTLINE
10
96.825
20
26.0625
30
0.0
11
96.825
21
26.0625
31
0.0
0
LINE
8
OUTLINE
10
96.825
20
26.0625
30
0.0
11
96.825
21
25.4375
31
0.0
0
LINE
8
OUTLINE
10
96.2
20
25.4375
30
0.0
11
96.2
21
25.4375
31
0.0
0
LINE
8
OUTLINE
10
96.2
20
25.4375
30
0.0
11
96.2
21
26.0625
31
0.0
0
LINE
8
OUTLINE
10
96.2
20
26.0625
30
0.0
11
96.2
21
26.0625
31
0.0
0
LINE
8
OUTLINE
10
96.2
20
26.0625
30
0.0
11
96.2
21
25.4375
31
0.0
0
LINE
8
OUTLINE
10
96.825
20
25.4375
30
0.0
11
96.2
21
25.4375
31
0.0
0
LINE
8
OUTLINE
10
96.825
20
25.4375
30
0.0
11
96.2
21
25.4375
31
0.0
0
LINE
8
OUTLINE
10
96.825
20
26.0625
30
0.0
11
96.2
21
26.0625
31
0.0
0
LINE
8
OUTLINE
10
96.825
20
26.0625
30
0.0
11
96.2
21
26.0625
31
0.0
0
LINE
8
OUTLINE
10
97.7
20
25.4375
30
0.0
11
97.7
21
25.4375
31
0.0
0
LINE
8
OUTLINE
10
97.7
20
25.4375
30
0.0
11
97.7
21
26.0625
31
0.0
0
LINE
8
OUTLINE
10
97.7
20
26.0625
30
0.0
11
97.7
21
26.0625
31
0.0
0
LINE
8
OUTLINE
10
97.7
20
26.0625
30
0.0
11
97.7
21
25.4375
31
0.0
0
LINE
8
OUTLINE
10
96.825
20
25.4375
30
0.0
11
96.825
21
25.4375
31
0.0
0
LINE
8
OUTLINE
10
96.825
20
25.4375
30
0.0
11
96.825
21
26.0625
31
0.0
0
LINE
8
OUTLINE
10
96.825
20
26.0625
30
0.0
11
96.825
21
26.0625
31
0.0
0
LINE
8
OUTLINE
10
96.825
20
26.0625
30
0.0
11
96.825
21
25.4375
31
0.0
0
LINE
8
OUTLINE
10
97.7
20
25.4375
30
0.0
11
96.825
21
25.4375
31
0.0
0
LINE
8
OUTLINE
10
97.7
20
25.4375
30
0.0
11
96.825
21
25.4375
31
0.0
0
LINE
8
OUTLINE
10
97.7
20
26.0625
30
0.0
11
96.825
21
26.0625
31
0.0
0
LINE
8
OUTLINE
10
97.7
20
26.0625
30
0.0
11
96.825
21
26.0625
31
0.0
0
LINE
8
OUTLINE
10
97.7
20
25.4375
30
0.0
11
97.7
21
25.4375
31
0.0
0
LINE
8
OUTLINE
10
97.7
20
25.4375
30
0.0
11
97.7
21
26.0625
31
0.0
0
LINE
8
OUTLINE
10
97.7
20
26.0625
30
0.0
11
97.7
21
26.0625
31
0.0
0
LINE
8
OUTLINE
10
97.7
20
26.0625
30
0.0
11
97.7
21
25.4375
31
0.0
0
LINE
8
OUTLINE
10
96.825
20
25.4375
30
0.0
11
96.825
21
25.4375
31
0.0
0
LINE
8
OUTLINE
10
96.825
20
25.4375
30
0.0
11
96.825
21
26.0625
31
0.0
0
LINE
8
OUTLINE
10
96.825
20
26.0625
30
0.0
11
96.825
21
26.0625
31
0.0
0
LINE
8
OUTLINE
10
96.825
20
26.0625
30
0.0
11
96.825
21
25.4375
31
0.0
0
LINE
8
OUTLINE
10
97.7
20
25.4375
30
0.0
11
96.825
21
25.4375
31
0.0
0
LINE
8
OUTLINE
10
97.7
20
25.4375
30
0.0
11
96.825
21
25.4375
31
0.0
0
LINE
8
OUTLINE
10
97.7
20
26.0625
30
0.0
11
96.825
21
26.0625
31
0.0
0
LINE
8
OUTLINE
10
97.7
20
26.0625
30
0.0
11
96.825
21
26.0625
31
0.0
0
LINE
8
OUTLINE
10
98.45
20
4.0
30
0.0
11
98.45
21
4.0
31
0.0
0
LINE
8
OUTLINE
10
98.45
20
4.0
30
0.0
11
98.45
21
28.75
31
0.0
0
LINE
8
OUTLINE
10
98.45
20
28.75
30
0.0
11
98.45
21
28.75
31
0.0
0
LINE
8
OUTLINE
10
98.45
20
28.75
30
0.0
11
98.45
21
4.0
31
0.0
0
LINE
8
OUTLINE
10
97.7
20
4.0
30
0.0
11
97.7
21
4.0
31
0.0
0
LINE
8
OUTLINE
10
97.7
20
4.0
30
0.0
11
97.7
21
28.75
31
0.0
0
LINE
8
OUTLINE
10
97.7
20
28.75
30
0.0
11
97.7
21
28.75
31
0.0
0
LINE
8
OUTLINE
10
97.7
20
28.75
30
0.0
11
97.7
21
4.0
31
0.0
0
LINE
8
OUTLINE
10
98.45
20
4.0
30
0.0
11
97.7
21
4.0
31
0.0
0
LINE
8
OUTLINE
10
98.45
20
4.0
30
0.0
11
97.7
21
4.0
31
0.0
0
LINE
8
OUTLINE
10
98.45
20
28.75
30
0.0
11
97.7
21
28.75
31
0.0
0
LINE
8
OUTLINE
10
98.45
20
28.75
30
0.0
11
97.7
21
28.75
31
0.0
0
LINE
8
OUTLINE
10
96.825
20
25.4375
30
0.0
11
96.825
21
25.4375
31
0.0
0
LINE
8
OUTLINE
10
96.825
20
25.4375
30
0.0
11
96.825
21
26.0625
31
0.0
0
LINE
8
OUTLINE
10
96.825
20
26.0625
30
0.0
11
96.825
21
26.0625
31
0.0
0
LINE
8
OUTLINE
10
96.825
20
26.0625
30
0.0
11
96.825
21
25.4375
31
0.0
0
LINE
8
OUTLINE
10
96.2
20
25.4375
30
0.0
11
96.2
21
25.4375
31
0.0
0
LINE
8
OUTLINE
10
96.2
20
25.4375
30
0.0
11
96.2
21
26.0625
31
0.0
0
LINE
8
OUTLINE
10
96.2
20
26.0625
30
0.0
11
96.2
21
26.0625
31
0.0
0
LINE
8
OUTLINE
10
96.2
20
26.0625
30
0.0
11
96.2
21
25.4375
31
0.0
0
LINE
8
OUTLINE
10
96.825
20
25.4375
30
0.0
11
96.2
21
25.4375
31
0.0
0
LINE
8
OUTLINE
10
96.825
20
25.4375
30
0.0
11
96.2
21
25.4375
31
0.0
0
LINE
8
OUTLINE
10
96.825
20
26.0625
30
0.0
11
96.2
21
26.0625
31
0.0
0
LINE
8
OUTLINE
10
96.825
20
26.0625
30
0.0
11
96.2
21
26.0625
31
0.0
0
LINE
8
OUTLINE
10
97.7
20
25.4375
30
0.0
11
97.7
21
25.4375
31
0.0
0
LINE
8
OUTLINE
10
97.7
20
25.4375
30
0.0
11
97.7
21
26.0625
31
0.0
0
LINE
8
OUTLINE
10
97.7
20
26.0625
30
0.0
11
97.7
21
26.0625
31
0.0
0
LINE
8
OUTLINE
10
97.7
20
26.0625
30
0.0
11
97.7
21
25.4375
31
0.0
0
LINE
8
OUTLINE
10
96.825
20
25.4375
30
0.0
11
96.825
21
25.4375
31
0.0
0
LINE
8
OUTLINE
10
96.825
20
25.4375
30
0.0
11
96.825
21
26.0625
31
0.0
0
LINE
8
OUTLINE
10
96.825
20
26.0625
30
0.0
11
96.825
21
26.0625
31
0.0
0
LINE
8
OUTLINE
10
96.825
20
26.0625
30
0.0
11
96.825
21
25.4375
31
0.0
0
LINE
8
OUTLINE
10
97.7
20
25.4375
30
0.0
11
96.825
21
25.4375
31
0.0
0
LINE
8
OUTLINE
10
97.7
20
25.4375
30
0.0
11
96.825
21
25.4375
31
0.0
0
LINE
8
OUTLINE
10
97.7
20
26.0625
30
0.0
11
96.825
21
26.0625
31
0.0
0
LINE
8
OUTLINE
10
97.7
20
26.0625
30
0.0
11
96.825
21
26.0625
31
0.0
0
LINE
8
OUTLINE
10
97.7
20
25.4375
30
0.0
11
97.7
21
25.4375
31
0.0
0
LINE
8
OUTLINE
10
97.7
20
25.4375
30
0.0
11
97.7
21
26.0625
31
0.0
0
LINE
8
OUTLINE
10
97.7
20
26.0625
30
0.0
11
97.7
21
26.0625
31
0.0
0
LINE
8
OUTLINE
10
97.7
20
26.0625
30
0.0
11
97.7
21
25.4375
31
0.0
0
LINE
8
OUTLINE
10
96.825
20
25.4375
30
0.0
11
96.825
21
25.4375
31
0.0
0
LINE
8
OUTLINE
10
96.825
20
25.4375
30
0.0
11
96.825
21
26.0625
31
0.0
0
LINE
8
OUTLINE
10
96.825
20
26.0625
30
0.0
11
96.825
21
26.0625
31
0.0
0
LINE
8
OUTLINE
10
96.825
20
26.0625
30
0.0
11
96.825
21
25.4375
31
0.0
0
LINE
8
OUTLINE
10
97.7
20
25.4375
30
0.0
11
96.825
21
25.4375
31
0.0
0
LINE
8
OUTLINE
10
97.7
20
25.4375
30
0.0
11
96.825
21
25.4375
31
0.0
0
LINE
8
OUTLINE
10
97.7
20
26.0625
30
0.0
11
96.825
21
26.0625
31
0.0
0
LINE
8
OUTLINE
10
97.7
20
26.0625
30
0.0
11
96.825
21
26.0625
31
0.0
0
LINE
8
OUTLINE
10
117.7
20
28.75
30
0.0
11
117.7
21
28.75
31
0.0
0
LINE
8
OUTLINE
10
117.7
20
28.75
30
0.0
11
117.7
21
30.0
31
0.0
0
LINE
8
OUTLINE
10
117.7
20
30.0
30
0.0
11
117.7
21
30.0
31
0.0
0
LINE
8
OUTLINE
10
117.7
20
30.0
30
0.0
11
117.7
21
28.75
31
0.0
0
LINE
8
OUTLINE
10
96.7
20
28.75
30
0.0
11
96.7
21
28.75
31
0.0
0
LINE
8
OUTLINE
10
96.7
20
28.75
30
0.0
11
96.7
21
30.0
31
0.0
0
LINE
8
OUTLINE
10
96.7
20
30.0
30
0.0
11
96.7
21
30.0
31
0.0
0
LINE
8
OUTLINE
10
96.7
20
30.0
30
0.0
11
96.7
21
28.75
31
0.0
0
LINE
8
OUTLINE
10
117.7
20
28.75
30
0.0
11
96.7
21
28.75
31
0.0
0
LINE
8
OUTLINE
10
117.7
20
28.75
30
0.0
11
96.7
21
28.75
31
0.0
0
LINE
8
OUTLINE
10
117.7
20
30.0
30
0.0
11
96.7
21
30.0
31
0.0
0
LINE
8
OUTLINE
10
117.7
20
30.0
30
0.0
11
96.7
21
30.0
31
0.0
0
TEXT
8
VIEWLABEL
10
96.2
20
-17.76
30
0.0
40
1.702
1
RIGHT SIDE ELEVATION
50
0.0
72
0.0
73
0.0
11
96.2
21
-17.76
31
0.0
0
LINE
8
OUTLINE
10
1.0
20
76.66
30
0.0
11
1.75
21
76.66
31
0.0
0
LINE
8
OUTLINE
10
1.75
20
76.66
30
0.0
11
1.75
21
76.66
31
0.0
0
LINE
8
OUTLINE
10
1.75
20
76.66
30
0.0
11
1.0
21
76.66
31
0.0
0
LINE
8
OUTLINE
10
1.0
20
76.66
30
0.0
11
1.0
21
76.66
31
0.0
0
LINE
8
OUTLINE
10
1.0
20
76.66
30
0.0
11
1.0
21
76.6599
31
0.0
0
LINE
8
OUTLINE
10
1.75
20
76.66
30
0.0
11
1.75
21
76.6599
31
0.0
0
LINE
8
OUTLINE
10
1.75
20
76.66
30
0.0
11
1.75
21
76.6599
31
0.0
0
LINE
8
OUTLINE
10
1.0
20
76.66
30
0.0
11
1.0
21
76.6599
31
0.0
0
LINE
8
OUTLINE
10
72.25
20
76.66
30
0.0
11
73.0
21
76.66
31
0.0
0
LINE
8
OUTLINE
10
73.0
20
76.66
30
0.0
11
73.0
21
76.66
31
0.0
0
LINE
8
OUTLINE
10
73.0
20
76.66
30
0.0
11
72.25
21
76.66
31
0.0
0
LINE
8
OUTLINE
10
72.25
20
76.66
30
0.0
11
72.25
21
76.66
31
0.0
0
LINE
8
OUTLINE
10
72.25
20
76.66
30
0.0
11
72.25
21
76.6599
31
0.0
0
LINE
8
OUTLINE
10
73.0
20
76.66
30
0.0
11
73.0
21
76.6599
31
0.0
0
LINE
8
OUTLINE
10
73.0
20
76.66
30
0.0
11
73.0
21
76.6599
31
0.0
0
LINE
8
OUTLINE
10
72.25
20
76.66
30
0.0
11
72.25
21
76.6599
31
0.0
0
LINE
8
OUTLINE
10
1.75
20
76.66
30
0.0
11
72.25
21
76.66
31
0.0
0
LINE
8
OUTLINE
10
72.25
20
76.66
30
0.0
11
72.25
21
76.66
31
0.0
0
LINE
8
OUTLINE
10
72.25
20
76.66
30
0.0
11
1.75
21
76.66
31
0.0
0
LINE
8
OUTLINE
10
1.75
20
76.66
30
0.0
11
1.75
21
76.66
31
0.0
0
LINE
8
OUTLINE
10
1.75
20
76.66
30
0.0
11
1.75
21
76.6599
31
0.0
0
LINE
8
OUTLINE
10
72.25
20
76.66
30
0.0
11
72.25
21
76.6599
31
0.0
0
LINE
8
OUTLINE
10
72.25
20
76.66
30
0.0
11
72.25
21
76.6599
31
0.0
0
LINE
8
OUTLINE
10
1.75
20
76.66
30
0.0
11
1.75
21
76.6599
31
0.0
0
LINE
8
OUTLINE
10
1.75
20
76.66
30
0.0
11
72.25
21
76.66
31
0.0
0
LINE
8
OUTLINE
10
72.25
20
76.66
30
0.0
11
72.25
21
76.66
31
0.0
0
LINE
8
OUTLINE
10
72.25
20
76.66
30
0.0
11
1.75
21
76.66
31
0.0
0
LINE
8
OUTLINE
10
1.75
20
76.66
30
0.0
11
1.75
21
76.66
31
0.0
0
LINE
8
OUTLINE
10
1.75
20
76.66
30
0.0
11
1.75
21
76.6599
31
0.0
0
LINE
8
OUTLINE
10
72.25
20
76.66
30
0.0
11
72.25
21
76.6599
31
0.0
0
LINE
8
OUTLINE
10
72.25
20
76.66
30
0.0
11
72.25
21
76.6599
31
0.0
0
LINE
8
OUTLINE
10
1.75
20
76.66
30
0.0
11
1.75
21
76.6599
31
0.0
0
LINE
8
OUTLINE
10
1.75
20
76.66
30
0.0
11
72.25
21
76.66
31
0.0
0
LINE
8
OUTLINE
10
72.25
20
76.66
30
0.0
11
72.25
21
76.66
31
0.0
0
LINE
8
OUTLINE
10
72.25
20
76.66
30
0.0
11
1.75
21
76.66
31
0.0
0
LINE
8
OUTLINE
10
1.75
20
76.66
30
0.0
11
1.75
21
76.66
31
0.0
0
LINE
8
OUTLINE
10
1.75
20
76.66
30
0.0
11
1.75
21
76.6599
31
0.0
0
LINE
8
OUTLINE
10
72.25
20
76.66
30
0.0
11
72.25
21
76.6599
31
0.0
0
LINE
8
OUTLINE
10
72.25
20
76.66
30
0.0
11
72.25
21
76.6599
31
0.0
0
LINE
8
OUTLINE
10
1.75
20
76.66
30
0.0
11
1.75
21
76.6599
31
0.0
0
LINE
8
OUTLINE
10
1.0
20
76.66
30
0.0
11
73.0
21
76.66
31
0.0
0
LINE
8
OUTLINE
10
73.0
20
76.66
30
0.0
11
73.0
21
76.66
31
0.0
0
LINE
8
OUTLINE
10
73.0
20
76.66
30
0.0
11
1.0
21
76.66
31
0.0
0
LINE
8
OUTLINE
10
1.0
20
76.66
30
0.0
11
1.0
21
76.66
31
0.0
0
LINE
8
OUTLINE
10
1.0
20
76.66
30
0.0
11
1.0
21
76.6599
31
0.0
0
LINE
8
OUTLINE
10
73.0
20
76.66
30
0.0
11
73.0
21
76.6599
31
0.0
0
LINE
8
OUTLINE
10
73.0
20
76.66
30
0.0
11
73.0
21
76.6599
31
0.0
0
LINE
8
OUTLINE
10
1.0
20
76.66
30
0.0
11
1.0
21
76.6599
31
0.0
0
LINE
8
OUTLINE
10
8.958333
20
55.16
30
0.0
11
16.958333
21
55.16
31
0.0
0
LINE
8
OUTLINE
10
16.958333
20
55.16
30
0.0
11
16.958333
21
55.16
31
0.0
0
LINE
8
OUTLINE
10
16.958333
20
55.16
30
0.0
11
8.958333
21
55.16
31
0.0
0
LINE
8
OUTLINE
10
8.958333
20
55.16
30
0.0
11
8.958333
21
55.16
31
0.0
0
LINE
8
OUTLINE
10
8.958333
20
55.6601
30
0.0
11
8.958333
21
55.16
31
0.0
0
LINE
8
OUTLINE
10
16.958333
20
55.6601
30
0.0
11
16.958333
21
55.16
31
0.0
0
LINE
8
OUTLINE
10
16.958333
20
55.6601
30
0.0
11
16.958333
21
55.16
31
0.0
0
LINE
8
OUTLINE
10
8.958333
20
55.6601
30
0.0
11
8.958333
21
55.16
31
0.0
0
LINE
8
OUTLINE
10
33.0
20
55.16
30
0.0
11
41.0
21
55.16
31
0.0
0
LINE
8
OUTLINE
10
41.0
20
55.16
30
0.0
11
41.0
21
55.16
31
0.0
0
LINE
8
OUTLINE
10
41.0
20
55.16
30
0.0
11
33.0
21
55.16
31
0.0
0
LINE
8
OUTLINE
10
33.0
20
55.16
30
0.0
11
33.0
21
55.16
31
0.0
0
LINE
8
OUTLINE
10
33.0
20
55.6601
30
0.0
11
33.0
21
55.16
31
0.0
0
LINE
8
OUTLINE
10
41.0
20
55.6601
30
0.0
11
41.0
21
55.16
31
0.0
0
LINE
8
OUTLINE
10
41.0
20
55.6601
30
0.0
11
41.0
21
55.16
31
0.0
0
LINE
8
OUTLINE
10
33.0
20
55.6601
30
0.0
11
33.0
21
55.16
31
0.0
0
LINE
8
OUTLINE
10
57.041667
20
55.16
30
0.0
11
65.041667
21
55.16
31
0.0
0
LINE
8
OUTLINE
10
65.041667
20
55.16
30
0.0
11
65.041667
21
55.16
31
0.0
0
LINE
8
OUTLINE
10
65.041667
20
55.16
30
0.0
11
57.041667
21
55.16
31
0.0
0
LINE
8
OUTLINE
10
57.041667
20
55.16
30
0.0
11
57.041667
21
55.16
31
0.0
0
LINE
8
OUTLINE
10
57.041667
20
55.6601
30
0.0
11
57.041667
21
55.16
31
0.0
0
LINE
8
OUTLINE
10
65.041667
20
55.6601
30
0.0
11
65.041667
21
55.16
31
0.0
0
LINE
8
OUTLINE
10
65.041667
20
55.6601
30
0.0
11
65.041667
21
55.16
31
0.0
0
LINE
8
OUTLINE
10
57.041667
20
55.6601
30
0.0
11
57.041667
21
55.16
31
0.0
0
LINE
8
OUTLINE
10
0.0
20
76.66
30
0.0
11
74.0
21
76.66
31
0.0
0
LINE
8
OUTLINE
10
74.0
20
76.66
30
0.0
11
74.0
21
76.66
31
0.0
0
LINE
8
OUTLINE
10
74.0
20
76.66
30
0.0
11
0.0
21
76.66
31
0.0
0
LINE
8
OUTLINE
10
0.0
20
76.66
30
0.0
11
0.0
21
76.66
31
0.0
0
LINE
8
OUTLINE
10
0.0
20
55.66
30
0.0
11
74.0
21
55.66
31
0.0
0
LINE
8
OUTLINE
10
74.0
20
55.66
30
0.0
11
74.0
21
55.66
31
0.0
0
LINE
8
OUTLINE
10
74.0
20
55.66
30
0.0
11
0.0
21
55.66
31
0.0
0
LINE
8
OUTLINE
10
0.0
20
55.66
30
0.0
11
0.0
21
55.66
31
0.0
0
LINE
8
OUTLINE
10
0.0
20
76.66
30
0.0
11
0.0
21
55.66
31
0.0
0
LINE
8
OUTLINE
10
74.0
20
76.66
30
0.0
11
74.0
21
55.66
31
0.0
0
LINE
8
OUTLINE
10
74.0
20
76.66
30
0.0
11
74.0
21
55.66
31
0.0
0
LINE
8
OUTLINE
10
0.0
20
76.66
30
0.0
11
0.0
21
55.66
31
0.0
0
TEXT
8
VIEWLABEL
10
0.0
20
82.58
30
0.0
40
1.702
1
PLAN
50
0.0
72
0.0
73
0.0
11
0.0
21
82.58
31
0.0
0
LINE
8
OUTLINE
10
162.667775
20
62.265832
30
0.0
11
162.668037
21
62.265757
31
0.0
0
LINE
8
OUTLINE
10
162.668037
20
62.265757
30
0.0
11
162.668037
21
85.589072
31
0.0
0
LINE
8
OUTLINE
10
149.055969
20
58.390618
30
0.0
11
149.056232
21
58.390543
31
0.0
0
LINE
8
OUTLINE
10
149.056232
20
58.390543
30
0.0
11
149.056232
21
81.713858
31
0.0
0
LINE
8
OUTLINE
10
162.668037
20
62.265757
30
0.0
11
149.056232
21
58.390543
31
0.0
0
LINE
8
OUTLINE
10
162.667775
20
58.431359
30
0.0
11
162.668037
21
58.431284
31
0.0
0
LINE
8
OUTLINE
10
162.668037
20
58.431284
30
0.0
11
162.668037
21
62.265757
31
0.0
0
LINE
8
OUTLINE
10
162.668037
20
62.265757
30
0.0
11
162.667775
21
62.265832
31
0.0
0
LINE
8
OUTLINE
10
100.265864
20
69.654306
30
0.0
11
151.177552
21
55.16
31
0.0
0
LINE
8
OUTLINE
10
151.177552
20
55.16
30
0.0
11
151.177552
21
58.994473
31
0.0
0
LINE
8
OUTLINE
10
151.177552
20
58.994473
30
0.0
11
151.177289
21
58.994547
31
0.0
0
LINE
8
OUTLINE
10
100.265864
20
71.979091
30
0.0
11
100.265864
21
69.654306
31
0.0
0
LINE
8
OUTLINE
10
100.266127
20
69.654381
30
0.0
11
100.265864
21
69.654306
31
0.0
0
LINE
8
OUTLINE
10
162.668037
20
58.431284
30
0.0
11
151.177552
21
55.16
31
0.0
0
LINE
8
OUTLINE
10
162.668037
20
62.265757
30
0.0
11
151.177552
21
58.994473
31
0.0
0
LINE
8
OUTLINE
10
97.614214
20
72.733867
30
0.0
11
114.525851
21
67.919207
31
0.0
0
LINE
8
OUTLINE
10
114.525851
20
67.919207
30
0.0
11
114.525851
21
91.242523
31
0.0
0
LINE
8
OUTLINE
10
97.614214
20
96.057182
30
0.0
11
97.614214
21
72.733867
31
0.0
0
LINE
8
OUTLINE
10
97.614476
20
72.733942
30
0.0
11
97.614214
21
72.733867
31
0.0
0
LINE
8
OUTLINE
10
114.614381
20
67.944411
30
0.0
11
114.525851
21
67.919207
31
0.0
0
LINE
8
OUTLINE
10
108.279478
20
89.895603
30
0.0
11
108.279741
21
89.895528
31
0.0
0
LINE
8
OUTLINE
10
108.279741
20
89.895528
30
0.0
11
108.279741
21
90.494664
31
0.0
0
LINE
8
OUTLINE
10
108.279741
20
90.494664
30
0.0
11
102.622887
21
92.105143
31
0.0
0
LINE
8
OUTLINE
10
102.622887
20
92.105143
30
0.0
11
102.622887
21
92.104938
31
0.0
0
LINE
8
OUTLINE
10
102.180945
20
91.380188
30
0.0
11
107.837799
21
89.769709
31
0.0
0
LINE
8
OUTLINE
10
107.837799
20
89.769709
30
0.0
11
107.837799
21
90.368846
31
0.0
0
LINE
8
OUTLINE
10
107.837799
20
90.368846
30
0.0
11
102.180945
21
91.979324
31
0.0
0
LINE
8
OUTLINE
10
102.180945
20
91.979324
30
0.0
11
102.180945
21
91.380188
31
0.0
0
LINE
8
OUTLINE
10
102.181208
20
91.380263
30
0.0
11
102.180945
21
91.380188
31
0.0
0
LINE
8
OUTLINE
10
108.279741
20
89.895528
30
0.0
11
107.837799
21
89.769709
31
0.0
0
LINE
8
OUTLINE
10
108.279741
20
90.494664
30
0.0
11
107.837799
21
90.368846
31
0.0
0
LINE
8
OUTLINE
10
102.622887
20
92.105143
30
0.0
11
102.180945
21
91.979324
31
0.0
0
LINE
8
OUTLINE
10
104.532075
20
91.56147
30
0.0
11
104.532075
21
91.913898
31
0.0
0
LINE
8
OUTLINE
10
104.532075
20
91.913898
30
0.0
11
104.090133
21
92.039717
31
0.0
0
LINE
8
OUTLINE
10
104.090133
20
92.039717
30
0.0
11
104.090133
21
92.039512
31
0.0
0
LINE
8
OUTLINE
10
103.913356
20
91.737547
30
0.0
11
103.913356
21
91.737752
31
0.0
0
LINE
8
OUTLINE
10
103.913356
20
91.737752
30
0.0
11
103.471415
21
91.863571
31
0.0
0
LINE
8
OUTLINE
10
103.471415
20
91.863571
30
0.0
11
103.471415
21
91.863366
31
0.0
0
LINE
8
OUTLINE
10
104.532075
20
91.913898
30
0.0
11
103.913356
21
91.737752
31
0.0
0
LINE
8
OUTLINE
10
104.090133
20
92.039717
30
0.0
11
103.471415
21
91.863571
31
0.0
0
LINE
8
OUTLINE
10
108.049931
20
90.559954
30
0.0
11
108.049931
21
90.912382
31
0.0
0
LINE
8
OUTLINE
10
108.049931
20
90.912382
30
0.0
11
107.607989
21
91.038201
31
0.0
0
LINE
8
OUTLINE
10
107.607989
20
91.038201
30
0.0
11
107.607989
21
91.037996
31
0.0
0
LINE
8
OUTLINE
10
107.431213
20
90.736031
30
0.0
11
107.431213
21
90.736236
31
0.0
0
LINE
8
OUTLINE
10
107.431213
20
90.736236
30
0.0
11
106.989271
21
90.862055
31
0.0
0
LINE
8
OUTLINE
10
106.989271
20
90.862055
30
0.0
11
106.989271
21
90.861849
31
0.0
0
LINE
8
OUTLINE
10
108.049931
20
90.912382
30
0.0
11
107.431213
21
90.736236
31
0.0
0
LINE
8
OUTLINE
10
107.607989
20
91.038201
30
0.0
11
106.989271
21
90.862055
31
0.0
0
LINE
8
OUTLINE
10
114.614239
20
67.894044
30
0.0
11
131.525876
21
63.079384
31
0.0
0
LINE
8
OUTLINE
10
131.525876
20
63.079384
30
0.0
11
131.525876
21
86.402699
31
0.0
0
LINE
8
OUTLINE
10
114.614239
20
91.217359
30
0.0
11
114.614239
21
67.894044
31
0.0
0
LINE
8
OUTLINE
10
114.614502
20
67.894118
30
0.0
11
114.614239
21
67.894044
31
0.0
0
LINE
8
OUTLINE
10
131.614406
20
63.104588
30
0.0
11
131.525876
21
63.079384
31
0.0
0
LINE
8
OUTLINE
10
125.279503
20
85.05578
30
0.0
11
125.279766
21
85.055705
31
0.0
0
LINE
8
OUTLINE
10
125.279766
20
85.055705
30
0.0
11
125.279766
21
85.654841
31
0.0
0
LINE
8
OUTLINE
10
125.279766
20
85.654841
30
0.0
11
119.622912
21
87.26532
31
0.0
0
LINE
8
OUTLINE
10
119.622912
20
87.26532
30
0.0
11
119.622912
21
87.265114
31
0.0
0
LINE
8
OUTLINE
10
119.18097
20
86.540365
30
0.0
11
124.837825
21
84.929886
31
0.0
0
LINE
8
OUTLINE
10
124.837825
20
84.929886
30
0.0
11
124.837825
21
85.529022
31
0.0
0
LINE
8
OUTLINE
10
124.837825
20
85.529022
30
0.0
11
119.18097
21
87.139501
31
0.0
0
LINE
8
OUTLINE
10
119.18097
20
87.139501
30
0.0
11
119.18097
21
86.540365
31
0.0
0
LINE
8
OUTLINE
10
119.181233
20
86.540439
30
0.0
11
119.18097
21
86.540365
31
0.0
0
LINE
8
OUTLINE
10
125.279766
20
85.055705
30
0.0
11
124.837825
21
84.929886
31
0.0
0
LINE
8
OUTLINE
10
125.279766
20
85.654841
30
0.0
11
124.837825
21
85.529022
31
0.0
0
LINE
8
OUTLINE
10
119.622912
20
87.26532
30
0.0
11
119.18097
21
87.139501
31
0.0
0
LINE
8
OUTLINE
10
121.5321
20
86.721647
30
0.0
11
121.5321
21
87.074075
31
0.0
0
LINE
8
OUTLINE
10
121.5321
20
87.074075
30
0.0
11
121.090159
21
87.199894
31
0.0
0
LINE
8
OUTLINE
10
121.090159
20
87.199894
30
0.0
11
121.090159
21
87.199689
31
0.0
0
LINE
8
OUTLINE
10
120.913382
20
86.897724
30
0.0
11
120.913382
21
86.897929
31
0.0
0
LINE
8
OUTLINE
10
120.913382
20
86.897929
30
0.0
11
120.47144
21
87.023748
31
0.0
0
LINE
8
OUTLINE
10
120.47144
20
87.023748
30
0.0
11
120.47144
21
87.023542
31
0.0
0
LINE
8
OUTLINE
10
121.5321
20
87.074075
30
0.0
11
120.913382
21
86.897929
31
0.0
0
LINE
8
OUTLINE
10
121.090159
20
87.199894
30
0.0
11
120.47144
21
87.023748
31
0.0
0
LINE
8
OUTLINE
10
125.049957
20
85.720131
30
0.0
11
125.049957
21
86.072559
31
0.0
0
LINE
8
OUTLINE
10
125.049957
20
86.072559
30
0.0
11
124.608015
21
86.198378
31
0.0
0
LINE
8
OUTLINE
10
124.608015
20
86.198378
30
0.0
11
124.608015
21
86.198172
31
0.0
0
LINE
8
OUTLINE
10
124.431238
20
85.896208
30
0.0
11
124.431238
21
85.896413
31
0.0
0
LINE
8
OUTLINE
10
124.431238
20
85.896413
30
0.0
11
123.989297
21
86.022231
31
0.0
0
LINE
8
OUTLINE
10
123.989297
20
86.022231
30
0.0
11
123.989297
21
86.022026
31
0.0
0
LINE
8
OUTLINE
10
125.049957
20
86.072559
30
0.0
11
124.431238
21
85.896413
31
0.0
0
LINE
8
OUTLINE
10
124.608015
20
86.198378
30
0.0
11
123.989297
21
86.022231
31
0.0
0
LINE
8
OUTLINE
10
149.055969
20
58.390618
30
0.0
11
149.056232
21
58.390543
31
0.0
0
LINE
8
OUTLINE
10
149.056232
20
58.390543
30
0.0
11
149.056232
21
81.713858
31
0.0
0
LINE
8
OUTLINE
10
131.614265
20
63.05422
30
0.0
11
148.525902
21
58.239561
31
0.0
0
LINE
8
OUTLINE
10
148.525902
20
58.239561
30
0.0
11
148.525902
21
81.562876
31
0.0
0
LINE
8
OUTLINE
10
131.614265
20
86.377536
30
0.0
11
131.614265
21
63.05422
31
0.0
0
LINE
8
OUTLINE
10
131.614528
20
63.054295
30
0.0
11
131.614265
21
63.05422
31
0.0
0
LINE
8
OUTLINE
10
149.056232
20
58.390543
30
0.0
11
148.525902
21
58.239561
31
0.0
0
LINE
8
OUTLINE
10
142.279529
20
80.215956
30
0.0
11
142.279792
21
80.215881
31
0.0
0
LINE
8
OUTLINE
10
142.279792
20
80.215881
30
0.0
11
142.279792
21
80.815018
31
0.0
0
LINE
8
OUTLINE
10
142.279792
20
80.815018
30
0.0
11
136.622938
21
82.425496
31
0.0
0
LINE
8
OUTLINE
10
136.622938
20
82.425496
30
0.0
11
136.622938
21
82.425291
31
0.0
0
LINE
8
OUTLINE
10
136.180996
20
81.700541
30
0.0
11
141.83785
21
80.090063
31
0.0
0
LINE
8
OUTLINE
10
141.83785
20
80.090063
30
0.0
11
141.83785
21
80.689199
31
0.0
0
LINE
8
OUTLINE
10
141.83785
20
80.689199
30
0.0
11
136.180996
21
82.299678
31
0.0
0
LINE
8
OUTLINE
10
136.180996
20
82.299678
30
0.0
11
136.180996
21
81.700541
31
0.0
0
LINE
8
OUTLINE
10
136.181259
20
81.700616
30
0.0
11
136.180996
21
81.700541
31
0.0
0
LINE
8
OUTLINE
10
142.279792
20
80.215881
30
0.0
11
141.83785
21
80.090063
31
0.0
0
LINE
8
OUTLINE
10
142.279792
20
80.815018
30
0.0
11
141.83785
21
80.689199
31
0.0
0
LINE
8
OUTLINE
10
136.622938
20
82.425496
30
0.0
11
136.180996
21
82.299678
31
0.0
0
LINE
8
OUTLINE
10
138.532126
20
81.881824
30
0.0
11
138.532126
21
82.234252
31
0.0
0
LINE
8
OUTLINE
10
138.532126
20
82.234252
30
0.0
11
138.090184
21
82.360071
31
0.0
0
LINE
8
OUTLINE
10
138.090184
20
82.360071
30
0.0
11
138.090184
21
82.359865
31
0.0
0
LINE
8
OUTLINE
10
137.913408
20
82.057901
30
0.0
11
137.913408
21
82.058106
31
0.0
0
LINE
8
OUTLINE
10
137.913408
20
82.058106
30
0.0
11
137.471466
21
82.183924
31
0.0
0
LINE
8
OUTLINE
10
137.471466
20
82.183924
30
0.0
11
137.471466
21
82.183719
31
0.0
0
LINE
8
OUTLINE
10
138.532126
20
82.234252
30
0.0
11
137.913408
21
82.058106
31
0.0
0
LINE
8
OUTLINE
10
138.090184
20
82.360071
30
0.0
11
137.471466
21
82.183924
31
0.0
0
LINE
8
OUTLINE
10
142.049982
20
80.880307
30
0.0
11
142.049982
21
81.232736
31
0.0
0
LINE
8
OUTLINE
10
142.049982
20
81.232736
30
0.0
11
141.60804
21
81.358554
31
0.0
0
LINE
8
OUTLINE
10
141.60804
20
81.358554
30
0.0
11
141.60804
21
81.358349
31
0.0
0
LINE
8
OUTLINE
10
141.431264
20
81.056384
30
0.0
11
141.431264
21
81.05659
31
0.0
0
LINE
8
OUTLINE
10
141.431264
20
81.05659
30
0.0
11
140.989322
21
81.182408
31
0.0
0
LINE
8
OUTLINE
10
140.989322
20
81.182408
30
0.0
11
140.989322
21
81.182203
31
0.0
0
LINE
8
OUTLINE
10
142.049982
20
81.232736
30
0.0
11
141.431264
21
81.05659
31
0.0
0
LINE
8
OUTLINE
10
141.60804
20
81.358554
30
0.0
11
140.989322
21
81.182408
31
0.0
0
LINE
8
OUTLINE
10
163.374881
20
85.790321
30
0.0
11
163.375144
21
85.790246
31
0.0
0
LINE
8
OUTLINE
10
163.375144
20
85.790246
30
0.0
11
163.375144
21
86.988519
31
0.0
0
LINE
8
OUTLINE
10
163.375144
20
86.988519
30
0.0
11
111.049242
21
101.885444
31
0.0
0
LINE
8
OUTLINE
10
111.049242
20
101.885444
30
0.0
11
111.049242
21
101.885239
31
0.0
0
LINE
8
OUTLINE
10
96.2
20
96.459666
30
0.0
11
148.525902
21
81.56274
31
0.0
0
LINE
8
OUTLINE
10
148.525902
20
81.56274
30
0.0
11
148.525902
21
82.761013
31
0.0
0
LINE
8
OUTLINE
10
148.525902
20
82.761013
30
0.0
11
96.2
21
97.657938
31
0.0
0
LINE
8
OUTLINE
10
96.2
20
97.657938
30
0.0
11
96.2
21
96.459666
31
0.0
0
LINE
8
OUTLINE
10
96.200263
20
96.459741
30
0.0
11
96.2
21
96.459666
31
0.0
0
LINE
8
OUTLINE
10
163.375144
20
85.790246
30
0.0
11
148.525902
21
81.56274
31
0.0
0
LINE
8
OUTLINE
10
163.375144
20
86.988519
30
0.0
11
148.525902
21
82.761013
31
0.0
0
LINE
8
OUTLINE
10
111.049242
20
101.885444
30
0.0
11
96.2
21
97.657938
31
0.0
0
TEXT
8
VIEWLABEL
10
96.2
20
107.805444
30
0.0
40
1.702
1
ISOMETRIC
50
0.0
72
0.0
73
0.0
11
96.2
21
107.805444
31
0.0
0
LINE
8
DIMS
10
0.0
20
0.0
30
0.0
11
0.0
21
-8.288
31
0.0
0
LINE
8
DIMS
10
74.0
20
0.0
30
0.0
11
74.0
21
-8.288
31
0.0
0
LINE
8
DIMS
10
0.0
20
-7.4
30
0.0
11
74.0
21
-7.4
31
0.0
0
SOLID
8
DIMS
10
0.0
20
-7.4
30
0.0
11
1.332
21
-7.63976
31
0.0
12
1.332
22
-7.16024
32
0.0
13
1.332
23
-7.16024
33
0.0
0
SOLID
8
DIMS
10
74.0
20
-7.4
30
0.0
11
72.668
21
-7.16024
31
0.0
12
72.668
22
-7.63976
32
0.0
13
72.668
23
-7.63976
33
0.0
0
TEXT
8
DIMS
10
37.0
20
-6.808
30
0.0
40
1.48
1
74"
50
0.0
72
1.0
73
0.0
11
37.0
21
-6.808
31
0.0
0
LINE
8
DIMS
10
0.0
20
0.0
30
0.0
11
-8.288
21
0.0
31
0.0
0
LINE
8
DIMS
10
0.0
20
30.0
30
0.0
11
-8.288
21
30.0
31
0.0
0
LINE
8
DIMS
10
-7.4
20
0.0
30
0.0
11
-7.4
21
30.0
31
0.0
0
SOLID
8
DIMS
10
-7.4
20
0.0
30
0.0
11
-7.16024
21
1.332
31
0.0
12
-7.63976
22
1.332
32
0.0
13
-7.63976
23
1.332
33
0.0
0
SOLID
8
DIMS
10
-7.4
20
30.0
30
0.0
11
-7.63976
21
28.668
31
0.0
12
-7.16024
22
28.668
32
0.0
13
-7.16024
23
28.668
33
0.0
0
TEXT
8
DIMS
10
-7.992
20
15.0
30
0.0
40
1.48
1
30"
50
90.0
72
1.0
73
0.0
11
-7.992
21
15.0
31
0.0
0
LINE
8
DIMS
10
96.2
20
0.0
30
0.0
11
96.2
21
-8.288
31
0.0
0
LINE
8
DIMS
10
117.7
20
0.0
30
0.0
11
117.7
21
-8.288
31
0.0
0
LINE
8
DIMS
10
96.2
20
-7.4
30
0.0
11
117.7
21
-7.4
31
0.0
0
SOLID
8
DIMS
10
96.2
20
-7.4
30
0.0
11
97.532
21
-7.63976
31
0.0
12
97.532
22
-7.16024
32
0.0
13
97.532
23
-7.16024
33
0.0
0
SOLID
8
DIMS
10
117.7
20
-7.4
30
0.0
11
116.368
21
-7.16024
31
0.0
12
116.368
22
-7.63976
32
0.0
13
116.368
23
-7.63976
33
0.0
0
TEXT
8
DIMS
10
106.95
20
-6.808
30
0.0
40
1.48
1
21 1/2"
50
0.0
72
1.0
73
0.0
11
106.95
21
-6.808
31
0.0
0
LINE
8
TITLE
10
-22.2
20
-43.66
30
0.0
11
172.255144
21
-43.66
31
0.0
0
LINE
8
TITLE
10
172.255144
20
-43.66
30
0.0
11
172.255144
21
125.565444
31
0.0
0
LINE
8
TITLE
10
172.255144
20
125.565444
30
0.0
11
-22.2
21
125.565444
31
0.0
0
LINE
8
TITLE
10
-22.2
20
125.565444
30
0.0
11
-22.2
21
-43.66
31
0.0
0
LINE
8
TITLE
10
109.355144
20
-43.66
30
0.0
11
172.255144
21
-43.66
31
0.0
0
LINE
8
TITLE
10
172.255144
20
-43.66
30
0.0
11
172.255144
21
-32.56
31
0.0
0
LINE
8
TITLE
10
172.255144
20
-32.56
30
0.0
11
109.355144
21
-32.56
31
0.0
0
LINE
8
TITLE
10
109.355144
20
-32.56
30
0.0
11
109.355144
21
-43.66
31
0.0
0
LINE
8
TITLE
10
109.355144
20
-40.885
30
0.0
11
172.255144
21
-40.885
31
0.0
0
LINE
8
TITLE
10
109.355144
20
-38.11
30
0.0
11
172.255144
21
-38.11
31
0.0
0
LINE
8
TITLE
10
109.355144
20
-35.335
30
0.0
11
172.255144
21
-35.335
31
0.0
0
LINE
8
TITLE
10
148.353144
20
-43.66
30
0.0
11
148.353144
21
-35.335
31
0.0
0
TEXT
8
TITLE
10
110.095144
20
-35.0575
30
0.0
40
2.22
1
ARNOLD CONTRACT
50
0.0
72
0.0
73
0.0
11
110.095144
21
-35.0575
31
0.0
0
TEXT
8
TITLE
10
110.095144
20
-37.4625
30
0.0
40
1.48
1
PROJECT: Sample Client
50
0.0
72
0.0
73
0.0
11
110.095144
21
-37.4625
31
0.0
0
TEXT
8
TITLE
10
110.095144
20
-40.2375
30
0.0
40
1.48
1
ITEM: Reception credenza
50
0.0
72
0.0
73
0.0
11
110.095144
21
-40.2375
31
0.0
0
TEXT
8
TITLE
10
110.095144
20
-43.0125
30
0.0
40
1.48
1
74" W  x  21 1/2" D  x  30" H
50
0.0
72
0.0
73
0.0
11
110.095144
21
-43.0125
31
0.0
0
TEXT
8
TITLE
10
149.093144
20
-37.4625
30
0.0
40
1.48
1
QUOTE: DEMO-001
50
0.0
72
0.0
73
0.0
11
149.093144
21
-37.4625
31
0.0
0
TEXT
8
TITLE
10
149.093144
20
-40.2375
30
0.0
40
1.48
1
ITEM No: 1
50
0.0
72
0.0
73
0.0
11
149.093144
21
-40.2375
31
0.0
0
TEXT
8
TITLE
10
149.093144
20
-43.0125
30
0.0
40
1.48
1
DATE: 2026-08-26
50
0.0
72
0.0
73
0.0
11
149.093144
21
-43.0125
31
0.0
0
TEXT
8
TITLE
10
171.515144
20
-34.6875
30
0.0
40
1.48
1
FULL SIZE (1:1)
50
0.0
72
2.0
73
0.0
11
171.515144
21
-34.6875
31
0.0
0
ENDSEC
0
EOF
