0
SECTION
2
HEADER
9
$ACADVER
1
AC1009
9
$INSUNITS
70
1.0
9
$MEASUREMENT
70
0.0
0
ENDSEC
0
SECTION
2
TABLES
0
TABLE
2
LAYER
70
6.0
0
LAYER
2
OUTLINE
70
0.0
62
7.0
6
CONTINUOUS
0
LAYER
2
DETAIL
70
0.0
62
8.0
6
CONTINUOUS
0
LAYER
2
DIMS
70
0.0
62
3.0
6
CONTINUOUS
0
LAYER
2
TEXT
70
0.0
62
4.0
6
CONTINUOUS
0
LAYER
2
TITLE
70
0.0
62
7.0
6
CONTINUOUS
0
LAYER
2
VIEWLABEL
70
0.0
62
2.0
6
CONTINUOUS
0
ENDTAB
0
ENDSEC
0
SECTION
2
ENTITIES
0
LINE
8
OUTLINE
10
0.0
20
27.75
30
0.0
11
72.0
21
27.75
31
0.0
0
LINE
8
OUTLINE
10
72.0
20
27.75
30
0.0
11
72.0
21
29.0
31
0.0
0
LINE
8
OUTLINE
10
72.0
20
29.0
30
0.0
11
0.0
21
29.0
31
0.0
0
LINE
8
OUTLINE
10
0.0
20
29.0
30
0.0
11
0.0
21
27.75
31
0.0
0
LINE
8
OUTLINE
10
0.0
20
27.75
30
0.0
11
72.0
21
27.75
31
0.0
0
LINE
8
OUTLINE
10
72.0
20
27.75
30
0.0
11
72.0
21
29.0
31
0.0
0
LINE
8
OUTLINE
10
72.0
20
29.0
30
0.0
11
0.0
21
29.0
31
0.0
0
LINE
8
OUTLINE
10
0.0
20
29.0
30
0.0
11
0.0
21
27.75
31
0.0
0
LINE
8
OUTLINE
10
0.0
20
27.75
30
0.0
11
0.0
21
27.75
31
0.0
0
LINE
8
OUTLINE
10
72.0
20
27.75
30
0.0
11
72.0
21
27.75
31
0.0
0
LINE
8
OUTLINE
10
72.0
20
29.0
30
0.0
11
72.0
21
29.0
31
0.0
0
LINE
8
OUTLINE
10
0.0
20
29.0
30
0.0
11
0.0
21
29.0
31
0.0
0
LINE
8
OUTLINE
10
3.0
20
0.0
30
0.0
11
5.5
21
0.0
31
0.0
0
LINE
8
OUTLINE
10
5.5
20
0.0
30
0.0
11
5.5
21
27.75
31
0.0
0
LINE
8
OUTLINE
10
5.5
20
27.75
30
0.0
11
3.0
21
27.75
31
0.0
0
LINE
8
OUTLINE
10
3.0
20
27.75
30
0.0
11
3.0
21
0.0
31
0.0
0
LINE
8
OUTLINE
10
3.0
20
0.0
30
0.0
11
5.5
21
0.0
31
0.0
0
LINE
8
OUTLINE
10
5.5
20
0.0
30
0.0
11
5.5
21
27.75
31
0.0
0
LINE
8
OUTLINE
10
5.5
20
27.75
30
0.0
11
3.0
21
27.75
31
0.0
0
LINE
8
OUTLINE
10
3.0
20
27.75
30
0.0
11
3.0
21
0.0
31
0.0
0
LINE
8
OUTLINE
10
3.0
20
0.0
30
0.0
11
3.0
21
0.0
31
0.0
0
LINE
8
OUTLINE
10
5.5
20
0.0
30
0.0
11
5.5
21
0.0
31
0.0
0
LINE
8
OUTLINE
10
5.5
20
27.75
30
0.0
11
5.5
21
27.75
31
0.0
0
LINE
8
OUTLINE
10
3.0
20
27.75
30
0.0
11
3.0
21
27.75
31
0.0
0
LINE
8
OUTLINE
10
66.5
20
0.0
30
0.0
11
69.0
21
0.0
31
0.0
0
LINE
8
OUTLINE
10
69.0
20
0.0
30
0.0
11
69.0
21
27.75
31
0.0
0
LINE
8
OUTLINE
10
69.0
20
27.75
30
0.0
11
66.5
21
27.75
31
0.0
0
LINE
8
OUTLINE
10
66.5
20
27.75
30
0.0
11
66.5
21
0.0
31
0.0
0
LINE
8
OUTLINE
10
66.5
20
0.0
30
0.0
11
69.0
21
0.0
31
0.0
0
LINE
8
OUTLINE
10
69.0
20
0.0
30
0.0
11
69.0
21
27.75
31
0.0
0
LINE
8
OUTLINE
10
69.0
20
27.75
30
0.0
11
66.5
21
27.75
31
0.0
0
LINE
8
OUTLINE
10
66.5
20
27.75
30
0.0
11
66.5
21
0.0
31
0.0
0
LINE
8
OUTLINE
10
66.5
20
0.0
30
0.0
11
66.5
21
0.0
31
0.0
0
LINE
8
OUTLINE
10
69.0
20
0.0
30
0.0
11
69.0
21
0.0
31
0.0
0
LINE
8
OUTLINE
10
69.0
20
27.75
30
0.0
11
69.0
21
27.75
31
0.0
0
LINE
8
OUTLINE
10
66.5
20
27.75
30
0.0
11
66.5
21
27.75
31
0.0
0
LINE
8
OUTLINE
10
3.0
20
0.0
30
0.0
11
5.5
21
0.0
31
0.0
0
LINE
8
OUTLINE
10
5.5
20
0.0
30
0.0
11
5.5
21
27.75
31
0.0
0
LINE
8
OUTLINE
10
5.5
20
27.75
30
0.0
11
3.0
21
27.75
31
0.0
0
LINE
8
OUTLINE
10
3.0
20
27.75
30
0.0
11
3.0
21
0.0
31
0.0
0
LINE
8
OUTLINE
10
3.0
20
0.0
30
0.0
11
5.5
21
0.0
31
0.0
0
LINE
8
OUTLINE
10
5.5
20
0.0
30
0.0
11
5.5
21
27.75
31
0.0
0
LINE
8
OUTLINE
10
5.5
20
27.75
30
0.0
11
3.0
21
27.75
31
0.0
0
LINE
8
OUTLINE
10
3.0
20
27.75
30
0.0
11
3.0
21
0.0
31
0.0
0
LINE
8
OUTLINE
10
3.0
20
0.0
30
0.0
11
3.0
21
0.0
31
0.0
0
LINE
8
OUTLINE
10
5.5
20
0.0
30
0.0
11
5.5
21
0.0
31
0.0
0
LINE
8
OUTLINE
10
5.5
20
27.75
30
0.0
11
5.5
21
27.75
31
0.0
0
LINE
8
OUTLINE
10
3.0
20
27.75
30
0.0
11
3.0
21
27.75
31
0.0
0
LINE
8
OUTLINE
10
66.5
20
0.0
30
0.0
11
69.0
21
0.0
31
0.0
0
LINE
8
OUTLINE
10
69.0
20
0.0
30
0.0
11
69.0
21
27.75
31
0.0
0
LINE
8
OUTLINE
10
69.0
20
27.75
30
0.0
11
66.5
21
27.75
31
0.0
0
LINE
8
OUTLINE
10
66.5
20
27.75
30
0.0
11
66.5
21
0.0
31
0.0
0
LINE
8
OUTLINE
10
66.5
20
0.0
30
0.0
11
69.0
21
0.0
31
0.0
0
LINE
8
OUTLINE
10
69.0
20
0.0
30
0.0
11
69.0
21
27.75
31
0.0
0
LINE
8
OUTLINE
10
69.0
20
27.75
30
0.0
11
66.5
21
27.75
31
0.0
0
LINE
8
OUTLINE
10
66.5
20
27.75
30
0.0
11
66.5
21
0.0
31
0.0
0
LINE
8
OUTLINE
10
66.5
20
0.0
30
0.0
11
66.5
21
0.0
31
0.0
0
LINE
8
OUTLINE
10
69.0
20
0.0
30
0.0
11
69.0
21
0.0
31
0.0
0
LINE
8
OUTLINE
10
69.0
20
27.75
30
0.0
11
69.0
21
27.75
31
0.0
0
LINE
8
OUTLINE
10
66.5
20
27.75
30
0.0
11
66.5
21
27.75
31
0.0
0
LINE
8
OUTLINE
10
5.5
20
23.75
30
0.0
11
66.5
21
23.75
31
0.0
0
LINE
8
OUTLINE
10
66.5
20
23.75
30
0.0
11
66.5
21
27.75
31
0.0
0
LINE
8
OUTLINE
10
66.5
20
27.75
30
0.0
11
5.5
21
27.75
31
0.0
0
LINE
8
OUTLINE
10
5.5
20
27.75
30
0.0
11
5.5
21
23.75
31
0.0
0
LINE
8
OUTLINE
10
5.5
20
23.75
30
0.0
11
66.5
21
23.75
31
0.0
0
LINE
8
OUTLINE
10
66.5
20
23.75
30
0.0
11
66.5
21
27.75
31
0.0
0
LINE
8
OUTLINE
10
66.5
20
27.75
30
0.0
11
5.5
21
27.75
31
0.0
0
LINE
8
OUTLINE
10
5.5
20
27.75
30
0.0
11
5.5
21
23.75
31
0.0
0
LINE
8
OUTLINE
10
5.5
20
23.75
30
0.0
11
5.5
21
23.75
31
0.0
0
LINE
8
OUTLINE
10
66.5
20
23.75
30
0.0
11
66.5
21
23.75
31
0.0
0
LINE
8
OUTLINE
10
66.5
20
27.75
30
0.0
11
66.5
21
27.75
31
0.0
0
LINE
8
OUTLINE
10
5.5
20
27.75
30
0.0
11
5.5
21
27.75
31
0.0
0
LINE
8
OUTLINE
10
5.5
20
23.75
30
0.0
11
66.5
21
23.75
31
0.0
0
LINE
8
OUTLINE
10
66.5
20
23.75
30
0.0
11
66.5
21
27.75
31
0.0
0
LINE
8
OUTLINE
10
66.5
20
27.75
30
0.0
11
5.5
21
27.75
31
0.0
0
LINE
8
OUTLINE
10
5.5
20
27.75
30
0.0
11
5.5
21
23.75
31
0.0
0
LINE
8
OUTLINE
10
5.5
20
23.75
30
0.0
11
66.5
21
23.75
31
0.0
0
LINE
8
OUTLINE
10
66.5
20
23.75
30
0.0
11
66.5
21
27.75
31
0.0
0
LINE
8
OUTLINE
10
66.5
20
27.75
30
0.0
11
5.5
21
27.75
31
0.0
0
LINE
8
OUTLINE
10
5.5
20
27.75
30
0.0
11
5.5
21
23.75
31
0.0
0
LINE
8
OUTLINE
10
5.5
20
23.75
30
0.0
11
5.5
21
23.75
31
0.0
0
LINE
8
OUTLINE
10
66.5
20
23.75
30
0.0
11
66.5
21
23.75
31
0.0
0
LINE
8
OUTLINE
10
66.5
20
27.75
30
0.0
11
66.5
21
27.75
31
0.0
0
LINE
8
OUTLINE
10
5.5
20
27.75
30
0.0
11
5.5
21
27.75
31
0.0
0
LINE
8
OUTLINE
10
1.5
20
23.75
30
0.0
11
2.25
21
23.75
31
0.0
0
LINE
8
OUTLINE
10
2.25
20
23.75
30
0.0
11
2.25
21
27.75
31
0.0
0
LINE
8
OUTLINE
10
2.25
20
27.75
30
0.0
11
1.5
21
27.75
31
0.0
0
LINE
8
OUTLINE
10
1.5
20
27.75
30
0.0
11
1.5
21
23.75
31
0.0
0
LINE
8
OUTLINE
10
1.5
20
23.75
30
0.0
11
2.25
21
23.75
31
0.0
0
LINE
8
OUTLINE
10
2.25
20
23.75
30
0.0
11
2.25
21
27.75
31
0.0
0
LINE
8
OUTLINE
10
2.25
20
27.75
30
0.0
11
1.5
21
27.75
31
0.0
0
LINE
8
OUTLINE
10
1.5
20
27.75
30
0.0
11
1.5
21
23.75
31
0.0
0
LINE
8
OUTLINE
10
1.5
20
23.75
30
0.0
11
1.5
21
23.75
31
0.0
0
LINE
8
OUTLINE
10
2.25
20
23.75
30
0.0
11
2.25
21
23.75
31
0.0
0
LINE
8
OUTLINE
10
2.25
20
27.75
30
0.0
11
2.25
21
27.75
31
0.0
0
LINE
8
OUTLINE
10
1.5
20
27.75
30
0.0
11
1.5
21
27.75
31
0.0
0
LINE
8
OUTLINE
10
69.75
20
23.75
30
0.0
11
70.5
21
23.75
31
0.0
0
LINE
8
OUTLINE
10
70.5
20
23.75
30
0.0
11
70.5
21
27.75
31
0.0
0
LINE
8
OUTLINE
10
70.5
20
27.75
30
0.0
11
69.75
21
27.75
31
0.0
0
LINE
8
OUTLINE
10
69.75
20
27.75
30
0.0
11
69.75
21
23.75
31
0.0
0
LINE
8
OUTLINE
10
69.75
20
23.75
30
0.0
11
70.5
21
23.75
31
0.0
0
LINE
8
OUTLINE
10
70.5
20
23.75
30
0.0
11
70.5
21
27.75
31
0.0
0
LINE
8
OUTLINE
10
70.5
20
27.75
30
0.0
11
69.75
21
27.75
31
0.0
0
LINE
8
OUTLINE
10
69.75
20
27.75
30
0.0
11
69.75
21
23.75
31
0.0
0
LINE
8
OUTLINE
10
69.75
20
23.75
30
0.0
11
69.75
21
23.75
31
0.0
0
LINE
8
OUTLINE
10
70.5
20
23.75
30
0.0
11
70.5
21
23.75
31
0.0
0
LINE
8
OUTLINE
10
70.5
20
27.75
30
0.0
11
70.5
21
27.75
31
0.0
0
LINE
8
OUTLINE
10
69.75
20
27.75
30
0.0
11
69.75
21
27.75
31
0.0
0
TEXT
8
VIEWLABEL
10
0.0
20
-17.28
30
0.0
40
1.656
1
FRONT ELEVATION
50
0.0
72
0.0
73
0.0
11
0.0
21
-17.28
31
0.0
0
LINE
8
OUTLINE
10
123.6
20
27.75
30
0.0
11
123.6
21
27.75
31
0.0
0
LINE
8
OUTLINE
10
123.6
20
27.75
30
0.0
11
123.6
21
29.0
31
0.0
0
LINE
8
OUTLINE
10
123.6
20
29.0
30
0.0
11
123.6
21
29.0
31
0.0
0
LINE
8
OUTLINE
10
123.6
20
29.0
30
0.0
11
123.6
21
27.75
31
0.0
0
LINE
8
OUTLINE
10
93.6
20
27.75
30
0.0
11
93.6
21
27.75
31
0.0
0
LINE
8
OUTLINE
10
93.6
20
27.75
30
0.0
11
93.6
21
29.0
31
0.0
0
LINE
8
OUTLINE
10
93.6
20
29.0
30
0.0
11
93.6
21
29.0
31
0.0
0
LINE
8
OUTLINE
10
93.6
20
29.0
30
0.0
11
93.6
21
27.75
31
0.0
0
LINE
8
OUTLINE
10
123.6
20
27.75
30
0.0
11
93.6
21
27.75
31
0.0
0
LINE
8
OUTLINE
10
123.6
20
27.75
30
0.0
11
93.6
21
27.75
31
0.0
0
LINE
8
OUTLINE
10
123.6
20
29.0
30
0.0
11
93.6
21
29.0
31
0.0
0
LINE
8
OUTLINE
10
123.6
20
29.0
30
0.0
11
93.6
21
29.0
31
0.0
0
LINE
8
OUTLINE
10
121.6
20
0.0
30
0.0
11
121.6
21
0.0
31
0.0
0
LINE
8
OUTLINE
10
121.6
20
0.0
30
0.0
11
121.6
21
23.7501
31
0.0
0
LINE
8
OUTLINE
10
121.6
20
27.7499
30
0.0
11
121.6
21
27.75
31
0.0
0
LINE
8
OUTLINE
10
121.6
20
27.75
30
0.0
11
121.6
21
27.75
31
0.0
0
LINE
8
OUTLINE
10
121.6
20
27.75
30
0.0
11
121.6
21
27.7499
31
0.0
0
LINE
8
OUTLINE
10
121.6
20
23.7501
30
0.0
11
121.6
21
0.0
31
0.0
0
LINE
8
OUTLINE
10
119.1
20
0.0
30
0.0
11
119.1
21
0.0
31
0.0
0
LINE
8
OUTLINE
10
119.1
20
0.0
30
0.0
11
119.1
21
27.75
31
0.0
0
LINE
8
OUTLINE
10
119.1
20
27.75
30
0.0
11
119.1
21
27.75
31
0.0
0
LINE
8
OUTLINE
10
119.1
20
27.75
30
0.0
11
119.1
21
0.0
31
0.0
0
LINE
8
OUTLINE
10
121.6
20
0.0
30
0.0
11
119.1
21
0.0
31
0.0
0
LINE
8
OUTLINE
10
121.6
20
0.0
30
0.0
11
119.1
21
0.0
31
0.0
0
LINE
8
OUTLINE
10
121.6
20
27.75
30
0.0
11
119.1
21
27.75
31
0.0
0
LINE
8
OUTLINE
10
121.6
20
27.75
30
0.0
11
119.1
21
27.75
31
0.0
0
LINE
8
OUTLINE
10
121.6
20
0.0
30
0.0
11
121.6
21
0.0
31
0.0
0
LINE
8
OUTLINE
10
121.6
20
0.0
30
0.0
11
121.6
21
27.75
31
0.0
0
LINE
8
OUTLINE
10
121.6
20
27.75
30
0.0
11
121.6
21
27.75
31
0.0
0
LINE
8
OUTLINE
10
121.6
20
27.75
30
0.0
11
121.6
21
0.0
31
0.0
0
LINE
8
OUTLINE
10
119.1
20
0.0
30
0.0
11
119.1
21
0.0
31
0.0
0
LINE
8
OUTLINE
10
119.1
20
0.0
30
0.0
11
119.1
21
27.75
31
0.0
0
LINE
8
OUTLINE
10
119.1
20
27.75
30
0.0
11
119.1
21
27.75
31
0.0
0
LINE
8
OUTLINE
10
119.1
20
27.75
30
0.0
11
119.1
21
0.0
31
0.0
0
LINE
8
OUTLINE
10
121.6
20
0.0
30
0.0
11
119.1
21
0.0
31
0.0
0
LINE
8
OUTLINE
10
121.6
20
0.0
30
0.0
11
119.1
21
0.0
31
0.0
0
LINE
8
OUTLINE
10
121.6
20
27.75
30
0.0
11
119.1
21
27.75
31
0.0
0
LINE
8
OUTLINE
10
121.6
20
27.75
30
0.0
11
119.1
21
27.75
31
0.0
0
LINE
8
OUTLINE
10
98.1
20
0.0
30
0.0
11
98.1
21
0.0
31
0.0
0
LINE
8
OUTLINE
10
98.1
20
0.0
30
0.0
11
98.1
21
27.75
31
0.0
0
LINE
8
OUTLINE
10
98.1
20
27.75
30
0.0
11
98.1
21
27.75
31
0.0
0
LINE
8
OUTLINE
10
98.1
20
27.75
30
0.0
11
98.1
21
0.0
31
0.0
0
LINE
8
OUTLINE
10
95.6
20
0.0
30
0.0
11
95.6
21
0.0
31
0.0
0
LINE
8
OUTLINE
10
95.6
20
0.0
30
0.0
11
95.6
21
23.7501
31
0.0
0
LINE
8
OUTLINE
10
95.6
20
27.7499
30
0.0
11
95.6
21
27.75
31
0.0
0
LINE
8
OUTLINE
10
95.6
20
27.75
30
0.0
11
95.6
21
27.75
31
0.0
0
LINE
8
OUTLINE
10
95.6
20
27.75
30
0.0
11
95.6
21
27.7499
31
0.0
0
LINE
8
OUTLINE
10
95.6
20
23.7501
30
0.0
11
95.6
21
0.0
31
0.0
0
LINE
8
OUTLINE
10
98.1
20
0.0
30
0.0
11
95.6
21
0.0
31
0.0
0
LINE
8
OUTLINE
10
98.1
20
0.0
30
0.0
11
95.6
21
0.0
31
0.0
0
LINE
8
OUTLINE
10
98.1
20
27.75
30
0.0
11
95.6
21
27.75
31
0.0
0
LINE
8
OUTLINE
10
98.1
20
27.75
30
0.0
11
95.6
21
27.75
31
0.0
0
LINE
8
OUTLINE
10
98.1
20
0.0
30
0.0
11
98.1
21
0.0
31
0.0
0
LINE
8
OUTLINE
10
98.1
20
0.0
30
0.0
11
98.1
21
27.75
31
0.0
0
LINE
8
OUTLINE
10
98.1
20
27.75
30
0.0
11
98.1
21
27.75
31
0.0
0
LINE
8
OUTLINE
10
98.1
20
27.75
30
0.0
11
98.1
21
0.0
31
0.0
0
LINE
8
OUTLINE
10
95.6
20
0.0
30
0.0
11
95.6
21
0.0
31
0.0
0
LINE
8
OUTLINE
10
95.6
20
0.0
30
0.0
11
95.6
21
27.75
31
0.0
0
LINE
8
OUTLINE
10
95.6
20
27.75
30
0.0
11
95.6
21
27.75
31
0.0
0
LINE
8
OUTLINE
10
95.6
20
27.75
30
0.0
11
95.6
21
0.0
31
0.0
0
LINE
8
OUTLINE
10
98.1
20
0.0
30
0.0
11
95.6
21
0.0
31
0.0
0
LINE
8
OUTLINE
10
98.1
20
0.0
30
0.0
11
95.6
21
0.0
31
0.0
0
LINE
8
OUTLINE
10
98.1
20
27.75
30
0.0
11
95.6
21
27.75
31
0.0
0
LINE
8
OUTLINE
10
98.1
20
27.75
30
0.0
11
95.6
21
27.75
31
0.0
0
LINE
8
OUTLINE
10
95.85
20
27.7499
30
0.0
11
95.85
21
27.75
31
0.0
0
LINE
8
OUTLINE
10
95.85
20
27.75
30
0.0
11
95.85
21
27.75
31
0.0
0
LINE
8
OUTLINE
10
95.85
20
27.75
30
0.0
11
95.85
21
27.7499
31
0.0
0
LINE
8
OUTLINE
10
95.1
20
23.75
30
0.0
11
95.1
21
23.75
31
0.0
0
LINE
8
OUTLINE
10
95.1
20
23.75
30
0.0
11
95.1
21
27.75
31
0.0
0
LINE
8
OUTLINE
10
95.1
20
27.75
30
0.0
11
95.1
21
27.75
31
0.0
0
LINE
8
OUTLINE
10
95.1
20
27.75
30
0.0
11
95.1
21
23.75
31
0.0
0
LINE
8
OUTLINE
10
95.6001
20
23.75
30
0.0
11
95.1
21
23.75
31
0.0
0
LINE
8
OUTLINE
10
95.6001
20
23.75
30
0.0
11
95.1
21
23.75
31
0.0
0
LINE
8
OUTLINE
10
95.85
20
27.75
30
0.0
11
95.1
21
27.75
31
0.0
0
LINE
8
OUTLINE
10
95.85
20
27.75
30
0.0
11
95.1
21
27.75
31
0.0
0
LINE
8
OUTLINE
10
122.1
20
23.75
30
0.0
11
122.1
21
23.75
31
0.0
0
LINE
8
OUTLINE
10
122.1
20
23.75
30
0.0
11
122.1
21
27.75
31
0.0
0
LINE
8
OUTLINE
10
122.1
20
27.75
30
0.0
11
122.1
21
27.75
31
0.0
0
LINE
8
OUTLINE
10
122.1
20
27.75
30
0.0
11
122.1
21
23.75
31
0.0
0
LINE
8
OUTLINE
10
121.35
20
27.7499
30
0.0
11
121.35
21
27.75
31
0.0
0
LINE
8
OUTLINE
10
121.35
20
27.75
30
0.0
11
121.35
21
27.75
31
0.0
0
LINE
8
OUTLINE
10
121.35
20
27.75
30
0.0
11
121.35
21
27.7499
31
0.0
0
LINE
8
OUTLINE
10
122.1
20
23.75
30
0.0
11
121.5999
21
23.75
31
0.0
0
LINE
8
OUTLINE
10
122.1
20
23.75
30
0.0
11
121.5999
21
23.75
31
0.0
0
LINE
8
OUTLINE
10
122.1
20
27.75
30
0.0
11
121.35
21
27.75
31
0.0
0
LINE
8
OUTLINE
10
122.1
20
27.75
30
0.0
11
121.35
21
27.75
31
0.0
0
LINE
8
OUTLINE
10
119.1
20
23.75
30
0.0
11
119.1
21
23.75
31
0.0
0
LINE
8
OUTLINE
10
119.1
20
23.75
30
0.0
11
119.1
21
27.75
31
0.0
0
LINE
8
OUTLINE
10
119.1
20
27.75
30
0.0
11
119.1
21
27.75
31
0.0
0
LINE
8
OUTLINE
10
119.1
20
27.75
30
0.0
11
119.1
21
23.75
31
0.0
0
LINE
8
OUTLINE
10
98.1
20
23.75
30
0.0
11
98.1
21
23.75
31
0.0
0
LINE
8
OUTLINE
10
98.1
20
23.75
30
0.0
11
98.1
21
27.75
31
0.0
0
LINE
8
OUTLINE
10
98.1
20
27.75
30
0.0
11
98.1
21
27.75
31
0.0
0
LINE
8
OUTLINE
10
98.1
20
27.75
30
0.0
11
98.1
21
23.75
31
0.0
0
LINE
8
OUTLINE
10
119.1
20
23.75
30
0.0
11
98.1
21
23.75
31
0.0
0
LINE
8
OUTLINE
10
119.1
20
23.75
30
0.0
11
98.1
21
23.75
31
0.0
0
LINE
8
OUTLINE
10
119.1
20
27.75
30
0.0
11
98.1
21
27.75
31
0.0
0
LINE
8
OUTLINE
10
119.1
20
27.75
30
0.0
11
98.1
21
27.75
31
0.0
0
LINE
8
OUTLINE
10
119.1
20
23.75
30
0.0
11
119.1
21
23.75
31
0.0
0
LINE
8
OUTLINE
10
119.1
20
23.75
30
0.0
11
119.1
21
27.75
31
0.0
0
LINE
8
OUTLINE
10
119.1
20
27.75
30
0.0
11
119.1
21
27.75
31
0.0
0
LINE
8
OUTLINE
10
119.1
20
27.75
30
0.0
11
119.1
21
23.75
31
0.0
0
LINE
8
OUTLINE
10
98.1
20
23.75
30
0.0
11
98.1
21
23.75
31
0.0
0
LINE
8
OUTLINE
10
98.1
20
23.75
30
0.0
11
98.1
21
27.75
31
0.0
0
LINE
8
OUTLINE
10
98.1
20
27.75
30
0.0
11
98.1
21
27.75
31
0.0
0
LINE
8
OUTLINE
10
98.1
20
27.75
30
0.0
11
98.1
21
23.75
31
0.0
0
LINE
8
OUTLINE
10
119.1
20
23.75
30
0.0
11
98.1
21
23.75
31
0.0
0
LINE
8
OUTLINE
10
119.1
20
23.75
30
0.0
11
98.1
21
23.75
31
0.0
0
LINE
8
OUTLINE
10
119.1
20
27.75
30
0.0
11
98.1
21
27.75
31
0.0
0
LINE
8
OUTLINE
10
119.1
20
27.75
30
0.0
11
98.1
21
27.75
31
0.0
0
TEXT
8
VIEWLABEL
10
93.6
20
-17.28
30
0.0
40
1.656
1
RIGHT SIDE ELEVATION
50
0.0
72
0.0
73
0.0
11
93.6
21
-17.28
31
0.0
0
LINE
8
OUTLINE
10
0.0
20
83.48
30
0.0
11
72.0
21
83.48
31
0.0
0
LINE
8
OUTLINE
10
72.0
20
83.48
30
0.0
11
72.0
21
83.48
31
0.0
0
LINE
8
OUTLINE
10
72.0
20
83.48
30
0.0
11
0.0
21
83.48
31
0.0
0
LINE
8
OUTLINE
10
0.0
20
83.48
30
0.0
11
0.0
21
83.48
31
0.0
0
LINE
8
OUTLINE
10
0.0
20
53.48
30
0.0
11
72.0
21
53.48
31
0.0
0
LINE
8
OUTLINE
10
72.0
20
53.48
30
0.0
11
72.0
21
53.48
31
0.0
0
LINE
8
OUTLINE
10
72.0
20
53.48
30
0.0
11
0.0
21
53.48
31
0.0
0
LINE
8
OUTLINE
10
0.0
20
53.48
30
0.0
11
0.0
21
53.48
31
0.0
0
LINE
8
OUTLINE
10
0.0
20
83.48
30
0.0
11
0.0
21
53.48
31
0.0
0
LINE
8
OUTLINE
10
72.0
20
83.48
30
0.0
11
72.0
21
53.48
31
0.0
0
LINE
8
OUTLINE
10
72.0
20
83.48
30
0.0
11
72.0
21
53.48
31
0.0
0
LINE
8
OUTLINE
10
0.0
20
83.48
30
0.0
11
0.0
21
53.48
31
0.0
0
TEXT
8
VIEWLABEL
10
0.0
20
89.24
30
0.0
40
1.656
1
PLAN
50
0.0
72
0.0
73
0.0
11
0.0
21
89.24
31
0.0
0
LINE
8
OUTLINE
10
165.724629
20
85.114473
30
0.0
11
165.724892
21
85.114398
31
0.0
0
LINE
8
OUTLINE
10
165.724892
20
85.114398
30
0.0
11
165.724892
21
86.312671
31
0.0
0
LINE
8
OUTLINE
10
165.724892
20
86.312671
30
0.0
11
114.813203
21
100.806977
31
0.0
0
LINE
8
OUTLINE
10
114.813203
20
100.806977
30
0.0
11
114.813203
21
100.806772
31
0.0
0
LINE
8
OUTLINE
10
93.6
20
93.56941
30
0.0
11
144.511688
21
79.075104
31
0.0
0
LINE
8
OUTLINE
10
144.511688
20
79.075104
30
0.0
11
144.511688
21
80.273377
31
0.0
0
LINE
8
OUTLINE
10
144.511688
20
80.273377
30
0.0
11
93.6
21
94.767683
31
0.0
0
LINE
8
OUTLINE
10
93.6
20
94.767683
30
0.0
11
93.6
21
93.56941
31
0.0
0
LINE
8
OUTLINE
10
93.600263
20
93.569485
30
0.0
11
93.6
21
93.56941
31
0.0
0
LINE
8
OUTLINE
10
165.724892
20
85.114398
30
0.0
11
144.511688
21
79.075104
31
0.0
0
LINE
8
OUTLINE
10
165.724892
20
86.312671
30
0.0
11
144.511688
21
80.273377
31
0.0
0
LINE
8
OUTLINE
10
114.813203
20
100.806977
30
0.0
11
93.6
21
94.767683
31
0.0
0
LINE
8
OUTLINE
10
117.287814
20
71.497303
30
0.0
11
117.288077
21
71.497228
31
0.0
0
LINE
8
OUTLINE
10
117.288077
20
71.497228
30
0.0
11
117.288077
21
83.595125
31
0.0
0
LINE
8
OUTLINE
10
113.752543
20
71.497228
30
0.0
11
115.52031
21
70.993953
31
0.0
0
LINE
8
OUTLINE
10
115.52031
20
70.993953
30
0.0
11
115.52031
21
84.098399
31
0.0
0
LINE
8
OUTLINE
10
113.752543
20
84.601674
30
0.0
11
113.752543
21
71.497228
31
0.0
0
LINE
8
OUTLINE
10
113.752806
20
71.497303
30
0.0
11
113.752543
21
71.497228
31
0.0
0
LINE
8
OUTLINE
10
117.288077
20
71.497228
30
0.0
11
115.52031
21
70.993953
31
0.0
0
LINE
8
OUTLINE
10
162.189095
20
58.71413
30
0.0
11
162.189358
21
58.714055
31
0.0
0
LINE
8
OUTLINE
10
162.189358
20
58.714055
30
0.0
11
162.189358
21
84.107985
31
0.0
0
LINE
8
OUTLINE
10
158.653824
20
58.714055
30
0.0
11
160.421591
21
58.21078
31
0.0
0
LINE
8
OUTLINE
10
160.421591
20
58.21078
30
0.0
11
160.421591
21
80.374168
31
0.0
0
LINE
8
OUTLINE
10
158.653824
20
79.870893
30
0.0
11
158.653824
21
58.714055
31
0.0
0
LINE
8
OUTLINE
10
158.654087
20
58.71413
30
0.0
11
158.653824
21
58.714055
31
0.0
0
LINE
8
OUTLINE
10
162.189358
20
58.714055
30
0.0
11
160.421591
21
58.21078
31
0.0
0
LINE
8
OUTLINE
10
100.670805
20
66.766522
30
0.0
11
100.671068
21
66.766447
31
0.0
0
LINE
8
OUTLINE
10
100.671068
20
66.766447
30
0.0
11
100.671068
21
88.325905
31
0.0
0
LINE
8
OUTLINE
10
97.135534
20
66.766447
30
0.0
11
98.903301
21
66.263173
31
0.0
0
LINE
8
OUTLINE
10
98.903301
20
66.263173
30
0.0
11
98.903301
21
88.82918
31
0.0
0
LINE
8
OUTLINE
10
97.135534
20
92.562997
30
0.0
11
97.135534
21
66.766447
31
0.0
0
LINE
8
OUTLINE
10
97.135797
20
66.766522
30
0.0
11
97.135534
21
66.766447
31
0.0
0
LINE
8
OUTLINE
10
100.671068
20
66.766447
30
0.0
11
98.903301
21
66.263173
31
0.0
0
LINE
8
OUTLINE
10
145.572086
20
53.983349
30
0.0
11
145.572348
21
53.983275
31
0.0
0
LINE
8
OUTLINE
10
145.572348
20
53.983275
30
0.0
11
145.572348
21
79.377205
31
0.0
0
LINE
8
OUTLINE
10
142.036815
20
53.983275
30
0.0
11
143.804581
21
53.48
31
0.0
0
LINE
8
OUTLINE
10
143.804581
20
53.48
30
0.0
11
143.804581
21
79.27655
31
0.0
0
LINE
8
OUTLINE
10
142.036815
20
79.779825
30
0.0
11
142.036815
21
53.983275
31
0.0
0
LINE
8
OUTLINE
10
142.037077
20
53.983349
30
0.0
11
142.036815
21
53.983275
31
0.0
0
LINE
8
OUTLINE
10
145.572348
20
53.983275
30
0.0
11
143.804581
21
53.48
31
0.0
0
LINE
8
OUTLINE
10
98.549747
20
88.929699
30
0.0
11
141.683261
21
76.6498
31
0.0
0
LINE
8
OUTLINE
10
141.683261
20
76.6498
30
0.0
11
141.683261
21
79.880479
31
0.0
0
LINE
8
OUTLINE
10
98.549747
20
92.160378
30
0.0
11
98.549747
21
88.929699
31
0.0
0
LINE
8
OUTLINE
10
98.55001
20
88.929773
30
0.0
11
98.549747
21
88.929699
31
0.0
0
LINE
8
OUTLINE
10
142.037077
20
76.75053
30
0.0
11
141.683261
21
76.6498
31
0.0
0
LINE
8
OUTLINE
10
161.481988
20
80.676071
30
0.0
11
161.482251
21
80.675996
31
0.0
0
LINE
8
OUTLINE
10
161.482251
20
80.675996
30
0.0
11
161.482251
21
83.906676
31
0.0
0
LINE
8
OUTLINE
10
146.102679
20
76.599473
30
0.0
11
146.633009
21
76.44849
31
0.0
0
LINE
8
OUTLINE
10
146.633009
20
76.44849
30
0.0
11
146.633009
21
79.67917
31
0.0
0
LINE
8
OUTLINE
10
146.102679
20
79.528187
30
0.0
11
146.102679
21
76.599473
31
0.0
0
LINE
8
OUTLINE
10
146.102941
20
76.599548
30
0.0
11
146.102679
21
76.599473
31
0.0
0
LINE
8
OUTLINE
10
161.482251
20
80.675996
30
0.0
11
146.633009
21
76.44849
31
0.0
0
TEXT
8
VIEWLABEL
10
93.6
20
106.566977
30
0.0
40
1.656
1
ISOMETRIC
50
0.0
72
0.0
73
0.0
11
93.6
21
106.566977
31
0.0
0
LINE
8
DIMS
10
0.0
20
0.0
30
0.0
11
0.0
21
-8.064
31
0.0
0
LINE
8
DIMS
10
72.0
20
0.0
30
0.0
11
72.0
21
-8.064
31
0.0
0
LINE
8
DIMS
10
0.0
20
-7.2
30
0.0
11
72.0
21
-7.2
31
0.0
0
SOLID
8
DIMS
10
0.0
20
-7.2
30
0.0
11
1.296
21
-7.43328
31
0.0
12
1.296
22
-6.96672
32
0.0
13
1.296
23
-6.96672
33
0.0
0
SOLID
8
DIMS
10
72.0
20
-7.2
30
0.0
11
70.704
21
-6.96672
31
0.0
12
70.704
22
-7.43328
32
0.0
13
70.704
23
-7.43328
33
0.0
0
TEXT
8
DIMS
10
36.0
20
-6.624
30
0.0
40
1.44
1
72"
50
0.0
72
1.0
73
0.0
11
36.0
21
-6.624
31
0.0
0
LINE
8
DIMS
10
0.0
20
0.0
30
0.0
11
-8.064
21
0.0
31
0.0
0
LINE
8
DIMS
10
0.0
20
29.0
30
0.0
11
-8.064
21
29.0
31
0.0
0
LINE
8
DIMS
10
-7.2
20
0.0
30
0.0
11
-7.2
21
29.0
31
0.0
0
SOLID
8
DIMS
10
-7.2
20
0.0
30
0.0
11
-6.96672
21
1.296
31
0.0
12
-7.43328
22
1.296
32
0.0
13
-7.43328
23
1.296
33
0.0
0
SOLID
8
DIMS
10
-7.2
20
29.0
30
0.0
11
-7.43328
21
27.704
31
0.0
12
-6.96672
22
27.704
32
0.0
13
-6.96672
23
27.704
33
0.0
0
TEXT
8
DIMS
10
-7.776
20
14.5
30
0.0
40
1.44
1
29"
50
90.0
72
1.0
73
0.0
11
-7.776
21
14.5
31
0.0
0
LINE
8
DIMS
10
93.6
20
0.0
30
0.0
11
93.6
21
-8.064
31
0.0
0
LINE
8
DIMS
10
123.6
20
0.0
30
0.0
11
123.6
21
-8.064
31
0.0
0
LINE
8
DIMS
10
93.6
20
-7.2
30
0.0
11
123.6
21
-7.2
31
0.0
0
SOLID
8
DIMS
10
93.6
20
-7.2
30
0.0
11
94.896
21
-7.43328
31
0.0
12
94.896
22
-6.96672
32
0.0
13
94.896
23
-6.96672
33
0.0
0
SOLID
8
DIMS
10
123.6
20
-7.2
30
0.0
11
122.304
21
-6.96672
31
0.0
12
122.304
22
-7.43328
32
0.0
13
122.304
23
-7.43328
33
0.0
0
TEXT
8
DIMS
10
108.6
20
-6.624
30
0.0
40
1.44
1
30"
50
0.0
72
1.0
73
0.0
11
108.6
21
-6.624
31
0.0
0
LINE
8
TITLE
10
-21.6
20
-42.48
30
0.0
11
174.364892
21
-42.48
31
0.0
0
LINE
8
TITLE
10
174.364892
20
-42.48
30
0.0
11
174.364892
21
123.846977
31
0.0
0
LINE
8
TITLE
10
174.364892
20
123.846977
30
0.0
11
-21.6
21
123.846977
31
0.0
0
LINE
8
TITLE
10
-21.6
20
123.846977
30
0.0
11
-21.6
21
-42.48
31
0.0
0
LINE
8
TITLE
10
113.164892
20
-42.48
30
0.0
11
174.364892
21
-42.48
31
0.0
0
LINE
8
TITLE
10
174.364892
20
-42.48
30
0.0
11
174.364892
21
-31.68
31
0.0
0
LINE
8
TITLE
10
174.364892
20
-31.68
30
0.0
11
113.164892
21
-31.68
31
0.0
0
LINE
8
TITLE
10
113.164892
20
-31.68
30
0.0
11
113.164892
21
-42.48
31
0.0
0
LINE
8
TITLE
10
113.164892
20
-39.78
30
0.0
11
174.364892
21
-39.78
31
0.0
0
LINE
8
TITLE
10
113.164892
20
-37.08
30
0.0
11
174.364892
21
-37.08
31
0.0
0
LINE
8
TITLE
10
113.164892
20
-34.38
30
0.0
11
174.364892
21
-34.38
31
0.0
0
LINE
8
TITLE
10
151.108892
20
-42.48
30
0.0
11
151.108892
21
-34.38
31
0.0
0
TEXT
8
TITLE
10
113.884892
20
-34.11
30
0.0
40
2.16
1
ARNOLD CONTRACT
50
0.0
72
0.0
73
0.0
11
113.884892
21
-34.11
31
0.0
0
TEXT
8
TITLE
10
113.884892
20
-36.45
30
0.0
40
1.44
1
PROJECT: —
50
0.0
72
0.0
73
0.0
11
113.884892
21
-36.45
31
0.0
0
TEXT
8
TITLE
10
113.884892
20
-39.15
30
0.0
40
1.44
1
ITEM: Executive desk
50
0.0
72
0.0
73
0.0
11
113.884892
21
-39.15
31
0.0
0
TEXT
8
TITLE
10
113.884892
20
-41.85
30
0.0
40
1.44
1
72" W  x  30" D  x  29" H
50
0.0
72
0.0
73
0.0
11
113.884892
21
-41.85
31
0.0
0
TEXT
8
TITLE
10
151.828892
20
-36.45
30
0.0
40
1.44
1
QUOTE: DEMO-003
50
0.0
72
0.0
73
0.0
11
151.828892
21
-36.45
31
0.0
0
TEXT
8
TITLE
10
151.828892
20
-39.15
30
0.0
40
1.44
1
ITEM No: —
50
0.0
72
0.0
73
0.0
11
151.828892
21
-39.15
31
0.0
0
TEXT
8
TITLE
10
151.828892
20
-41.85
30
0.0
40
1.44
1
DATE: 2026-08-26
50
0.0
72
0.0
73
0.0
11
151.828892
21
-41.85
31
0.0
0
TEXT
8
TITLE
10
173.644892
20
-33.75
30
0.0
40
1.44
1
FULL SIZE (1:1)
50
0.0
72
2.0
73
0.0
11
173.644892
21
-33.75
31
0.0
0
ENDSEC
0
EOF
