0
SECTION
2
HEADER
9
$ACADVER
1
AC1009
9
$INSUNITS
70
1.0
9
$MEASUREMENT
70
0.0
0
ENDSEC
0
SECTION
2
TABLES
0
TABLE
2
LAYER
70
6.0
0
LAYER
2
OUTLINE
70
0.0
62
7.0
6
CONTINUOUS
0
LAYER
2
DETAIL
70
0.0
62
8.0
6
CONTINUOUS
0
LAYER
2
DIMS
70
0.0
62
3.0
6
CONTINUOUS
0
LAYER
2
TEXT
70
0.0
62
4.0
6
CONTINUOUS
0
LAYER
2
TITLE
70
0.0
62
7.0
6
CONTINUOUS
0
LAYER
2
VIEWLABEL
70
0.0
62
2.0
6
CONTINUOUS
0
ENDTAB
0
ENDSEC
0
SECTION
2
ENTITIES
0
LINE
8
OUTLINE
10
0.0
20
27.5
30
0.0
11
120.0
21
27.5
31
0.0
0
LINE
8
OUTLINE
10
120.0
20
27.5
30
0.0
11
120.0
21
29.0
31
0.0
0
LINE
8
OUTLINE
10
120.0
20
29.0
30
0.0
11
0.0
21
29.0
31
0.0
0
LINE
8
OUTLINE
10
0.0
20
29.0
30
0.0
11
0.0
21
27.5
31
0.0
0
LINE
8
OUTLINE
10
0.0
20
27.5
30
0.0
11
120.0
21
27.5
31
0.0
0
LINE
8
OUTLINE
10
120.0
20
27.5
30
0.0
11
120.0
21
29.0
31
0.0
0
LINE
8
OUTLINE
10
120.0
20
29.0
30
0.0
11
0.0
21
29.0
31
0.0
0
LINE
8
OUTLINE
10
0.0
20
29.0
30
0.0
11
0.0
21
27.5
31
0.0
0
LINE
8
OUTLINE
10
0.0
20
27.5
30
0.0
11
0.0
21
27.5
31
0.0
0
LINE
8
OUTLINE
10
120.0
20
27.5
30
0.0
11
120.0
21
27.5
31
0.0
0
LINE
8
OUTLINE
10
120.0
20
29.0
30
0.0
11
120.0
21
29.0
31
0.0
0
LINE
8
OUTLINE
10
0.0
20
29.0
30
0.0
11
0.0
21
29.0
31
0.0
0
LINE
8
OUTLINE
10
12.0
20
0.0
30
0.0
11
13.5
21
0.0
31
0.0
0
LINE
8
OUTLINE
10
13.5
20
0.0
30
0.0
11
13.5
21
27.5
31
0.0
0
LINE
8
OUTLINE
10
13.5
20
27.5
30
0.0
11
12.0
21
27.5
31
0.0
0
LINE
8
OUTLINE
10
12.0
20
27.5
30
0.0
11
12.0
21
0.0
31
0.0
0
LINE
8
OUTLINE
10
12.0
20
0.0
30
0.0
11
13.5
21
0.0
31
0.0
0
LINE
8
OUTLINE
10
13.5
20
0.0
30
0.0
11
13.5
21
27.5
31
0.0
0
LINE
8
OUTLINE
10
13.5
20
27.5
30
0.0
11
12.0
21
27.5
31
0.0
0
LINE
8
OUTLINE
10
12.0
20
27.5
30
0.0
11
12.0
21
0.0
31
0.0
0
LINE
8
OUTLINE
10
12.0
20
0.0
30
0.0
11
12.0
21
0.0
31
0.0
0
LINE
8
OUTLINE
10
13.5
20
0.0
30
0.0
11
13.5
21
0.0
31
0.0
0
LINE
8
OUTLINE
10
13.5
20
27.5
30
0.0
11
13.5
21
27.5
31
0.0
0
LINE
8
OUTLINE
10
12.0
20
27.5
30
0.0
11
12.0
21
27.5
31
0.0
0
LINE
8
OUTLINE
10
106.5
20
0.0
30
0.0
11
108.0
21
0.0
31
0.0
0
LINE
8
OUTLINE
10
108.0
20
0.0
30
0.0
11
108.0
21
27.5
31
0.0
0
LINE
8
OUTLINE
10
108.0
20
27.5
30
0.0
11
106.5
21
27.5
31
0.0
0
LINE
8
OUTLINE
10
106.5
20
27.5
30
0.0
11
106.5
21
0.0
31
0.0
0
LINE
8
OUTLINE
10
106.5
20
0.0
30
0.0
11
108.0
21
0.0
31
0.0
0
LINE
8
OUTLINE
10
108.0
20
0.0
30
0.0
11
108.0
21
27.5
31
0.0
0
LINE
8
OUTLINE
10
108.0
20
27.5
30
0.0
11
106.5
21
27.5
31
0.0
0
LINE
8
OUTLINE
10
106.5
20
27.5
30
0.0
11
106.5
21
0.0
31
0.0
0
LINE
8
OUTLINE
10
106.5
20
0.0
30
0.0
11
106.5
21
0.0
31
0.0
0
LINE
8
OUTLINE
10
108.0
20
0.0
30
0.0
11
108.0
21
0.0
31
0.0
0
LINE
8
OUTLINE
10
108.0
20
27.5
30
0.0
11
108.0
21
27.5
31
0.0
0
LINE
8
OUTLINE
10
106.5
20
27.5
30
0.0
11
106.5
21
27.5
31
0.0
0
LINE
8
OUTLINE
10
13.5
20
6.5
30
0.0
11
106.5
21
6.5
31
0.0
0
LINE
8
OUTLINE
10
106.5
20
6.5
30
0.0
11
106.5
21
9.5
31
0.0
0
LINE
8
OUTLINE
10
106.5
20
9.5
30
0.0
11
13.5
21
9.5
31
0.0
0
LINE
8
OUTLINE
10
13.5
20
9.5
30
0.0
11
13.5
21
6.5
31
0.0
0
LINE
8
OUTLINE
10
13.5
20
6.5
30
0.0
11
106.5
21
6.5
31
0.0
0
LINE
8
OUTLINE
10
106.5
20
6.5
30
0.0
11
106.5
21
9.5
31
0.0
0
LINE
8
OUTLINE
10
106.5
20
9.5
30
0.0
11
13.5
21
9.5
31
0.0
0
LINE
8
OUTLINE
10
13.5
20
9.5
30
0.0
11
13.5
21
6.5
31
0.0
0
LINE
8
OUTLINE
10
13.5
20
6.5
30
0.0
11
13.5
21
6.5
31
0.0
0
LINE
8
OUTLINE
10
106.5
20
6.5
30
0.0
11
106.5
21
6.5
31
0.0
0
LINE
8
OUTLINE
10
106.5
20
9.5
30
0.0
11
106.5
21
9.5
31
0.0
0
LINE
8
OUTLINE
10
13.5
20
9.5
30
0.0
11
13.5
21
9.5
31
0.0
0
TEXT
8
VIEWLABEL
10
0.0
20
-28.8
30
0.0
40
2.76
1
FRONT ELEVATION
50
0.0
72
0.0
73
0.0
11
0.0
21
-28.8
31
0.0
0
LINE
8
OUTLINE
10
204.0
20
27.5
30
0.0
11
204.0
21
27.5
31
0.0
0
LINE
8
OUTLINE
10
204.0
20
27.5
30
0.0
11
204.0
21
29.0
31
0.0
0
LINE
8
OUTLINE
10
204.0
20
29.0
30
0.0
11
204.0
21
29.0
31
0.0
0
LINE
8
OUTLINE
10
204.0
20
29.0
30
0.0
11
204.0
21
27.5
31
0.0
0
LINE
8
OUTLINE
10
156.0
20
27.5
30
0.0
11
156.0
21
27.5
31
0.0
0
LINE
8
OUTLINE
10
156.0
20
27.5
30
0.0
11
156.0
21
29.0
31
0.0
0
LINE
8
OUTLINE
10
156.0
20
29.0
30
0.0
11
156.0
21
29.0
31
0.0
0
LINE
8
OUTLINE
10
156.0
20
29.0
30
0.0
11
156.0
21
27.5
31
0.0
0
LINE
8
OUTLINE
10
204.0
20
27.5
30
0.0
11
156.0
21
27.5
31
0.0
0
LINE
8
OUTLINE
10
204.0
20
27.5
30
0.0
11
156.0
21
27.5
31
0.0
0
LINE
8
OUTLINE
10
204.0
20
29.0
30
0.0
11
156.0
21
29.0
31
0.0
0
LINE
8
OUTLINE
10
204.0
20
29.0
30
0.0
11
156.0
21
29.0
31
0.0
0
LINE
8
OUTLINE
10
196.0
20
0.0
30
0.0
11
196.0
21
0.0
31
0.0
0
LINE
8
OUTLINE
10
196.0
20
0.0
30
0.0
11
196.0
21
27.5
31
0.0
0
LINE
8
OUTLINE
10
196.0
20
27.5
30
0.0
11
196.0
21
27.5
31
0.0
0
LINE
8
OUTLINE
10
196.0
20
27.5
30
0.0
11
196.0
21
0.0
31
0.0
0
LINE
8
OUTLINE
10
164.0
20
0.0
30
0.0
11
164.0
21
0.0
31
0.0
0
LINE
8
OUTLINE
10
164.0
20
0.0
30
0.0
11
164.0
21
27.5
31
0.0
0
LINE
8
OUTLINE
10
164.0
20
27.5
30
0.0
11
164.0
21
27.5
31
0.0
0
LINE
8
OUTLINE
10
164.0
20
27.5
30
0.0
11
164.0
21
0.0
31
0.0
0
LINE
8
OUTLINE
10
196.0
20
0.0
30
0.0
11
164.0
21
0.0
31
0.0
0
LINE
8
OUTLINE
10
196.0
20
0.0
30
0.0
11
164.0
21
0.0
31
0.0
0
LINE
8
OUTLINE
10
196.0
20
27.5
30
0.0
11
164.0
21
27.5
31
0.0
0
LINE
8
OUTLINE
10
196.0
20
27.5
30
0.0
11
164.0
21
27.5
31
0.0
0
LINE
8
OUTLINE
10
196.0
20
0.0
30
0.0
11
196.0
21
0.0
31
0.0
0
LINE
8
OUTLINE
10
196.0
20
0.0
30
0.0
11
196.0
21
27.5
31
0.0
0
LINE
8
OUTLINE
10
196.0
20
27.5
30
0.0
11
196.0
21
27.5
31
0.0
0
LINE
8
OUTLINE
10
196.0
20
27.5
30
0.0
11
196.0
21
0.0
31
0.0
0
LINE
8
OUTLINE
10
164.0
20
0.0
30
0.0
11
164.0
21
0.0
31
0.0
0
LINE
8
OUTLINE
10
164.0
20
0.0
30
0.0
11
164.0
21
27.5
31
0.0
0
LINE
8
OUTLINE
10
164.0
20
27.5
30
0.0
11
164.0
21
27.5
31
0.0
0
LINE
8
OUTLINE
10
164.0
20
27.5
30
0.0
11
164.0
21
0.0
31
0.0
0
LINE
8
OUTLINE
10
196.0
20
0.0
30
0.0
11
164.0
21
0.0
31
0.0
0
LINE
8
OUTLINE
10
196.0
20
0.0
30
0.0
11
164.0
21
0.0
31
0.0
0
LINE
8
OUTLINE
10
196.0
20
27.5
30
0.0
11
164.0
21
27.5
31
0.0
0
LINE
8
OUTLINE
10
196.0
20
27.5
30
0.0
11
164.0
21
27.5
31
0.0
0
TEXT
8
VIEWLABEL
10
156.0
20
-28.8
30
0.0
40
2.76
1
RIGHT SIDE ELEVATION
50
0.0
72
0.0
73
0.0
11
156.0
21
-28.8
31
0.0
0
LINE
8
OUTLINE
10
0.0
20
117.8
30
0.0
11
120.0
21
117.8
31
0.0
0
LINE
8
OUTLINE
10
120.0
20
117.8
30
0.0
11
120.0
21
117.8
31
0.0
0
LINE
8
OUTLINE
10
120.0
20
117.8
30
0.0
11
0.0
21
117.8
31
0.0
0
LINE
8
OUTLINE
10
0.0
20
117.8
30
0.0
11
0.0
21
117.8
31
0.0
0
LINE
8
OUTLINE
10
0.0
20
69.8
30
0.0
11
120.0
21
69.8
31
0.0
0
LINE
8
OUTLINE
10
120.0
20
69.8
30
0.0
11
120.0
21
69.8
31
0.0
0
LINE
8
OUTLINE
10
120.0
20
69.8
30
0.0
11
0.0
21
69.8
31
0.0
0
LINE
8
OUTLINE
10
0.0
20
69.8
30
0.0
11
0.0
21
69.8
31
0.0
0
LINE
8
OUTLINE
10
0.0
20
117.8
30
0.0
11
0.0
21
69.8
31
0.0
0
LINE
8
OUTLINE
10
120.0
20
117.8
30
0.0
11
120.0
21
69.8
31
0.0
0
LINE
8
OUTLINE
10
120.0
20
117.8
30
0.0
11
120.0
21
69.8
31
0.0
0
LINE
8
OUTLINE
10
0.0
20
117.8
30
0.0
11
0.0
21
69.8
31
0.0
0
TEXT
8
VIEWLABEL
10
0.0
20
127.4
30
0.0
40
2.76
1
PLAN
50
0.0
72
0.0
73
0.0
11
0.0
21
127.4
31
0.0
0
LINE
8
OUTLINE
10
274.793676
20
101.798748
30
0.0
11
274.793939
21
101.798673
31
0.0
0
LINE
8
OUTLINE
10
274.793939
20
101.798673
30
0.0
11
274.793939
21
103.2366
31
0.0
0
LINE
8
OUTLINE
10
274.793939
20
103.2366
30
0.0
11
189.941125
21
127.393777
31
0.0
0
LINE
8
OUTLINE
10
189.941125
20
127.393777
30
0.0
11
189.941125
21
127.393572
31
0.0
0
LINE
8
OUTLINE
10
156.0
20
116.292979
30
0.0
11
240.852814
21
92.135802
31
0.0
0
LINE
8
OUTLINE
10
240.852814
20
92.135802
30
0.0
11
240.852814
21
93.57373
31
0.0
0
LINE
8
OUTLINE
10
240.852814
20
93.57373
30
0.0
11
156.0
21
117.730907
31
0.0
0
LINE
8
OUTLINE
10
156.0
20
117.730907
30
0.0
11
156.0
21
116.292979
31
0.0
0
LINE
8
OUTLINE
10
156.000263
20
116.293054
30
0.0
11
156.0
21
116.292979
31
0.0
0
LINE
8
OUTLINE
10
274.793939
20
101.798673
30
0.0
11
240.852814
21
92.135802
31
0.0
0
LINE
8
OUTLINE
10
274.793939
20
103.2366
30
0.0
11
240.852814
21
93.57373
31
0.0
0
LINE
8
OUTLINE
10
189.941125
20
127.393777
30
0.0
11
156.0
21
117.730907
31
0.0
0
LINE
8
OUTLINE
10
193.830213
20
98.534442
30
0.0
11
193.830213
21
105.523041
31
0.0
0
LINE
8
OUTLINE
10
170.142136
20
89.125742
30
0.0
11
171.202796
21
88.823777
31
0.0
0
LINE
8
OUTLINE
10
171.202796
20
88.823777
30
0.0
11
171.202796
21
111.964955
31
0.0
0
LINE
8
OUTLINE
10
170.142136
20
112.266919
30
0.0
11
170.142136
21
89.125742
31
0.0
0
LINE
8
OUTLINE
10
170.142399
20
89.125816
30
0.0
11
170.142136
21
89.125742
31
0.0
0
LINE
8
OUTLINE
10
192.399402
20
94.858346
30
0.0
11
171.202796
21
88.823777
31
0.0
0
LINE
8
OUTLINE
10
260.651541
20
76.241989
30
0.0
11
260.651804
21
76.241914
31
0.0
0
LINE
8
OUTLINE
10
260.651804
20
76.241914
30
0.0
11
260.651804
21
97.772613
31
0.0
0
LINE
8
OUTLINE
10
236.963726
20
70.101965
30
0.0
11
238.024387
21
69.8
31
0.0
0
LINE
8
OUTLINE
10
238.024387
20
69.8
30
0.0
11
238.024387
21
92.941178
31
0.0
0
LINE
8
OUTLINE
10
236.963726
20
93.243143
30
0.0
11
236.963726
21
70.101965
31
0.0
0
LINE
8
OUTLINE
10
236.963989
20
70.10204
30
0.0
11
236.963726
21
70.101965
31
0.0
0
LINE
8
OUTLINE
10
260.651804
20
76.241914
30
0.0
11
238.024387
21
69.8
31
0.0
0
LINE
8
OUTLINE
10
236.963868
20
86.25464
30
0.0
11
183.577164
21
101.453571
31
0.0
0
LINE
8
OUTLINE
10
183.577164
20
101.453571
30
0.0
11
183.577164
21
101.453365
31
0.0
0
LINE
8
OUTLINE
10
181.455844
20
97.973787
30
0.0
11
236.963868
21
82.170927
31
0.0
0
LINE
8
OUTLINE
10
236.963868
20
85.046781
30
0.0
11
181.455844
21
100.849641
31
0.0
0
LINE
8
OUTLINE
10
181.455844
20
100.849641
30
0.0
11
181.455844
21
97.973787
31
0.0
0
LINE
8
OUTLINE
10
181.456107
20
97.973862
30
0.0
11
181.455844
21
97.973787
31
0.0
0
LINE
8
OUTLINE
10
183.577164
20
101.453571
30
0.0
11
181.455844
21
100.849641
31
0.0
0
TEXT
8
VIEWLABEL
10
156.0
20
136.993777
30
0.0
40
2.76
1
ISOMETRIC
50
0.0
72
0.0
73
0.0
11
156.0
21
136.993777
31
0.0
0
LINE
8
DIMS
10
0.0
20
0.0
30
0.0
11
0.0
21
-13.44
31
0.0
0
LINE
8
DIMS
10
120.0
20
0.0
30
0.0
11
120.0
21
-13.44
31
0.0
0
LINE
8
DIMS
10
0.0
20
-12.0
30
0.0
11
120.0
21
-12.0
31
0.0
0
SOLID
8
DIMS
10
0.0
20
-12.0
30
0.0
11
2.16
21
-12.3888
31
0.0
12
2.16
22
-11.6112
32
0.0
13
2.16
23
-11.6112
33
0.0
0
SOLID
8
DIMS
10
120.0
20
-12.0
30
0.0
11
117.84
21
-11.6112
31
0.0
12
117.84
22
-12.3888
32
0.0
13
117.84
23
-12.3888
33
0.0
0
TEXT
8
DIMS
10
60.0
20
-11.04
30
0.0
40
2.4
1
120"
50
0.0
72
1.0
73
0.0
11
60.0
21
-11.04
31
0.0
0
LINE
8
DIMS
10
0.0
20
0.0
30
0.0
11
-13.44
21
0.0
31
0.0
0
LINE
8
DIMS
10
0.0
20
29.0
30
0.0
11
-13.44
21
29.0
31
0.0
0
LINE
8
DIMS
10
-12.0
20
0.0
30
0.0
11
-12.0
21
29.0
31
0.0
0
SOLID
8
DIMS
10
-12.0
20
0.0
30
0.0
11
-11.6112
21
2.16
31
0.0
12
-12.3888
22
2.16
32
0.0
13
-12.3888
23
2.16
33
0.0
0
SOLID
8
DIMS
10
-12.0
20
29.0
30
0.0
11
-12.3888
21
26.84
31
0.0
12
-11.6112
22
26.84
32
0.0
13
-11.6112
23
26.84
33
0.0
0
TEXT
8
DIMS
10
-12.96
20
14.5
30
0.0
40
2.4
1
29"
50
90.0
72
1.0
73
0.0
11
-12.96
21
14.5
31
0.0
0
LINE
8
DIMS
10
156.0
20
0.0
30
0.0
11
156.0
21
-13.44
31
0.0
0
LINE
8
DIMS
10
204.0
20
0.0
30
0.0
11
204.0
21
-13.44
31
0.0
0
LINE
8
DIMS
10
156.0
20
-12.0
30
0.0
11
204.0
21
-12.0
31
0.0
0
SOLID
8
DIMS
10
156.0
20
-12.0
30
0.0
11
158.16
21
-12.3888
31
0.0
12
158.16
22
-11.6112
32
0.0
13
158.16
23
-11.6112
33
0.0
0
SOLID
8
DIMS
10
204.0
20
-12.0
30
0.0
11
201.84
21
-11.6112
31
0.0
12
201.84
22
-12.3888
32
0.0
13
201.84
23
-12.3888
33
0.0
0
TEXT
8
DIMS
10
180.0
20
-11.04
30
0.0
40
2.4
1
48"
50
0.0
72
1.0
73
0.0
11
180.0
21
-11.04
31
0.0
0
LINE
8
TITLE
10
-36.0
20
-70.8
30
0.0
11
289.193939
21
-70.8
31
0.0
0
LINE
8
TITLE
10
289.193939
20
-70.8
30
0.0
11
289.193939
21
165.793777
31
0.0
0
LINE
8
TITLE
10
289.193939
20
165.793777
30
0.0
11
-36.0
21
165.793777
31
0.0
0
LINE
8
TITLE
10
-36.0
20
165.793777
30
0.0
11
-36.0
21
-70.8
31
0.0
0
LINE
8
TITLE
10
187.193939
20
-70.8
30
0.0
11
289.193939
21
-70.8
31
0.0
0
LINE
8
TITLE
10
289.193939
20
-70.8
30
0.0
11
289.193939
21
-52.8
31
0.0
0
LINE
8
TITLE
10
289.193939
20
-52.8
30
0.0
11
187.193939
21
-52.8
31
0.0
0
LINE
8
TITLE
10
187.193939
20
-52.8
30
0.0
11
187.193939
21
-70.8
31
0.0
0
LINE
8
TITLE
10
187.193939
20
-66.3
30
0.0
11
289.193939
21
-66.3
31
0.0
0
LINE
8
TITLE
10
187.193939
20
-61.8
30
0.0
11
289.193939
21
-61.8
31
0.0
0
LINE
8
TITLE
10
187.193939
20
-57.3
30
0.0
11
289.193939
21
-57.3
31
0.0
0
LINE
8
TITLE
10
250.433939
20
-70.8
30
0.0
11
250.433939
21
-57.3
31
0.0
0
TEXT
8
TITLE
10
188.393939
20
-56.85
30
0.0
40
3.6
1
ARNOLD CONTRACT
50
0.0
72
0.0
73
0.0
11
188.393939
21
-56.85
31
0.0
0
TEXT
8
TITLE
10
188.393939
20
-60.75
30
0.0
40
2.4
1
PROJECT: Sample Client
50
0.0
72
0.0
73
0.0
11
188.393939
21
-60.75
31
0.0
0
TEXT
8
TITLE
10
188.393939
20
-65.25
30
0.0
40
2.4
1
ITEM: Conference table 10ft
50
0.0
72
0.0
73
0.0
11
188.393939
21
-65.25
31
0.0
0
TEXT
8
TITLE
10
188.393939
20
-69.75
30
0.0
40
2.4
1
120" W  x  48" D  x  29" H
50
0.0
72
0.0
73
0.0
11
188.393939
21
-69.75
31
0.0
0
TEXT
8
TITLE
10
251.633939
20
-60.75
30
0.0
40
2.4
1
QUOTE: DEMO-002
50
0.0
72
0.0
73
0.0
11
251.633939
21
-60.75
31
0.0
0
TEXT
8
TITLE
10
251.633939
20
-65.25
30
0.0
40
2.4
1
ITEM No: 2
50
0.0
72
0.0
73
0.0
11
251.633939
21
-65.25
31
0.0
0
TEXT
8
TITLE
10
251.633939
20
-69.75
30
0.0
40
2.4
1
DATE: 2026-08-26
50
0.0
72
0.0
73
0.0
11
251.633939
21
-69.75
31
0.0
0
TEXT
8
TITLE
10
287.993939
20
-56.25
30
0.0
40
2.4
1
FULL SIZE (1:1)
50
0.0
72
2.0
73
0.0
11
287.993939
21
-56.25
31
0.0
0
ENDSEC
0
EOF
