0
SECTION
2
HEADER
9
$ACADVER
1
AC1009
9
$INSUNITS
70
1.0
9
$MEASUREMENT
70
0.0
0
ENDSEC
0
SECTION
2
TABLES
0
TABLE
2
LAYER
70
6.0
0
LAYER
2
OUTLINE
70
0.0
62
7.0
6
CONTINUOUS
0
LAYER
2
DETAIL
70
0.0
62
8.0
6
CONTINUOUS
0
LAYER
2
DIMS
70
0.0
62
3.0
6
CONTINUOUS
0
LAYER
2
TEXT
70
0.0
62
4.0
6
CONTINUOUS
0
LAYER
2
TITLE
70
0.0
62
7.0
6
CONTINUOUS
0
LAYER
2
VIEWLABEL
70
0.0
62
2.0
6
CONTINUOUS
0
ENDTAB
0
ENDSEC
0
SECTION
2
ENTITIES
0
LINE
8
OUTLINE
10
0.0
20
27.5
30
0.0
11
120.0
21
27.5
31
0.0
0
LINE
8
OUTLINE
10
120.0
20
27.5
30
0.0
11
120.0
21
29.0
31
0.0
0
LINE
8
OUTLINE
10
120.0
20
29.0
30
0.0
11
0.0
21
29.0
31
0.0
0
LINE
8
OUTLINE
10
0.0
20
29.0
30
0.0
11
0.0
21
27.5
31
0.0
0
LINE
8
OUTLINE
10
0.0
20
27.5
30
0.0
11
120.0
21
27.5
31
0.0
0
LINE
8
OUTLINE
10
120.0
20
27.5
30
0.0
11
120.0
21
29.0
31
0.0
0
LINE
8
OUTLINE
10
120.0
20
29.0
30
0.0
11
0.0
21
29.0
31
0.0
0
LINE
8
OUTLINE
10
0.0
20
29.0
30
0.0
11
0.0
21
27.5
31
0.0
0
LINE
8
OUTLINE
10
0.0
20
27.5
30
0.0
11
0.0
21
27.5
31
0.0
0
LINE
8
OUTLINE
10
120.0
20
27.5
30
0.0
11
120.0
21
27.5
31
0.0
0
LINE
8
OUTLINE
10
120.0
20
29.0
30
0.0
11
120.0
21
29.0
31
0.0
0
LINE
8
OUTLINE
10
0.0
20
29.0
30
0.0
11
0.0
21
29.0
31
0.0
0
LINE
8
OUTLINE
10
12.0
20
0.0
30
0.0
11
13.5
21
0.0
31
0.0
0
LINE
8
OUTLINE
10
13.5
20
0.0
30
0.0
11
13.5
21
27.5
31
0.0
0
LINE
8
OUTLINE
10
13.5
20
27.5
30
0.0
11
12.0
21
27.5
31
0.0
0
LINE
8
OUTLINE
10
12.0
20
27.5
30
0.0
11
12.0
21
0.0
31
0.0
0
LINE
8
OUTLINE
10
12.0
20
0.0
30
0.0
11
13.5
21
0.0
31
0.0
0
LINE
8
OUTLINE
10
13.5
20
0.0
30
0.0
11
13.5
21
27.5
31
0.0
0
LINE
8
OUTLINE
10
13.5
20
27.5
30
0.0
11
12.0
21
27.5
31
0.0
0
LINE
8
OUTLINE
10
12.0
20
27.5
30
0.0
11
12.0
21
0.0
31
0.0
0
LINE
8
OUTLINE
10
12.0
20
0.0
30
0.0
11
12.0
21
0.0
31
0.0
0
LINE
8
OUTLINE
10
13.5
20
0.0
30
0.0
11
13.5
21
0.0
31
0.0
0
LINE
8
OUTLINE
10
13.5
20
27.5
30
0.0
11
13.5
21
27.5
31
0.0
0
LINE
8
OUTLINE
10
12.0
20
27.5
30
0.0
11
12.0
21
27.5
31
0.0
0
LINE
8
OUTLINE
10
106.5
20
0.0
30
0.0
11
108.0
21
0.0
31
0.0
0
LINE
8
OUTLINE
10
108.0
20
0.0
30
0.0
11
108.0
21
27.5
31
0.0
0
LINE
8
OUTLINE
10
108.0
20
27.5
30
0.0
11
106.5
21
27.5
31
0.0
0
LINE
8
OUTLINE
10
106.5
20
27.5
30
0.0
11
106.5
21
0.0
31
0.0
0
LINE
8
OUTLINE
10
106.5
20
0.0
30
0.0
11
108.0
21
0.0
31
0.0
0
LINE
8
OUTLINE
10
108.0
20
0.0
30
0.0
11
108.0
21
27.5
31
0.0
0
LINE
8
OUTLINE
10
108.0
20
27.5
30
0.0
11
106.5
21
27.5
31
0.0
0
LINE
8
OUTLINE
10
106.5
20
27.5
30
0.0
11
106.5
21
0.0
31
0.0
0
LINE
8
OUTLINE
10
106.5
20
0.0
30
0.0
11
106.5
21
0.0
31
0.0
0
LINE
8
OUTLINE
10
108.0
20
0.0
30
0.0
11
108.0
21
0.0
31
0.0
0
LINE
8
OUTLINE
10
108.0
20
27.5
30
0.0
11
108.0
21
27.5
31
0.0
0
LINE
8
OUTLINE
10
106.5
20
27.5
30
0.0
11
106.5
21
27.5
31
0.0
0
LINE
8
OUTLINE
10
13.5
20
6.62
30
0.0
11
106.5
21
6.62
31
0.0
0
LINE
8
OUTLINE
10
106.5
20
6.62
30
0.0
11
106.5
21
9.62
31
0.0
0
LINE
8
OUTLINE
10
106.5
20
9.62
30
0.0
11
13.5
21
9.62
31
0.0
0
LINE
8
OUTLINE
10
13.5
20
9.62
30
0.0
11
13.5
21
6.62
31
0.0
0
LINE
8
OUTLINE
10
13.5
20
6.62
30
0.0
11
106.5
21
6.62
31
0.0
0
LINE
8
OUTLINE
10
106.5
20
6.62
30
0.0
11
106.5
21
9.62
31
0.0
0
LINE
8
OUTLINE
10
106.5
20
9.62
30
0.0
11
13.5
21
9.62
31
0.0
0
LINE
8
OUTLINE
10
13.5
20
9.62
30
0.0
11
13.5
21
6.62
31
0.0
0
LINE
8
OUTLINE
10
13.5
20
6.62
30
0.0
11
13.5
21
6.62
31
0.0
0
LINE
8
OUTLINE
10
106.5
20
6.62
30
0.0
11
106.5
21
6.62
31
0.0
0
LINE
8
OUTLINE
10
106.5
20
9.62
30
0.0
11
106.5
21
9.62
31
0.0
0
LINE
8
OUTLINE
10
13.5
20
9.62
30
0.0
11
13.5
21
9.62
31
0.0
0
TEXT
8
VIEWLABEL
10
0.0
20
-28.8
30
0.0
40
2.76
1
FRONT ELEVATION
50
0.0
72
0.0
73
0.0
11
0.0
21
-28.8
31
0.0
0
LINE
8
OUTLINE
10
204.0
20
27.5
30
0.0
11
204.0
21
27.5
31
0.0
0
LINE
8
OUTLINE
10
204.0
20
27.5
30
0.0
11
204.0
21
29.0
31
0.0
0
LINE
8
OUTLINE
10
204.0
20
29.0
30
0.0
11
204.0
21
29.0
31
0.0
0
LINE
8
OUTLINE
10
204.0
20
29.0
30
0.0
11
204.0
21
27.5
31
0.0
0
LINE
8
OUTLINE
10
156.0
20
27.5
30
0.0
11
156.0
21
27.5
31
0.0
0
LINE
8
OUTLINE
10
156.0
20
27.5
30
0.0
11
156.0
21
29.0
31
0.0
0
LINE
8
OUTLINE
10
156.0
20
29.0
30
0.0
11
156.0
21
29.0
31
0.0
0
LINE
8
OUTLINE
10
156.0
20
29.0
30
0.0
11
156.0
21
27.5
31
0.0
0
LINE
8
OUTLINE
10
204.0
20
27.5
30
0.0
11
156.0
21
27.5
31
0.0
0
LINE
8
OUTLINE
10
204.0
20
27.5
30
0.0
11
156.0
21
27.5
31
0.0
0
LINE
8
OUTLINE
10
204.0
20
29.0
30
0.0
11
156.0
21
29.0
31
0.0
0
LINE
8
OUTLINE
10
204.0
20
29.0
30
0.0
11
156.0
21
29.0
31
0.0
0
LINE
8
OUTLINE
10
196.8
20
0.0
30
0.0
11
196.8
21
0.0
31
0.0
0
LINE
8
OUTLINE
10
196.8
20
0.0
30
0.0
11
196.8
21
27.5
31
0.0
0
LINE
8
OUTLINE
10
196.8
20
27.5
30
0.0
11
196.8
21
27.5
31
0.0
0
LINE
8
OUTLINE
10
196.8
20
27.5
30
0.0
11
196.8
21
0.0
31
0.0
0
LINE
8
OUTLINE
10
163.2
20
0.0
30
0.0
11
163.2
21
0.0
31
0.0
0
LINE
8
OUTLINE
10
163.2
20
0.0
30
0.0
11
163.2
21
27.5
31
0.0
0
LINE
8
OUTLINE
10
163.2
20
27.5
30
0.0
11
163.2
21
27.5
31
0.0
0
LINE
8
OUTLINE
10
163.2
20
27.5
30
0.0
11
163.2
21
0.0
31
0.0
0
LINE
8
OUTLINE
10
196.8
20
0.0
30
0.0
11
163.2
21
0.0
31
0.0
0
LINE
8
OUTLINE
10
196.8
20
0.0
30
0.0
11
163.2
21
0.0
31
0.0
0
LINE
8
OUTLINE
10
196.8
20
27.5
30
0.0
11
163.2
21
27.5
31
0.0
0
LINE
8
OUTLINE
10
196.8
20
27.5
30
0.0
11
163.2
21
27.5
31
0.0
0
LINE
8
OUTLINE
10
196.8
20
0.0
30
0.0
11
196.8
21
0.0
31
0.0
0
LINE
8
OUTLINE
10
196.8
20
0.0
30
0.0
11
196.8
21
27.5
31
0.0
0
LINE
8
OUTLINE
10
196.8
20
27.5
30
0.0
11
196.8
21
27.5
31
0.0
0
LINE
8
OUTLINE
10
196.8
20
27.5
30
0.0
11
196.8
21
0.0
31
0.0
0
LINE
8
OUTLINE
10
163.2
20
0.0
30
0.0
11
163.2
21
0.0
31
0.0
0
LINE
8
OUTLINE
10
163.2
20
0.0
30
0.0
11
163.2
21
27.5
31
0.0
0
LINE
8
OUTLINE
10
163.2
20
27.5
30
0.0
11
163.2
21
27.5
31
0.0
0
LINE
8
OUTLINE
10
163.2
20
27.5
30
0.0
11
163.2
21
0.0
31
0.0
0
LINE
8
OUTLINE
10
196.8
20
0.0
30
0.0
11
163.2
21
0.0
31
0.0
0
LINE
8
OUTLINE
10
196.8
20
0.0
30
0.0
11
163.2
21
0.0
31
0.0
0
LINE
8
OUTLINE
10
196.8
20
27.5
30
0.0
11
163.2
21
27.5
31
0.0
0
LINE
8
OUTLINE
10
196.8
20
27.5
30
0.0
11
163.2
21
27.5
31
0.0
0
TEXT
8
VIEWLABEL
10
156.0
20
-28.8
30
0.0
40
2.76
1
RIGHT SIDE ELEVATION
50
0.0
72
0.0
73
0.0
11
156.0
21
-28.8
31
0.0
0
LINE
8
OUTLINE
10
0.0
20
117.8
30
0.0
11
120.0
21
117.8
31
0.0
0
LINE
8
OUTLINE
10
120.0
20
117.8
30
0.0
11
120.0
21
117.8
31
0.0
0
LINE
8
OUTLINE
10
120.0
20
117.8
30
0.0
11
0.0
21
117.8
31
0.0
0
LINE
8
OUTLINE
10
0.0
20
117.8
30
0.0
11
0.0
21
117.8
31
0.0
0
LINE
8
OUTLINE
10
0.0
20
69.8
30
0.0
11
120.0
21
69.8
31
0.0
0
LINE
8
OUTLINE
10
120.0
20
69.8
30
0.0
11
120.0
21
69.8
31
0.0
0
LINE
8
OUTLINE
10
120.0
20
69.8
30
0.0
11
0.0
21
69.8
31
0.0
0
LINE
8
OUTLINE
10
0.0
20
69.8
30
0.0
11
0.0
21
69.8
31
0.0
0
LINE
8
OUTLINE
10
0.0
20
117.8
30
0.0
11
0.0
21
69.8
31
0.0
0
LINE
8
OUTLINE
10
120.0
20
117.8
30
0.0
11
120.0
21
69.8
31
0.0
0
LINE
8
OUTLINE
10
120.0
20
117.8
30
0.0
11
120.0
21
69.8
31
0.0
0
LINE
8
OUTLINE
10
0.0
20
117.8
30
0.0
11
0.0
21
69.8
31
0.0
0
TEXT
8
VIEWLABEL
10
0.0
20
127.4
30
0.0
40
2.76
1
PLAN
50
0.0
72
0.0
73
0.0
11
0.0
21
127.4
31
0.0
0
LINE
8
OUTLINE
10
274.793676
20
101.959796
30
0.0
11
274.793939
21
101.959721
31
0.0
0
LINE
8
OUTLINE
10
274.793939
20
101.959721
30
0.0
11
274.793939
21
103.397648
31
0.0
0
LINE
8
OUTLINE
10
274.793939
20
103.397648
30
0.0
11
189.941125
21
127.554825
31
0.0
0
LINE
8
OUTLINE
10
189.941125
20
127.554825
30
0.0
11
189.941125
21
127.55462
31
0.0
0
LINE
8
OUTLINE
10
156.0
20
116.454027
30
0.0
11
240.852814
21
92.29685
31
0.0
0
LINE
8
OUTLINE
10
240.852814
20
92.29685
30
0.0
11
240.852814
21
93.734778
31
0.0
0
LINE
8
OUTLINE
10
240.852814
20
93.734778
30
0.0
11
156.0
21
117.891954
31
0.0
0
LINE
8
OUTLINE
10
156.0
20
117.891954
30
0.0
11
156.0
21
116.454027
31
0.0
0
LINE
8
OUTLINE
10
156.000263
20
116.454102
30
0.0
11
156.0
21
116.454027
31
0.0
0
LINE
8
OUTLINE
10
274.793939
20
101.959721
30
0.0
11
240.852814
21
92.29685
31
0.0
0
LINE
8
OUTLINE
10
274.793939
20
103.397648
30
0.0
11
240.852814
21
93.734778
31
0.0
0
LINE
8
OUTLINE
10
189.941125
20
127.554825
30
0.0
11
156.0
21
117.891954
31
0.0
0
LINE
8
OUTLINE
10
194.395898
20
98.649477
30
0.0
11
194.395898
21
105.523041
31
0.0
0
LINE
8
OUTLINE
10
169.57645
20
89.125742
30
0.0
11
170.63711
21
88.823777
31
0.0
0
LINE
8
OUTLINE
10
170.63711
20
88.823777
30
0.0
11
170.63711
21
112.28705
31
0.0
0
LINE
8
OUTLINE
10
169.57645
20
112.589015
30
0.0
11
169.57645
21
89.125742
31
0.0
0
LINE
8
OUTLINE
10
169.576713
20
89.125816
30
0.0
11
169.57645
21
89.125742
31
0.0
0
LINE
8
OUTLINE
10
192.601433
20
95.076911
30
0.0
11
170.63711
21
88.823777
31
0.0
0
LINE
8
OUTLINE
10
261.217226
20
76.564084
30
0.0
11
261.217489
21
76.56401
31
0.0
0
LINE
8
OUTLINE
10
261.217489
20
76.56401
30
0.0
11
261.217489
21
98.094709
31
0.0
0
LINE
8
OUTLINE
10
236.398041
20
70.101965
30
0.0
11
237.458701
21
69.8
31
0.0
0
LINE
8
OUTLINE
10
237.458701
20
69.8
30
0.0
11
237.458701
21
93.263274
31
0.0
0
LINE
8
OUTLINE
10
236.398041
20
93.565238
30
0.0
11
236.398041
21
70.101965
31
0.0
0
LINE
8
OUTLINE
10
236.398304
20
70.10204
30
0.0
11
236.398041
21
70.101965
31
0.0
0
LINE
8
OUTLINE
10
261.217489
20
76.56401
30
0.0
11
237.458701
21
69.8
31
0.0
0
LINE
8
OUTLINE
10
236.398182
20
86.69177
30
0.0
11
183.577164
21
101.729653
31
0.0
0
LINE
8
OUTLINE
10
183.577164
20
101.729653
30
0.0
11
183.577164
21
101.729447
31
0.0
0
LINE
8
OUTLINE
10
181.455844
20
98.249869
30
0.0
11
236.398182
21
82.608057
31
0.0
0
LINE
8
OUTLINE
10
236.398182
20
85.483911
30
0.0
11
181.455844
21
101.125723
31
0.0
0
LINE
8
OUTLINE
10
181.455844
20
101.125723
30
0.0
11
181.455844
21
98.249869
31
0.0
0
LINE
8
OUTLINE
10
181.456107
20
98.249944
30
0.0
11
181.455844
21
98.249869
31
0.0
0
LINE
8
OUTLINE
10
183.577164
20
101.729653
30
0.0
11
181.455844
21
101.125723
31
0.0
0
TEXT
8
VIEWLABEL
10
156.0
20
137.154825
30
0.0
40
2.76
1
ISOMETRIC
50
0.0
72
0.0
73
0.0
11
156.0
21
137.154825
31
0.0
0
LINE
8
DIMS
10
0.0
20
0.0
30
0.0
11
0.0
21
-13.44
31
0.0
0
LINE
8
DIMS
10
120.0
20
0.0
30
0.0
11
120.0
21
-13.44
31
0.0
0
LINE
8
DIMS
10
0.0
20
-12.0
30
0.0
11
120.0
21
-12.0
31
0.0
0
SOLID
8
DIMS
10
0.0
20
-12.0
30
0.0
11
2.16
21
-12.3888
31
0.0
12
2.16
22
-11.6112
32
0.0
13
2.16
23
-11.6112
33
0.0
0
SOLID
8
DIMS
10
120.0
20
-12.0
30
0.0
11
117.84
21
-11.6112
31
0.0
12
117.84
22
-12.3888
32
0.0
13
117.84
23
-12.3888
33
0.0
0
TEXT
8
DIMS
10
60.0
20
-11.04
30
0.0
40
2.4
1
120"
50
0.0
72
1.0
73
0.0
11
60.0
21
-11.04
31
0.0
0
LINE
8
DIMS
10
0.0
20
0.0
30
0.0
11
-13.44
21
0.0
31
0.0
0
LINE
8
DIMS
10
0.0
20
29.0
30
0.0
11
-13.44
21
29.0
31
0.0
0
LINE
8
DIMS
10
-12.0
20
0.0
30
0.0
11
-12.0
21
29.0
31
0.0
0
SOLID
8
DIMS
10
-12.0
20
0.0
30
0.0
11
-11.6112
21
2.16
31
0.0
12
-12.3888
22
2.16
32
0.0
13
-12.3888
23
2.16
33
0.0
0
SOLID
8
DIMS
10
-12.0
20
29.0
30
0.0
11
-12.3888
21
26.84
31
0.0
12
-11.6112
22
26.84
32
0.0
13
-11.6112
23
26.84
33
0.0
0
TEXT
8
DIMS
10
-12.96
20
14.5
30
0.0
40
2.4
1
29"
50
90.0
72
1.0
73
0.0
11
-12.96
21
14.5
31
0.0
0
LINE
8
DIMS
10
156.0
20
0.0
30
0.0
11
156.0
21
-13.44
31
0.0
0
LINE
8
DIMS
10
204.0
20
0.0
30
0.0
11
204.0
21
-13.44
31
0.0
0
LINE
8
DIMS
10
156.0
20
-12.0
30
0.0
11
204.0
21
-12.0
31
0.0
0
SOLID
8
DIMS
10
156.0
20
-12.0
30
0.0
11
158.16
21
-12.3888
31
0.0
12
158.16
22
-11.6112
32
0.0
13
158.16
23
-11.6112
33
0.0
0
SOLID
8
DIMS
10
204.0
20
-12.0
30
0.0
11
201.84
21
-11.6112
31
0.0
12
201.84
22
-12.3888
32
0.0
13
201.84
23
-12.3888
33
0.0
0
TEXT
8
DIMS
10
180.0
20
-11.04
30
0.0
40
2.4
1
48"
50
0.0
72
1.0
73
0.0
11
180.0
21
-11.04
31
0.0
0
LINE
8
TITLE
10
-36.0
20
-70.8
30
0.0
11
289.193939
21
-70.8
31
0.0
0
LINE
8
TITLE
10
289.193939
20
-70.8
30
0.0
11
289.193939
21
165.954825
31
0.0
0
LINE
8
TITLE
10
289.193939
20
165.954825
30
0.0
11
-36.0
21
165.954825
31
0.0
0
LINE
8
TITLE
10
-36.0
20
165.954825
30
0.0
11
-36.0
21
-70.8
31
0.0
0
LINE
8
TITLE
10
187.193939
20
-70.8
30
0.0
11
289.193939
21
-70.8
31
0.0
0
LINE
8
TITLE
10
289.193939
20
-70.8
30
0.0
11
289.193939
21
-52.8
31
0.0
0
LINE
8
TITLE
10
289.193939
20
-52.8
30
0.0
11
187.193939
21
-52.8
31
0.0
0
LINE
8
TITLE
10
187.193939
20
-52.8
30
0.0
11
187.193939
21
-70.8
31
0.0
0
LINE
8
TITLE
10
187.193939
20
-66.3
30
0.0
11
289.193939
21
-66.3
31
0.0
0
LINE
8
TITLE
10
187.193939
20
-61.8
30
0.0
11
289.193939
21
-61.8
31
0.0
0
LINE
8
TITLE
10
187.193939
20
-57.3
30
0.0
11
289.193939
21
-57.3
31
0.0
0
LINE
8
TITLE
10
250.433939
20
-70.8
30
0.0
11
250.433939
21
-57.3
31
0.0
0
TEXT
8
TITLE
10
188.393939
20
-56.85
30
0.0
40
3.6
1
ARNOLD CONTRACT
50
0.0
72
0.0
73
0.0
11
188.393939
21
-56.85
31
0.0
0
TEXT
8
TITLE
10
188.393939
20
-60.75
30
0.0
40
2.4
1
PROJECT: —
50
0.0
72
0.0
73
0.0
11
188.393939
21
-60.75
31
0.0
0
TEXT
8
TITLE
10
188.393939
20
-65.25
30
0.0
40
2.4
1
ITEM: Conference table
50
0.0
72
0.0
73
0.0
11
188.393939
21
-65.25
31
0.0
0
TEXT
8
TITLE
10
188.393939
20
-69.75
30
0.0
40
2.4
1
120" W  x  48" D  x  29" H
50
0.0
72
0.0
73
0.0
11
188.393939
21
-69.75
31
0.0
0
TEXT
8
TITLE
10
251.633939
20
-60.75
30
0.0
40
2.4
1
QUOTE: MIN-001
50
0.0
72
0.0
73
0.0
11
251.633939
21
-60.75
31
0.0
0
TEXT
8
TITLE
10
251.633939
20
-65.25
30
0.0
40
2.4
1
ITEM No: —
50
0.0
72
0.0
73
0.0
11
251.633939
21
-65.25
31
0.0
0
TEXT
8
TITLE
10
251.633939
20
-69.75
30
0.0
40
2.4
1
DATE: 2026-08-26
50
0.0
72
0.0
73
0.0
11
251.633939
21
-69.75
31
0.0
0
TEXT
8
TITLE
10
287.993939
20
-56.25
30
0.0
40
2.4
1
FULL SIZE (1:1)
50
0.0
72
2.0
73
0.0
11
287.993939
21
-56.25
31
0.0
0
ENDSEC
0
EOF
