0
SECTION
2
HEADER
9
$ACADVER
1
AC1009
9
$INSUNITS
70
1.0
9
$MEASUREMENT
70
0.0
0
ENDSEC
0
SECTION
2
TABLES
0
TABLE
2
LAYER
70
6.0
0
LAYER
2
OUTLINE
70
0.0
62
7.0
6
CONTINUOUS
0
LAYER
2
DETAIL
70
0.0
62
8.0
6
CONTINUOUS
0
LAYER
2
DIMS
70
0.0
62
3.0
6
CONTINUOUS
0
LAYER
2
TEXT
70
0.0
62
4.0
6
CONTINUOUS
0
LAYER
2
TITLE
70
0.0
62
7.0
6
CONTINUOUS
0
LAYER
2
VIEWLABEL
70
0.0
62
2.0
6
CONTINUOUS
0
ENDTAB
0
ENDSEC
0
SECTION
2
ENTITIES
0
LINE
8
OUTLINE
10
1.0
20
4.0
30
0.0
11
1.75
21
4.0
31
0.0
0
LINE
8
OUTLINE
10
1.75
20
4.0
30
0.0
11
1.75
21
4.0001
31
0.0
0
LINE
8
OUTLINE
10
1.75
20
28.7499
30
0.0
11
1.75
21
28.75
31
0.0
0
LINE
8
OUTLINE
10
1.75
20
28.75
30
0.0
11
1.0
21
28.75
31
0.0
0
LINE
8
OUTLINE
10
1.0
20
28.75
30
0.0
11
1.0
21
4.0
31
0.0
0
LINE
8
OUTLINE
10
1.0
20
4.0
30
0.0
11
1.75
21
4.0
31
0.0
0
LINE
8
OUTLINE
10
1.75
20
4.0
30
0.0
11
1.75
21
4.0001
31
0.0
0
LINE
8
OUTLINE
10
1.75
20
28.7499
30
0.0
11
1.75
21
28.75
31
0.0
0
LINE
8
OUTLINE
10
1.75
20
28.75
30
0.0
11
1.0
21
28.75
31
0.0
0
LINE
8
OUTLINE
10
1.0
20
28.75
30
0.0
11
1.0
21
4.0
31
0.0
0
LINE
8
OUTLINE
10
1.0
20
4.0
30
0.0
11
1.0
21
4.0
31
0.0
0
LINE
8
OUTLINE
10
1.75
20
4.0
30
0.0
11
1.75
21
4.0
31
0.0
0
LINE
8
OUTLINE
10
1.75
20
28.75
30
0.0
11
1.75
21
28.75
31
0.0
0
LINE
8
OUTLINE
10
1.0
20
28.75
30
0.0
11
1.0
21
28.75
31
0.0
0
LINE
8
OUTLINE
10
72.25
20
4.0
30
0.0
11
73.0
21
4.0
31
0.0
0
LINE
8
OUTLINE
10
73.0
20
4.0
30
0.0
11
73.0
21
28.75
31
0.0
0
LINE
8
OUTLINE
10
73.0
20
28.75
30
0.0
11
72.25
21
28.75
31
0.0
0
LINE
8
OUTLINE
10
72.25
20
28.75
30
0.0
11
72.25
21
28.7499
31
0.0
0
LINE
8
OUTLINE
10
72.25
20
4.0001
30
0.0
11
72.25
21
4.0
31
0.0
0
LINE
8
OUTLINE
10
72.25
20
4.0
30
0.0
11
73.0
21
4.0
31
0.0
0
LINE
8
OUTLINE
10
73.0
20
4.0
30
0.0
11
73.0
21
28.75
31
0.0
0
LINE
8
OUTLINE
10
73.0
20
28.75
30
0.0
11
72.25
21
28.75
31
0.0
0
LINE
8
OUTLINE
10
72.25
20
28.75
30
0.0
11
72.25
21
28.7499
31
0.0
0
LINE
8
OUTLINE
10
72.25
20
4.0001
30
0.0
11
72.25
21
4.0
31
0.0
0
LINE
8
OUTLINE
10
72.25
20
4.0
30
0.0
11
72.25
21
4.0
31
0.0
0
LINE
8
OUTLINE
10
73.0
20
4.0
30
0.0
11
73.0
21
4.0
31
0.0
0
LINE
8
OUTLINE
10
73.0
20
28.75
30
0.0
11
73.0
21
28.75
31
0.0
0
LINE
8
OUTLINE
10
72.25
20
28.75
30
0.0
11
72.25
21
28.75
31
0.0
0
LINE
8
OUTLINE
10
1.75
20
4.0
30
0.0
11
72.25
21
4.0
31
0.0
0
LINE
8
OUTLINE
10
72.25
20
4.0
30
0.0
11
72.25
21
4.0001
31
0.0
0
LINE
8
OUTLINE
10
1.75
20
4.0001
30
0.0
11
1.75
21
4.0
31
0.0
0
LINE
8
OUTLINE
10
1.75
20
4.0
30
0.0
11
72.25
21
4.0
31
0.0
0
LINE
8
OUTLINE
10
72.25
20
4.0
30
0.0
11
72.25
21
4.0001
31
0.0
0
LINE
8
OUTLINE
10
1.75
20
4.0001
30
0.0
11
1.75
21
4.0
31
0.0
0
LINE
8
OUTLINE
10
1.75
20
4.0
30
0.0
11
1.75
21
4.0
31
0.0
0
LINE
8
OUTLINE
10
72.25
20
4.0
30
0.0
11
72.25
21
4.0
31
0.0
0
LINE
8
OUTLINE
10
72.25
20
28.7499
30
0.0
11
72.25
21
28.75
31
0.0
0
LINE
8
OUTLINE
10
72.25
20
28.75
30
0.0
11
1.75
21
28.75
31
0.0
0
LINE
8
OUTLINE
10
1.75
20
28.75
30
0.0
11
1.75
21
28.7499
31
0.0
0
LINE
8
OUTLINE
10
72.25
20
28.7499
30
0.0
11
72.25
21
28.75
31
0.0
0
LINE
8
OUTLINE
10
72.25
20
28.75
30
0.0
11
1.75
21
28.75
31
0.0
0
LINE
8
OUTLINE
10
1.75
20
28.75
30
0.0
11
1.75
21
28.7499
31
0.0
0
LINE
8
OUTLINE
10
72.25
20
28.75
30
0.0
11
72.25
21
28.75
31
0.0
0
LINE
8
OUTLINE
10
1.75
20
28.75
30
0.0
11
1.75
21
28.75
31
0.0
0
LINE
8
OUTLINE
10
1.0
20
0.0
30
0.0
11
73.0
21
0.0
31
0.0
0
LINE
8
OUTLINE
10
73.0
20
0.0
30
0.0
11
73.0
21
4.0
31
0.0
0
LINE
8
OUTLINE
10
73.0
20
4.0
30
0.0
11
1.0
21
4.0
31
0.0
0
LINE
8
OUTLINE
10
1.0
20
4.0
30
0.0
11
1.0
21
0.0
31
0.0
0
LINE
8
OUTLINE
10
1.0
20
0.0
30
0.0
11
73.0
21
0.0
31
0.0
0
LINE
8
OUTLINE
10
73.0
20
0.0
30
0.0
11
73.0
21
4.0
31
0.0
0
LINE
8
OUTLINE
10
73.0
20
4.0
30
0.0
11
1.0
21
4.0
31
0.0
0
LINE
8
OUTLINE
10
1.0
20
4.0
30
0.0
11
1.0
21
0.0
31
0.0
0
LINE
8
OUTLINE
10
1.0
20
0.0
30
0.0
11
1.0
21
0.0
31
0.0
0
LINE
8
OUTLINE
10
73.0
20
0.0
30
0.0
11
73.0
21
0.0
31
0.0
0
LINE
8
OUTLINE
10
73.0
20
4.0
30
0.0
11
73.0
21
4.0
31
0.0
0
LINE
8
OUTLINE
10
1.0
20
4.0
30
0.0
11
1.0
21
4.0
31
0.0
0
LINE
8
OUTLINE
10
1.0
20
4.0
30
0.0
11
24.916667
21
4.0
31
0.0
0
LINE
8
OUTLINE
10
24.916667
20
4.0
30
0.0
11
24.916667
21
28.75
31
0.0
0
LINE
8
OUTLINE
10
24.916667
20
28.75
30
0.0
11
1.0
21
28.75
31
0.0
0
LINE
8
OUTLINE
10
1.0
20
28.75
30
0.0
11
1.0
21
4.0
31
0.0
0
LINE
8
OUTLINE
10
1.0
20
4.0
30
0.0
11
24.916667
21
4.0
31
0.0
0
LINE
8
OUTLINE
10
24.916667
20
4.0
30
0.0
11
24.916667
21
28.75
31
0.0
0
LINE
8
OUTLINE
10
24.916667
20
28.75
30
0.0
11
1.0
21
28.75
31
0.0
0
LINE
8
OUTLINE
10
1.0
20
28.75
30
0.0
11
1.0
21
4.0
31
0.0
0
LINE
8
OUTLINE
10
1.0
20
4.0
30
0.0
11
1.0
21
4.0
31
0.0
0
LINE
8
OUTLINE
10
24.916667
20
4.0
30
0.0
11
24.916667
21
4.0
31
0.0
0
LINE
8
OUTLINE
10
24.916667
20
28.75
30
0.0
11
24.916667
21
28.75
31
0.0
0
LINE
8
OUTLINE
10
1.0
20
28.75
30
0.0
11
1.0
21
28.75
31
0.0
0
LINE
8
OUTLINE
10
7.577083
20
25.4375
30
0.0
11
18.339583
21
25.4375
31
0.0
0
LINE
8
OUTLINE
10
18.339583
20
25.4375
30
0.0
11
18.339583
21
26.0625
31
0.0
0
LINE
8
OUTLINE
10
18.339583
20
26.0625
30
0.0
11
7.577083
21
26.0625
31
0.0
0
LINE
8
OUTLINE
10
7.577083
20
26.0625
30
0.0
11
7.577083
21
25.4375
31
0.0
0
LINE
8
OUTLINE
10
7.577083
20
25.4375
30
0.0
11
18.339583
21
25.4375
31
0.0
0
LINE
8
OUTLINE
10
18.339583
20
25.4375
30
0.0
11
18.339583
21
26.0625
31
0.0
0
LINE
8
OUTLINE
10
18.339583
20
26.0625
30
0.0
11
7.577083
21
26.0625
31
0.0
0
LINE
8
OUTLINE
10
7.577083
20
26.0625
30
0.0
11
7.577083
21
25.4375
31
0.0
0
LINE
8
OUTLINE
10
7.577083
20
25.4375
30
0.0
11
7.577083
21
25.4375
31
0.0
0
LINE
8
OUTLINE
10
18.339583
20
25.4375
30
0.0
11
18.339583
21
25.4375
31
0.0
0
LINE
8
OUTLINE
10
18.339583
20
26.0625
30
0.0
11
18.339583
21
26.0625
31
0.0
0
LINE
8
OUTLINE
10
7.577083
20
26.0625
30
0.0
11
7.577083
21
26.0625
31
0.0
0
LINE
8
OUTLINE
10
9.191458
20
25.4375
30
0.0
11
9.816458
21
25.4375
31
0.0
0
LINE
8
OUTLINE
10
9.816458
20
25.4375
30
0.0
11
9.816458
21
25.4376
31
0.0
0
LINE
8
OUTLINE
10
9.816458
20
26.0624
30
0.0
11
9.816458
21
26.0625
31
0.0
0
LINE
8
OUTLINE
10
9.816458
20
26.0625
30
0.0
11
9.191458
21
26.0625
31
0.0
0
LINE
8
OUTLINE
10
9.191458
20
26.0625
30
0.0
11
9.191458
21
26.0624
31
0.0
0
LINE
8
OUTLINE
10
9.191458
20
25.4376
30
0.0
11
9.191458
21
25.4375
31
0.0
0
LINE
8
OUTLINE
10
9.191458
20
25.4375
30
0.0
11
9.816458
21
25.4375
31
0.0
0
LINE
8
OUTLINE
10
9.816458
20
25.4375
30
0.0
11
9.816458
21
25.4376
31
0.0
0
LINE
8
OUTLINE
10
9.816458
20
26.0624
30
0.0
11
9.816458
21
26.0625
31
0.0
0
LINE
8
OUTLINE
10
9.816458
20
26.0625
30
0.0
11
9.191458
21
26.0625
31
0.0
0
LINE
8
OUTLINE
10
9.191458
20
26.0625
30
0.0
11
9.191458
21
26.0624
31
0.0
0
LINE
8
OUTLINE
10
9.191458
20
25.4376
30
0.0
11
9.191458
21
25.4375
31
0.0
0
LINE
8
OUTLINE
10
9.191458
20
25.4375
30
0.0
11
9.191458
21
25.4375
31
0.0
0
LINE
8
OUTLINE
10
9.816458
20
25.4375
30
0.0
11
9.816458
21
25.4375
31
0.0
0
LINE
8
OUTLINE
10
9.816458
20
26.0625
30
0.0
11
9.816458
21
26.0625
31
0.0
0
LINE
8
OUTLINE
10
9.191458
20
26.0625
30
0.0
11
9.191458
21
26.0625
31
0.0
0
LINE
8
OUTLINE
10
16.100208
20
25.4375
30
0.0
11
16.725208
21
25.4375
31
0.0
0
LINE
8
OUTLINE
10
16.725208
20
25.4375
30
0.0
11
16.725208
21
25.4376
31
0.0
0
LINE
8
OUTLINE
10
16.725208
20
26.0624
30
0.0
11
16.725208
21
26.0625
31
0.0
0
LINE
8
OUTLINE
10
16.725208
20
26.0625
30
0.0
11
16.100208
21
26.0625
31
0.0
0
LINE
8
OUTLINE
10
16.100208
20
26.0625
30
0.0
11
16.100208
21
26.0624
31
0.0
0
LINE
8
OUTLINE
10
16.100208
20
25.4376
30
0.0
11
16.100208
21
25.4375
31
0.0
0
LINE
8
OUTLINE
10
16.100208
20
25.4375
30
0.0
11
16.725208
21
25.4375
31
0.0
0
LINE
8
OUTLINE
10
16.725208
20
25.4375
30
0.0
11
16.725208
21
25.4376
31
0.0
0
LINE
8
OUTLINE
10
16.725208
20
26.0624
30
0.0
11
16.725208
21
26.0625
31
0.0
0
LINE
8
OUTLINE
10
16.725208
20
26.0625
30
0.0
11
16.100208
21
26.0625
31
0.0
0
LINE
8
OUTLINE
10
16.100208
20
26.0625
30
0.0
11
16.100208
21
26.0624
31
0.0
0
LINE
8
OUTLINE
10
16.100208
20
25.4376
30
0.0
11
16.100208
21
25.4375
31
0.0
0
LINE
8
OUTLINE
10
16.100208
20
25.4375
30
0.0
11
16.100208
21
25.4375
31
0.0
0
LINE
8
OUTLINE
10
16.725208
20
25.4375
30
0.0
11
16.725208
21
25.4375
31
0.0
0
LINE
8
OUTLINE
10
16.725208
20
26.0625
30
0.0
11
16.725208
21
26.0625
31
0.0
0
LINE
8
OUTLINE
10
16.100208
20
26.0625
30
0.0
11
16.100208
21
26.0625
31
0.0
0
LINE
8
OUTLINE
10
25.041667
20
4.0
30
0.0
11
48.958333
21
4.0
31
0.0
0
LINE
8
OUTLINE
10
48.958333
20
4.0
30
0.0
11
48.958333
21
28.75
31
0.0
0
LINE
8
OUTLINE
10
48.958333
20
28.75
30
0.0
11
25.041667
21
28.75
31
0.0
0
LINE
8
OUTLINE
10
25.041667
20
28.75
30
0.0
11
25.041667
21
4.0
31
0.0
0
LINE
8
OUTLINE
10
25.041667
20
4.0
30
0.0
11
48.958333
21
4.0
31
0.0
0
LINE
8
OUTLINE
10
48.958333
20
4.0
30
0.0
11
48.958333
21
28.75
31
0.0
0
LINE
8
OUTLINE
10
48.958333
20
28.75
30
0.0
11
25.041667
21
28.75
31
0.0
0
LINE
8
OUTLINE
10
25.041667
20
28.75
30
0.0
11
25.041667
21
4.0
31
0.0
0
LINE
8
OUTLINE
10
25.041667
20
4.0
30
0.0
11
25.041667
21
4.0
31
0.0
0
LINE
8
OUTLINE
10
48.958333
20
4.0
30
0.0
11
48.958333
21
4.0
31
0.0
0
LINE
8
OUTLINE
10
48.958333
20
28.75
30
0.0
11
48.958333
21
28.75
31
0.0
0
LINE
8
OUTLINE
10
25.041667
20
28.75
30
0.0
11
25.041667
21
28.75
31
0.0
0
LINE
8
OUTLINE
10
31.61875
20
25.4375
30
0.0
11
42.38125
21
25.4375
31
0.0
0
LINE
8
OUTLINE
10
42.38125
20
25.4375
30
0.0
11
42.38125
21
26.0625
31
0.0
0
LINE
8
OUTLINE
10
42.38125
20
26.0625
30
0.0
11
31.61875
21
26.0625
31
0.0
0
LINE
8
OUTLINE
10
31.61875
20
26.0625
30
0.0
11
31.61875
21
25.4375
31
0.0
0
LINE
8
OUTLINE
10
31.61875
20
25.4375
30
0.0
11
42.38125
21
25.4375
31
0.0
0
LINE
8
OUTLINE
10
42.38125
20
25.4375
30
0.0
11
42.38125
21
26.0625
31
0.0
0
LINE
8
OUTLINE
10
42.38125
20
26.0625
30
0.0
11
31.61875
21
26.0625
31
0.0
0
LINE
8
OUTLINE
10
31.61875
20
26.0625
30
0.0
11
31.61875
21
25.4375
31
0.0
0
LINE
8
OUTLINE
10
31.61875
20
25.4375
30
0.0
11
31.61875
21
25.4375
31
0.0
0
LINE
8
OUTLINE
10
42.38125
20
25.4375
30
0.0
11
42.38125
21
25.4375
31
0.0
0
LINE
8
OUTLINE
10
42.38125
20
26.0625
30
0.0
11
42.38125
21
26.0625
31
0.0
0
LINE
8
OUTLINE
10
31.61875
20
26.0625
30
0.0
11
31.61875
21
26.0625
31
0.0
0
LINE
8
OUTLINE
10
33.233125
20
25.4375
30
0.0
11
33.858125
21
25.4375
31
0.0
0
LINE
8
OUTLINE
10
33.858125
20
25.4375
30
0.0
11
33.858125
21
25.4376
31
0.0
0
LINE
8
OUTLINE
10
33.858125
20
26.0624
30
0.0
11
33.858125
21
26.0625
31
0.0
0
LINE
8
OUTLINE
10
33.858125
20
26.0625
30
0.0
11
33.233125
21
26.0625
31
0.0
0
LINE
8
OUTLINE
10
33.233125
20
26.0625
30
0.0
11
33.233125
21
26.0624
31
0.0
0
LINE
8
OUTLINE
10
33.233125
20
25.4376
30
0.0
11
33.233125
21
25.4375
31
0.0
0
LINE
8
OUTLINE
10
33.233125
20
25.4375
30
0.0
11
33.858125
21
25.4375
31
0.0
0
LINE
8
OUTLINE
10
33.858125
20
25.4375
30
0.0
11
33.858125
21
25.4376
31
0.0
0
LINE
8
OUTLINE
10
33.858125
20
26.0624
30
0.0
11
33.858125
21
26.0625
31
0.0
0
LINE
8
OUTLINE
10
33.858125
20
26.0625
30
0.0
11
33.233125
21
26.0625
31
0.0
0
LINE
8
OUTLINE
10
33.233125
20
26.0625
30
0.0
11
33.233125
21
26.0624
31
0.0
0
LINE
8
OUTLINE
10
33.233125
20
25.4376
30
0.0
11
33.233125
21
25.4375
31
0.0
0
LINE
8
OUTLINE
10
33.233125
20
25.4375
30
0.0
11
33.233125
21
25.4375
31
0.0
0
LINE
8
OUTLINE
10
33.858125
20
25.4375
30
0.0
11
33.858125
21
25.4375
31
0.0
0
LINE
8
OUTLINE
10
33.858125
20
26.0625
30
0.0
11
33.858125
21
26.0625
31
0.0
0
LINE
8
OUTLINE
10
33.233125
20
26.0625
30
0.0
11
33.233125
21
26.0625
31
0.0
0
LINE
8
OUTLINE
10
40.141875
20
25.4375
30
0.0
11
40.766875
21
25.4375
31
0.0
0
LINE
8
OUTLINE
10
40.766875
20
25.4375
30
0.0
11
40.766875
21
25.4376
31
0.0
0
LINE
8
OUTLINE
10
40.766875
20
26.0624
30
0.0
11
40.766875
21
26.0625
31
0.0
0
LINE
8
OUTLINE
10
40.766875
20
26.0625
30
0.0
11
40.141875
21
26.0625
31
0.0
0
LINE
8
OUTLINE
10
40.141875
20
26.0625
30
0.0
11
40.141875
21
26.0624
31
0.0
0
LINE
8
OUTLINE
10
40.141875
20
25.4376
30
0.0
11
40.141875
21
25.4375
31
0.0
0
LINE
8
OUTLINE
10
40.141875
20
25.4375
30
0.0
11
40.766875
21
25.4375
31
0.0
0
LINE
8
OUTLINE
10
40.766875
20
25.4375
30
0.0
11
40.766875
21
25.4376
31
0.0
0
LINE
8
OUTLINE
10
40.766875
20
26.0624
30
0.0
11
40.766875
21
26.0625
31
0.0
0
LINE
8
OUTLINE
10
40.766875
20
26.0625
30
0.0
11
40.141875
21
26.0625
31
0.0
0
LINE
8
OUTLINE
10
40.141875
20
26.0625
30
0.0
11
40.141875
21
26.0624
31
0.0
0
LINE
8
OUTLINE
10
40.141875
20
25.4376
30
0.0
11
40.141875
21
25.4375
31
0.0
0
LINE
8
OUTLINE
10
40.141875
20
25.4375
30
0.0
11
40.141875
21
25.4375
31
0.0
0
LINE
8
OUTLINE
10
40.766875
20
25.4375
30
0.0
11
40.766875
21
25.4375
31
0.0
0
LINE
8
OUTLINE
10
40.766875
20
26.0625
30
0.0
11
40.766875
21
26.0625
31
0.0
0
LINE
8
OUTLINE
10
40.141875
20
26.0625
30
0.0
11
40.141875
21
26.0625
31
0.0
0
LINE
8
OUTLINE
10
49.083333
20
4.0
30
0.0
11
73.0
21
4.0
31
0.0
0
LINE
8
OUTLINE
10
73.0
20
4.0
30
0.0
11
73.0
21
28.75
31
0.0
0
LINE
8
OUTLINE
10
73.0
20
28.75
30
0.0
11
49.083333
21
28.75
31
0.0
0
LINE
8
OUTLINE
10
49.083333
20
28.75
30
0.0
11
49.083333
21
4.0
31
0.0
0
LINE
8
OUTLINE
10
49.083333
20
4.0
30
0.0
11
73.0
21
4.0
31
0.0
0
LINE
8
OUTLINE
10
73.0
20
4.0
30
0.0
11
73.0
21
28.75
31
0.0
0
LINE
8
OUTLINE
10
73.0
20
28.75
30
0.0
11
49.083333
21
28.75
31
0.0
0
LINE
8
OUTLINE
10
49.083333
20
28.75
30
0.0
11
49.083333
21
4.0
31
0.0
0
LINE
8
OUTLINE
10
49.083333
20
4.0
30
0.0
11
49.083333
21
4.0
31
0.0
0
LINE
8
OUTLINE
10
73.0
20
4.0
30
0.0
11
73.0
21
4.0
31
0.0
0
LINE
8
OUTLINE
10
73.0
20
28.75
30
0.0
11
73.0
21
28.75
31
0.0
0
LINE
8
OUTLINE
10
49.083333
20
28.75
30
0.0
11
49.083333
21
28.75
31
0.0
0
LINE
8
OUTLINE
10
55.660417
20
25.4375
30
0.0
11
66.422917
21
25.4375
31
0.0
0
LINE
8
OUTLINE
10
66.422917
20
25.4375
30
0.0
11
66.422917
21
26.0625
31
0.0
0
LINE
8
OUTLINE
10
66.422917
20
26.0625
30
0.0
11
55.660417
21
26.0625
31
0.0
0
LINE
8
OUTLINE
10
55.660417
20
26.0625
30
0.0
11
55.660417
21
25.4375
31
0.0
0
LINE
8
OUTLINE
10
55.660417
20
25.4375
30
0.0
11
66.422917
21
25.4375
31
0.0
0
LINE
8
OUTLINE
10
66.422917
20
25.4375
30
0.0
11
66.422917
21
26.0625
31
0.0
0
LINE
8
OUTLINE
10
66.422917
20
26.0625
30
0.0
11
55.660417
21
26.0625
31
0.0
0
LINE
8
OUTLINE
10
55.660417
20
26.0625
30
0.0
11
55.660417
21
25.4375
31
0.0
0
LINE
8
OUTLINE
10
55.660417
20
25.4375
30
0.0
11
55.660417
21
25.4375
31
0.0
0
LINE
8
OUTLINE
10
66.422917
20
25.4375
30
0.0
11
66.422917
21
25.4375
31
0.0
0
LINE
8
OUTLINE
10
66.422917
20
26.0625
30
0.0
11
66.422917
21
26.0625
31
0.0
0
LINE
8
OUTLINE
10
55.660417
20
26.0625
30
0.0
11
55.660417
21
26.0625
31
0.0
0
LINE
8
OUTLINE
10
57.274792
20
25.4375
30
0.0
11
57.899792
21
25.4375
31
0.0
0
LINE
8
OUTLINE
10
57.899792
20
25.4375
30
0.0
11
57.899792
21
25.4376
31
0.0
0
LINE
8
OUTLINE
10
57.899792
20
26.0624
30
0.0
11
57.899792
21
26.0625
31
0.0
0
LINE
8
OUTLINE
10
57.899792
20
26.0625
30
0.0
11
57.274792
21
26.0625
31
0.0
0
LINE
8
OUTLINE
10
57.274792
20
26.0625
30
0.0
11
57.274792
21
26.0624
31
0.0
0
LINE
8
OUTLINE
10
57.274792
20
25.4376
30
0.0
11
57.274792
21
25.4375
31
0.0
0
LINE
8
OUTLINE
10
57.274792
20
25.4375
30
0.0
11
57.899792
21
25.4375
31
0.0
0
LINE
8
OUTLINE
10
57.899792
20
25.4375
30
0.0
11
57.899792
21
25.4376
31
0.0
0
LINE
8
OUTLINE
10
57.899792
20
26.0624
30
0.0
11
57.899792
21
26.0625
31
0.0
0
LINE
8
OUTLINE
10
57.899792
20
26.0625
30
0.0
11
57.274792
21
26.0625
31
0.0
0
LINE
8
OUTLINE
10
57.274792
20
26.0625
30
0.0
11
57.274792
21
26.0624
31
0.0
0
LINE
8
OUTLINE
10
57.274792
20
25.4376
30
0.0
11
57.274792
21
25.4375
31
0.0
0
LINE
8
OUTLINE
10
57.274792
20
25.4375
30
0.0
11
57.274792
21
25.4375
31
0.0
0
LINE
8
OUTLINE
10
57.899792
20
25.4375
30
0.0
11
57.899792
21
25.4375
31
0.0
0
LINE
8
OUTLINE
10
57.899792
20
26.0625
30
0.0
11
57.899792
21
26.0625
31
0.0
0
LINE
8
OUTLINE
10
57.274792
20
26.0625
30
0.0
11
57.274792
21
26.0625
31
0.0
0
LINE
8
OUTLINE
10
64.183542
20
25.4375
30
0.0
11
64.808542
21
25.4375
31
0.0
0
LINE
8
OUTLINE
10
64.808542
20
25.4375
30
0.0
11
64.808542
21
25.4376
31
0.0
0
LINE
8
OUTLINE
10
64.808542
20
26.0624
30
0.0
11
64.808542
21
26.0625
31
0.0
0
LINE
8
OUTLINE
10
64.808542
20
26.0625
30
0.0
11
64.183542
21
26.0625
31
0.0
0
LINE
8
OUTLINE
10
64.183542
20
26.0625
30
0.0
11
64.183542
21
26.0624
31
0.0
0
LINE
8
OUTLINE
10
64.183542
20
25.4376
30
0.0
11
64.183542
21
25.4375
31
0.0
0
LINE
8
OUTLINE
10
64.183542
20
25.4375
30
0.0
11
64.808542
21
25.4375
31
0.0
0
LINE
8
OUTLINE
10
64.808542
20
25.4375
30
0.0
11
64.808542
21
25.4376
31
0.0
0
LINE
8
OUTLINE
10
64.808542
20
26.0624
30
0.0
11
64.808542
21
26.0625
31
0.0
0
LINE
8
OUTLINE
10
64.808542
20
26.0625
30
0.0
11
64.183542
21
26.0625
31
0.0
0
LINE
8
OUTLINE
10
64.183542
20
26.0625
30
0.0
11
64.183542
21
26.0624
31
0.0
0
LINE
8
OUTLINE
10
64.183542
20
25.4376
30
0.0
11
64.183542
21
25.4375
31
0.0
0
LINE
8
OUTLINE
10
64.183542
20
25.4375
30
0.0
11
64.183542
21
25.4375
31
0.0
0
LINE
8
OUTLINE
10
64.808542
20
25.4375
30
0.0
11
64.808542
21
25.4375
31
0.0
0
LINE
8
OUTLINE
10
64.808542
20
26.0625
30
0.0
11
64.808542
21
26.0625
31
0.0
0
LINE
8
OUTLINE
10
64.183542
20
26.0625
30
0.0
11
64.183542
21
26.0625
31
0.0
0
LINE
8
OUTLINE
10
0.0
20
28.75
30
0.0
11
74.0
21
28.75
31
0.0
0
LINE
8
OUTLINE
10
74.0
20
28.75
30
0.0
11
74.0
21
30.0
31
0.0
0
LINE
8
OUTLINE
10
74.0
20
30.0
30
0.0
11
0.0
21
30.0
31
0.0
0
LINE
8
OUTLINE
10
0.0
20
30.0
30
0.0
11
0.0
21
28.75
31
0.0
0
LINE
8
OUTLINE
10
0.0
20
28.75
30
0.0
11
74.0
21
28.75
31
0.0
0
LINE
8
OUTLINE
10
74.0
20
28.75
30
0.0
11
74.0
21
30.0
31
0.0
0
LINE
8
OUTLINE
10
74.0
20
30.0
30
0.0
11
0.0
21
30.0
31
0.0
0
LINE
8
OUTLINE
10
0.0
20
30.0
30
0.0
11
0.0
21
28.75
31
0.0
0
LINE
8
OUTLINE
10
0.0
20
28.75
30
0.0
11
0.0
21
28.75
31
0.0
0
LINE
8
OUTLINE
10
74.0
20
28.75
30
0.0
11
74.0
21
28.75
31
0.0
0
LINE
8
OUTLINE
10
74.0
20
30.0
30
0.0
11
74.0
21
30.0
31
0.0
0
LINE
8
OUTLINE
10
0.0
20
30.0
30
0.0
11
0.0
21
30.0
31
0.0
0
TEXT
8
VIEWLABEL
10
0.0
20
-17.76
30
0.0
40
1.702
1
FRONT ELEVATION
50
0.0
72
0.0
73
0.0
11
0.0
21
-17.76
31
0.0
0
LINE
8
OUTLINE
10
117.7
20
4.0
30
0.0
11
117.7
21
4.0
31
0.0
0
LINE
8
OUTLINE
10
117.7
20
4.0
30
0.0
11
117.7
21
28.75
31
0.0
0
LINE
8
OUTLINE
10
117.7
20
28.75
30
0.0
11
117.7
21
28.75
31
0.0
0
LINE
8
OUTLINE
10
117.7
20
28.75
30
0.0
11
117.7
21
4.0
31
0.0
0
LINE
8
OUTLINE
10
98.45
20
4.0
30
0.0
11
98.45
21
4.0
31
0.0
0
LINE
8
OUTLINE
10
98.45
20
4.0
30
0.0
11
98.45
21
28.75
31
0.0
0
LINE
8
OUTLINE
10
98.45
20
28.75
30
0.0
11
98.45
21
28.75
31
0.0
0
LINE
8
OUTLINE
10
98.45
20
28.75
30
0.0
11
98.45
21
4.0
31
0.0
0
LINE
8
OUTLINE
10
117.7
20
4.0
30
0.0
11
98.45
21
4.0
31
0.0
0
LINE
8
OUTLINE
10
117.7
20
4.0
30
0.0
11
98.45
21
4.0
31
0.0
0
LINE
8
OUTLINE
10
117.7
20
28.75
30
0.0
11
98.45
21
28.75
31
0.0
0
LINE
8
OUTLINE
10
117.7
20
28.75
30
0.0
11
98.45
21
28.75
31
0.0
0
LINE
8
OUTLINE
10
117.7
20
4.0
30
0.0
11
117.7
21
4.0
31
0.0
0
LINE
8
OUTLINE
10
117.7
20
4.0
30
0.0
11
117.7
21
28.75
31
0.0
0
LINE
8
OUTLINE
10
117.7
20
28.75
30
0.0
11
117.7
21
28.75
31
0.0
0
LINE
8
OUTLINE
10
117.7
20
28.75
30
0.0
11
117.7
21
4.0
31
0.0
0
LINE
8
OUTLINE
10
98.45
20
4.0
30
0.0
11
98.45
21
4.0
31
0.0
0
LINE
8
OUTLINE
10
98.45
20
4.0
30
0.0
11
98.45
21
28.75
31
0.0
0
LINE
8
OUTLINE
10
98.45
20
28.75
30
0.0
11
98.45
21
28.75
31
0.0
0
LINE
8
OUTLINE
10
98.45
20
28.75
30
0.0
11
98.45
21
4.0
31
0.0
0
LINE
8
OUTLINE
10
117.7
20
4.0
30
0.0
11
98.45
21
4.0
31
0.0
0
LINE
8
OUTLINE
10
117.7
20
4.0
30
0.0
11
98.45
21
4.0
31
0.0
0
LINE
8
OUTLINE
10
117.7
20
28.75
30
0.0
11
98.45
21
28.75
31
0.0
0
LINE
8
OUTLINE
10
117.7
20
28.75
30
0.0
11
98.45
21
28.75
31
0.0
0
LINE
8
OUTLINE
10
117.7
20
4.0
30
0.0
11
117.7
21
4.0
31
0.0
0
LINE
8
OUTLINE
10
117.7
20
4.0
30
0.0
11
117.7
21
4.75
31
0.0
0
LINE
8
OUTLINE
10
117.7
20
4.75
30
0.0
11
117.7
21
4.75
31
0.0
0
LINE
8
OUTLINE
10
117.7
20
4.75
30
0.0
11
117.7
21
4.0
31
0.0
0
LINE
8
OUTLINE
10
98.45
20
4.0
30
0.0
11
98.45
21
4.0
31
0.0
0
LINE
8
OUTLINE
10
98.45
20
4.0
30
0.0
11
98.45
21
4.75
31
0.0
0
LINE
8
OUTLINE
10
98.45
20
4.75
30
0.0
11
98.45
21
4.75
31
0.0
0
LINE
8
OUTLINE
10
98.45
20
4.75
30
0.0
11
98.45
21
4.0
31
0.0
0
LINE
8
OUTLINE
10
117.7
20
4.0
30
0.0
11
98.45
21
4.0
31
0.0
0
LINE
8
OUTLINE
10
117.7
20
4.0
30
0.0
11
98.45
21
4.0
31
0.0
0
LINE
8
OUTLINE
10
117.7
20
4.75
30
0.0
11
117.6999
21
4.75
31
0.0
0
LINE
8
OUTLINE
10
98.4501
20
4.75
30
0.0
11
98.45
21
4.75
31
0.0
0
LINE
8
OUTLINE
10
117.7
20
4.75
30
0.0
11
117.6999
21
4.75
31
0.0
0
LINE
8
OUTLINE
10
98.4501
20
4.75
30
0.0
11
98.45
21
4.75
31
0.0
0
LINE
8
OUTLINE
10
117.7
20
28.0
30
0.0
11
117.7
21
28.0
31
0.0
0
LINE
8
OUTLINE
10
117.7
20
28.0
30
0.0
11
117.7
21
28.75
31
0.0
0
LINE
8
OUTLINE
10
117.7
20
28.75
30
0.0
11
117.7
21
28.75
31
0.0
0
LINE
8
OUTLINE
10
117.7
20
28.75
30
0.0
11
117.7
21
28.0
31
0.0
0
LINE
8
OUTLINE
10
98.45
20
28.0
30
0.0
11
98.45
21
28.0
31
0.0
0
LINE
8
OUTLINE
10
98.45
20
28.0
30
0.0
11
98.45
21
28.75
31
0.0
0
LINE
8
OUTLINE
10
98.45
20
28.75
30
0.0
11
98.45
21
28.75
31
0.0
0
LINE
8
OUTLINE
10
98.45
20
28.75
30
0.0
11
98.45
21
28.0
31
0.0
0
LINE
8
OUTLINE
10
117.7
20
28.0
30
0.0
11
117.6999
21
28.0
31
0.0
0
LINE
8
OUTLINE
10
98.4501
20
28.0
30
0.0
11
98.45
21
28.0
31
0.0
0
LINE
8
OUTLINE
10
117.7
20
28.0
30
0.0
11
117.6999
21
28.0
31
0.0
0
LINE
8
OUTLINE
10
98.4501
20
28.0
30
0.0
11
98.45
21
28.0
31
0.0
0
LINE
8
OUTLINE
10
117.7
20
28.75
30
0.0
11
98.45
21
28.75
31
0.0
0
LINE
8
OUTLINE
10
117.7
20
28.75
30
0.0
11
98.45
21
28.75
31
0.0
0
LINE
8
OUTLINE
10
117.7
20
4.75
30
0.0
11
117.7
21
4.75
31
0.0
0
LINE
8
OUTLINE
10
117.7
20
4.75
30
0.0
11
117.7
21
28.0
31
0.0
0
LINE
8
OUTLINE
10
117.7
20
28.0
30
0.0
11
117.7
21
28.0
31
0.0
0
LINE
8
OUTLINE
10
117.7
20
28.0
30
0.0
11
117.7
21
4.75
31
0.0
0
LINE
8
OUTLINE
10
117.7
20
4.75
30
0.0
11
117.6999
21
4.75
31
0.0
0
LINE
8
OUTLINE
10
117.7
20
4.75
30
0.0
11
117.6999
21
4.75
31
0.0
0
LINE
8
OUTLINE
10
117.7
20
28.0
30
0.0
11
117.6999
21
28.0
31
0.0
0
LINE
8
OUTLINE
10
117.7
20
28.0
30
0.0
11
117.6999
21
28.0
31
0.0
0
LINE
8
OUTLINE
10
117.7
20
0.0
30
0.0
11
117.7
21
0.0
31
0.0
0
LINE
8
OUTLINE
10
117.7
20
0.0
30
0.0
11
117.7
21
4.0
31
0.0
0
LINE
8
OUTLINE
10
117.7
20
4.0
30
0.0
11
117.7
21
4.0
31
0.0
0
LINE
8
OUTLINE
10
117.7
20
4.0
30
0.0
11
117.7
21
0.0
31
0.0
0
LINE
8
OUTLINE
10
101.45
20
0.0
30
0.0
11
101.45
21
0.0
31
0.0
0
LINE
8
OUTLINE
10
101.45
20
0.0
30
0.0
11
101.45
21
4.0
31
0.0
0
LINE
8
OUTLINE
10
101.45
20
4.0
30
0.0
11
101.45
21
4.0
31
0.0
0
LINE
8
OUTLINE
10
101.45
20
4.0
30
0.0
11
101.45
21
0.0
31
0.0
0
LINE
8
OUTLINE
10
117.7
20
0.0
30
0.0
11
101.45
21
0.0
31
0.0
0
LINE
8
OUTLINE
10
117.7
20
0.0
30
0.0
11
101.45
21
0.0
31
0.0
0
LINE
8
OUTLINE
10
117.7
20
4.0
30
0.0
11
101.45
21
4.0
31
0.0
0
LINE
8
OUTLINE
10
117.7
20
4.0
30
0.0
11
101.45
21
4.0
31
0.0
0
LINE
8
OUTLINE
10
98.45
20
4.0
30
0.0
11
98.45
21
4.0
31
0.0
0
LINE
8
OUTLINE
10
98.45
20
4.0
30
0.0
11
98.45
21
28.75
31
0.0
0
LINE
8
OUTLINE
10
98.45
20
28.75
30
0.0
11
98.45
21
28.75
31
0.0
0
LINE
8
OUTLINE
10
98.45
20
28.75
30
0.0
11
98.45
21
4.0
31
0.0
0
LINE
8
OUTLINE
10
97.7
20
4.0
30
0.0
11
97.7
21
4.0
31
0.0
0
LINE
8
OUTLINE
10
97.7
20
4.0
30
0.0
11
97.7
21
28.75
31
0.0
0
LINE
8
OUTLINE
10
97.7
20
28.75
30
0.0
11
97.7
21
28.75
31
0.0
0
LINE
8
OUTLINE
10
97.7
20
28.75
30
0.0
11
97.7
21
4.0
31
0.0
0
LINE
8
OUTLINE
10
98.45
20
4.0
30
0.0
11
97.7
21
4.0
31
0.0
0
LINE
8
OUTLINE
10
98.45
20
4.0
30
0.0
11
97.7
21
4.0
31
0.0
0
LINE
8
OUTLINE
10
98.45
20
28.75
30
0.0
11
97.7
21
28.75
31
0.0
0
LINE
8
OUTLINE
10
98.45
20
28.75
30
0.0
11
97.7
21
28.75
31
0.0
0
LINE
8
OUTLINE
10
96.825
20
25.4375
30
0.0
11
96.825
21
25.4375
31
0.0
0
LINE
8
OUTLINE
10
96.825
20
25.4375
30
0.0
11
96.825
21
26.0625
31
0.0
0
LINE
8
OUTLINE
10
96.825
20
26.0625
30
0.0
11
96.825
21
26.0625
31
0.0
0
LINE
8
OUTLINE
10
96.825
20
26.0625
30
0.0
11
96.825
21
25.4375
31
0.0
0
LINE
8
OUTLINE
10
96.2
20
25.4375
30
0.0
11
96.2
21
25.4375
31
0.0
0
LINE
8
OUTLINE
10
96.2
20
25.4375
30
0.0
11
96.2
21
26.0625
31
0.0
0
LINE
8
OUTLINE
10
96.2
20
26.0625
30
0.0
11
96.2
21
26.0625
31
0.0
0
LINE
8
OUTLINE
10
96.2
20
26.0625
30
0.0
11
96.2
21
25.4375
31
0.0
0
LINE
8
OUTLINE
10
96.825
20
25.4375
30
0.0
11
96.2
21
25.4375
31
0.0
0
LINE
8
OUTLINE
10
96.825
20
25.4375
30
0.0
11
96.2
21
25.4375
31
0.0
0
LINE
8
OUTLINE
10
96.825
20
26.0625
30
0.0
11
96.2
21
26.0625
31
0.0
0
LINE
8
OUTLINE
10
96.825
20
26.0625
30
0.0
11
96.2
21
26.0625
31
0.0
0
LINE
8
OUTLINE
10
97.7
20
25.4375
30
0.0
11
97.7
21
25.4375
31
0.0
0
LINE
8
OUTLINE
10
97.7
20
25.4375
30
0.0
11
97.7
21
26.0625
31
0.0
0
LINE
8
OUTLINE
10
97.7
20
26.0625
30
0.0
11
97.7
21
26.0625
31
0.0
0
LINE
8
OUTLINE
10
97.7
20
26.0625
30
0.0
11
97.7
21
25.4375
31
0.0
0
LINE
8
OUTLINE
10
96.825
20
25.4375
30
0.0
11
96.825
21
25.4375
31
0.0
0
LINE
8
OUTLINE
10
96.825
20
25.4375
30
0.0
11
96.825
21
26.0625
31
0.0
0
LINE
8
OUTLINE
10
96.825
20
26.0625
30
0.0
11
96.825
21
26.0625
31
0.0
0
LINE
8
OUTLINE
10
96.825
20
26.0625
30
0.0
11
96.825
21
25.4375
31
0.0
0
LINE
8
OUTLINE
10
97.7
20
25.4375
30
0.0
11
96.825
21
25.4375
31
0.0
0
LINE
8
OUTLINE
10
97.7
20
25.4375
30
0.0
11
96.825
21
25.4375
31
0.0
0
LINE
8
OUTLINE
10
97.7
20
26.0625
30
0.0
11
96.825
21
26.0625
31
0.0
0
LINE
8
OUTLINE
10
97.7
20
26.0625
30
0.0
11
96.825
21
26.0625
31
0.0
0
LINE
8
OUTLINE
10
97.7
20
25.4375
30
0.0
11
97.7
21
25.4375
31
0.0
0
LINE
8
OUTLINE
10
97.7
20
25.4375
30
0.0
11
97.7
21
26.0625
31
0.0
0
LINE
8
OUTLINE
10
97.7
20
26.0625
30
0.0
11
97.7
21
26.0625
31
0.0
0
LINE
8
OUTLINE
10
97.7
20
26.0625
30
0.0
11
97.7
21
25.4375
31
0.0
0
LINE
8
OUTLINE
10
96.825
20
25.4375
30
0.0
11
96.825
21
25.4375
31
0.0
0
LINE
8
OUTLINE
10
96.825
20
25.4375
30
0.0
11
96.825
21
26.0625
31
0.0
0
LINE
8
OUTLINE
10
96.825
20
26.0625
30
0.0
11
96.825
21
26.0625
31
0.0
0
LINE
8
OUTLINE
10
96.825
20
26.0625
30
0.0
11
96.825
21
25.4375
31
0.0
0
LINE
8
OUTLINE
10
97.7
20
25.4375
30
0.0
11
96.825
21
25.4375
31
0.0
0
LINE
8
OUTLINE
10
97.7
20
25.4375
30
0.0
11
96.825
21
25.4375
31
0.0
0
LINE
8
OUTLINE
10
97.7
20
26.0625
30
0.0
11
96.825
21
26.0625
31
0.0
0
LINE
8
OUTLINE
10
97.7
20
26.0625
30
0.0
11
96.825
21
26.0625
31
0.0
0
LINE
8
OUTLINE
10
98.45
20
4.0
30
0.0
11
98.45
21
4.0
31
0.0
0
LINE
8
OUTLINE
10
98.45
20
4.0
30
0.0
11
98.45
21
28.75
31
0.0
0
LINE
8
OUTLINE
10
98.45
20
28.75
30
0.0
11
98.45
21
28.75
31
0.0
0
LINE
8
OUTLINE
10
98.45
20
28.75
30
0.0
11
98.45
21
4.0
31
0.0
0
LINE
8
OUTLINE
10
97.7
20
4.0
30
0.0
11
97.7
21
4.0
31
0.0
0
LINE
8
OUTLINE
10
97.7
20
4.0
30
0.0
11
97.7
21
28.75
31
0.0
0
LINE
8
OUTLINE
10
97.7
20
28.75
30
0.0
11
97.7
21
28.75
31
0.0
0
LINE
8
OUTLINE
10
97.7
20
28.75
30
0.0
11
97.7
21
4.0
31
0.0
0
LINE
8
OUTLINE
10
98.45
20
4.0
30
0.0
11
97.7
21
4.0
31
0.0
0
LINE
8
OUTLINE
10
98.45
20
4.0
30
0.0
11
97.7
21
4.0
31
0.0
0
LINE
8
OUTLINE
10
98.45
20
28.75
30
0.0
11
97.7
21
28.75
31
0.0
0
LINE
8
OUTLINE
10
98.45
20
28.75
30
0.0
11
97.7
21
28.75
31
0.0
0
LINE
8
OUTLINE
10
96.825
20
25.4375
30
0.0
11
96.825
21
25.4375
31
0.0
0
LINE
8
OUTLINE
10
96.825
20
25.4375
30
0.0
11
96.825
21
26.0625
31
0.0
0
LINE
8
OUTLINE
10
96.825
20
26.0625
30
0.0
11
96.825
21
26.0625
31
0.0
0
LINE
8
OUTLINE
10
96.825
20
26.0625
30
0.0
11
96.825
21
25.4375
31
0.0
0
LINE
8
OUTLINE
10
96.2
20
25.4375
30
0.0
11
96.2
21
25.4375
31
0.0
0
LINE
8
OUTLINE
10
96.2
20
25.4375
30
0.0
11
96.2
21
26.0625
31
0.0
0
LINE
8
OUTLINE
10
96.2
20
26.0625
30
0.0
11
96.2
21
26.0625
31
0.0
0
LINE
8
OUTLINE
10
96.2
20
26.0625
30
0.0
11
96.2
21
25.4375
31
0.0
0
LINE
8
OUTLINE
10
96.825
20
25.4375
30
0.0
11
96.2
21
25.4375
31
0.0
0
LINE
8
OUTLINE
10
96.825
20
25.4375
30
0.0
11
96.2
21
25.4375
31
0.0
0
LINE
8
OUTLINE
10
96.825
20
26.0625
30
0.0
11
96.2
21
26.0625
31
0.0
0
LINE
8
OUTLINE
10
96.825
20
26.0625
30
0.0
11
96.2
21
26.0625
31
0.0
0
LINE
8
OUTLINE
10
97.7
20
25.4375
30
0.0
11
97.7
21
25.4375
31
0.0
0
LINE
8
OUTLINE
10
97.7
20
25.4375
30
0.0
11
97.7
21
26.0625
31
0.0
0
LINE
8
OUTLINE
10
97.7
20
26.0625
30
0.0
11
97.7
21
26.0625
31
0.0
0
LINE
8
OUTLINE
10
97.7
20
26.0625
30
0.0
11
97.7
21
25.4375
31
0.0
0
LINE
8
OUTLINE
10
96.825
20
25.4375
30
0.0
11
96.825
21
25.4375
31
0.0
0
LINE
8
OUTLINE
10
96.825
20
25.4375
30
0.0
11
96.825
21
26.0625
31
0.0
0
LINE
8
OUTLINE
10
96.825
20
26.0625
30
0.0
11
96.825
21
26.0625
31
0.0
0
LINE
8
OUTLINE
10
96.825
20
26.0625
30
0.0
11
96.825
21
25.4375
31
0.0
0
LINE
8
OUTLINE
10
97.7
20
25.4375
30
0.0
11
96.825
21
25.4375
31
0.0
0
LINE
8
OUTLINE
10
97.7
20
25.4375
30
0.0
11
96.825
21
25.4375
31
0.0
0
LINE
8
OUTLINE
10
97.7
20
26.0625
30
0.0
11
96.825
21
26.0625
31
0.0
0
LINE
8
OUTLINE
10
97.7
20
26.0625
30
0.0
11
96.825
21
26.0625
31
0.0
0
LINE
8
OUTLINE
10
97.7
20
25.4375
30
0.0
11
97.7
21
25.4375
31
0.0
0
LINE
8
OUTLINE
10
97.7
20
25.4375
30
0.0
11
97.7
21
26.0625
31
0.0
0
LINE
8
OUTLINE
10
97.7
20
26.0625
30
0.0
11
97.7
21
26.0625
31
0.0
0
LINE
8
OUTLINE
10
97.7
20
26.0625
30
0.0
11
97.7
21
25.4375
31
0.0
0
LINE
8
OUTLINE
10
96.825
20
25.4375
30
0.0
11
96.825
21
25.4375
31
0.0
0
LINE
8
OUTLINE
10
96.825
20
25.4375
30
0.0
11
96.825
21
26.0625
31
0.0
0
LINE
8
OUTLINE
10
96.825
20
26.0625
30
0.0
11
96.825
21
26.0625
31
0.0
0
LINE
8
OUTLINE
10
96.825
20
26.0625
30
0.0
11
96.825
21
25.4375
31
0.0
0
LINE
8
OUTLINE
10
97.7
20
25.4375
30
0.0
11
96.825
21
25.4375
31
0.0
0
LINE
8
OUTLINE
10
97.7
20
25.4375
30
0.0
11
96.825
21
25.4375
31
0.0
0
LINE
8
OUTLINE
10
97.7
20
26.0625
30
0.0
11
96.825
21
26.0625
31
0.0
0
LINE
8
OUTLINE
10
97.7
20
26.0625
30
0.0
11
96.825
21
26.0625
31
0.0
0
LINE
8
OUTLINE
10
98.45
20
4.0
30
0.0
11
98.45
21
4.0
31
0.0
0
LINE
8
OUTLINE
10
98.45
20
4.0
30
0.0
11
98.45
21
28.75
31
0.0
0
LINE
8
OUTLINE
10
98.45
20
28.75
30
0.0
11
98.45
21
28.75
31
0.0
0
LINE
8
OUTLINE
10
98.45
20
28.75
30
0.0
11
98.45
21
4.0
31
0.0
0
LINE
8
OUTLINE
10
97.7
20
4.0
30
0.0
11
97.7
21
4.0
31
0.0
0
LINE
8
OUTLINE
10
97.7
20
4.0
30
0.0
11
97.7
21
28.75
31
0.0
0
LINE
8
OUTLINE
10
97.7
20
28.75
30
0.0
11
97.7
21
28.75
31
0.0
0
LINE
8
OUTLINE
10
97.7
20
28.75
30
0.0
11
97.7
21
4.0
31
0.0
0
LINE
8
OUTLINE
10
98.45
20
4.0
30
0.0
11
97.7
21
4.0
31
0.0
0
LINE
8
OUTLINE
10
98.45
20
4.0
30
0.0
11
97.7
21
4.0
31
0.0
0
LINE
8
OUTLINE
10
98.45
20
28.75
30
0.0
11
97.7
21
28.75
31
0.0
0
LINE
8
OUTLINE
10
98.45
20
28.75
30
0.0
11
97.7
21
28.75
31
0.0
0
LINE
8
OUTLINE
10
96.825
20
25.4375
30
0.0
11
96.825
21
25.4375
31
0.0
0
LINE
8
OUTLINE
10
96.825
20
25.4375
30
0.0
11
96.825
21
26.0625
31
0.0
0
LINE
8
OUTLINE
10
96.825
20
26.0625
30
0.0
11
96.825
21
26.0625
31
0.0
0
LINE
8
OUTLINE
10
96.825
20
26.0625
30
0.0
11
96.825
21
25.4375
31
0.0
0
LINE
8
OUTLINE
10
96.2
20
25.4375
30
0.0
11
96.2
21
25.4375
31
0.0
0
LINE
8
OUTLINE
10
96.2
20
25.4375
30
0.0
11
96.2
21
26.0625
31
0.0
0
LINE
8
OUTLINE
10
96.2
20
26.0625
30
0.0
11
96.2
21
26.0625
31
0.0
0
LINE
8
OUTLINE
10
96.2
20
26.0625
30
0.0
11
96.2
21
25.4375
31
0.0
0
LINE
8
OUTLINE
10
96.825
20
25.4375
30
0.0
11
96.2
21
25.4375
31
0.0
0
LINE
8
OUTLINE
10
96.825
20
25.4375
30
0.0
11
96.2
21
25.4375
31
0.0
0
LINE
8
OUTLINE
10
96.825
20
26.0625
30
0.0
11
96.2
21
26.0625
31
0.0
0
LINE
8
OUTLINE
10
96.825
20
26.0625
30
0.0
11
96.2
21
26.0625
31
0.0
0
LINE
8
OUTLINE
10
97.7
20
25.4375
30
0.0
11
97.7
21
25.4375
31
0.0
0
LINE
8
OUTLINE
10
97.7
20
25.4375
30
0.0
11
97.7
21
26.0625
31
0.0
0
LINE
8
OUTLINE
10
97.7
20
26.0625
30
0.0
11
97.7
21
26.0625
31
0.0
0
LINE
8
OUTLINE
10
97.7
20
26.0625
30
0.0
11
97.7
21
25.4375
31
0.0
0
LINE
8
OUTLINE
10
96.825
20
25.4375
30
0.0
11
96.825
21
25.4375
31
0.0
0
LINE
8
OUTLINE
10
96.825
20
25.4375
30
0.0
11
96.825
21
26.0625
31
0.0
0
LINE
8
OUTLINE
10
96.825
20
26.0625
30
0.0
11
96.825
21
26.0625
31
0.0
0
LINE
8
OUTLINE
10
96.825
20
26.0625
30
0.0
11
96.825
21
25.4375
31
0.0
0
LINE
8
OUTLINE
10
97.7
20
25.4375
30
0.0
11
96.825
21
25.4375
31
0.0
0
LINE
8
OUTLINE
10
97.7
20
25.4375
30
0.0
11
96.825
21
25.4375
31
0.0
0
LINE
8
OUTLINE
10
97.7
20
26.0625
30
0.0
11
96.825
21
26.0625
31
0.0
0
LINE
8
OUTLINE
10
97.7
20
26.0625
30
0.0
11
96.825
21
26.0625
31
0.0
0
LINE
8
OUTLINE
10
97.7
20
25.4375
30
0.0
11
97.7
21
25.4375
31
0.0
0
LINE
8
OUTLINE
10
97.7
20
25.4375
30
0.0
11
97.7
21
26.0625
31
0.0
0
LINE
8
OUTLINE
10
97.7
20
26.0625
30
0.0
11
97.7
21
26.0625
31
0.0
0
LINE
8
OUTLINE
10
97.7
20
26.0625
30
0.0
11
97.7
21
25.4375
31
0.0
0
LINE
8
OUTLINE
10
96.825
20
25.4375
30
0.0
11
96.825
21
25.4375
31
0.0
0
LINE
8
OUTLINE
10
96.825
20
25.4375
30
0.0
11
96.825
21
26.0625
31
0.0
0
LINE
8
OUTLINE
10
96.825
20
26.0625
30
0.0
11
96.825
21
26.0625
31
0.0
0
LINE
8
OUTLINE
10
96.825
20
26.0625
30
0.0
11
96.825
21
25.4375
31
0.0
0
LINE
8
OUTLINE
10
97.7
20
25.4375
30
0.0
11
96.825
21
25.4375
31
0.0
0
LINE
8
OUTLINE
10
97.7
20
25.4375
30
0.0
11
96.825
21
25.4375
31
0.0
0
LINE
8
OUTLINE
10
97.7
20
26.0625
30
0.0
11
96.825
21
26.0625
31
0.0
0
LINE
8
OUTLINE
10
97.7
20
26.0625
30
0.0
11
96.825
21
26.0625
31
0.0
0
LINE
8
OUTLINE
10
117.7
20
28.75
30
0.0
11
117.7
21
28.75
31
0.0
0
LINE
8
OUTLINE
10
117.7
20
28.75
30
0.0
11
117.7
21
30.0
31
0.0
0
LINE
8
OUTLINE
10
117.7
20
30.0
30
0.0
11
117.7
21
30.0
31
0.0
0
LINE
8
OUTLINE
10
117.7
20
30.0
30
0.0
11
117.7
21
28.75
31
0.0
0
LINE
8
OUTLINE
10
96.7
20
28.75
30
0.0
11
96.7
21
28.75
31
0.0
0
LINE
8
OUTLINE
10
96.7
20
28.75
30
0.0
11
96.7
21
30.0
31
0.0
0
LINE
8
OUTLINE
10
96.7
20
30.0
30
0.0
11
96.7
21
30.0
31
0.0
0
LINE
8
OUTLINE
10
96.7
20
30.0
30
0.0
11
96.7
21
28.75
31
0.0
0
LINE
8
OUTLINE
10
117.7
20
28.75
30
0.0
11
96.7
21
28.75
31
0.0
0
LINE
8
OUTLINE
10
117.7
20
28.75
30
0.0
11
96.7
21
28.75
31
0.0
0
LINE
8
OUTLINE
10
117.7
20
30.0
30
0.0
11
96.7
21
30.0
31
0.0
0
LINE
8
OUTLINE
10
117.7
20
30.0
30
0.0
11
96.7
21
30.0
31
0.0
0
TEXT
8
VIEWLABEL
10
96.2
20
-17.76
30
0.0
40
1.702
1
RIGHT SIDE ELEVATION
50
0.0
72
0.0
73
0.0
11
96.2
21
-17.76
31
0.0
0
LINE
8
OUTLINE
10
1.0
20
76.66
30
0.0
11
1.75
21
76.66
31
0.0
0
LINE
8
OUTLINE
10
1.75
20
76.66
30
0.0
11
1.75
21
76.66
31
0.0
0
LINE
8
OUTLINE
10
1.75
20
76.66
30
0.0
11
1.0
21
76.66
31
0.0
0
LINE
8
OUTLINE
10
1.0
20
76.66
30
0.0
11
1.0
21
76.66
31
0.0
0
LINE
8
OUTLINE
10
1.0
20
76.66
30
0.0
11
1.0
21
76.6599
31
0.0
0
LINE
8
OUTLINE
10
1.75
20
76.66
30
0.0
11
1.75
21
76.6599
31
0.0
0
LINE
8
OUTLINE
10
1.75
20
76.66
30
0.0
11
1.75
21
76.6599
31
0.0
0
LINE
8
OUTLINE
10
1.0
20
76.66
30
0.0
11
1.0
21
76.6599
31
0.0
0
LINE
8
OUTLINE
10
72.25
20
76.66
30
0.0
11
73.0
21
76.66
31
0.0
0
LINE
8
OUTLINE
10
73.0
20
76.66
30
0.0
11
73.0
21
76.66
31
0.0
0
LINE
8
OUTLINE
10
73.0
20
76.66
30
0.0
11
72.25
21
76.66
31
0.0
0
LINE
8
OUTLINE
10
72.25
20
76.66
30
0.0
11
72.25
21
76.66
31
0.0
0
LINE
8
OUTLINE
10
72.25
20
76.66
30
0.0
11
72.25
21
76.6599
31
0.0
0
LINE
8
OUTLINE
10
73.0
20
76.66
30
0.0
11
73.0
21
76.6599
31
0.0
0
LINE
8
OUTLINE
10
73.0
20
76.66
30
0.0
11
73.0
21
76.6599
31
0.0
0
LINE
8
OUTLINE
10
72.25
20
76.66
30
0.0
11
72.25
21
76.6599
31
0.0
0
LINE
8
OUTLINE
10
1.75
20
76.66
30
0.0
11
72.25
21
76.66
31
0.0
0
LINE
8
OUTLINE
10
72.25
20
76.66
30
0.0
11
72.25
21
76.66
31
0.0
0
LINE
8
OUTLINE
10
72.25
20
76.66
30
0.0
11
1.75
21
76.66
31
0.0
0
LINE
8
OUTLINE
10
1.75
20
76.66
30
0.0
11
1.75
21
76.66
31
0.0
0
LINE
8
OUTLINE
10
1.75
20
76.66
30
0.0
11
1.75
21
76.6599
31
0.0
0
LINE
8
OUTLINE
10
72.25
20
76.66
30
0.0
11
72.25
21
76.6599
31
0.0
0
LINE
8
OUTLINE
10
72.25
20
76.66
30
0.0
11
72.25
21
76.6599
31
0.0
0
LINE
8
OUTLINE
10
1.75
20
76.66
30
0.0
11
1.75
21
76.6599
31
0.0
0
LINE
8
OUTLINE
10
1.75
20
76.66
30
0.0
11
72.25
21
76.66
31
0.0
0
LINE
8
OUTLINE
10
72.25
20
76.66
30
0.0
11
72.25
21
76.66
31
0.0
0
LINE
8
OUTLINE
10
72.25
20
76.66
30
0.0
11
1.75
21
76.66
31
0.0
0
LINE
8
OUTLINE
10
1.75
20
76.66
30
0.0
11
1.75
21
76.66
31
0.0
0
LINE
8
OUTLINE
10
1.75
20
76.66
30
0.0
11
1.75
21
76.6599
31
0.0
0
LINE
8
OUTLINE
10
72.25
20
76.66
30
0.0
11
72.25
21
76.6599
31
0.0
0
LINE
8
OUTLINE
10
72.25
20
76.66
30
0.0
11
72.25
21
76.6599
31
0.0
0
LINE
8
OUTLINE
10
1.75
20
76.66
30
0.0
11
1.75
21
76.6599
31
0.0
0
LINE
8
OUTLINE
10
1.75
20
76.66
30
0.0
11
72.25
21
76.66
31
0.0
0
LINE
8
OUTLINE
10
72.25
20
76.66
30
0.0
11
72.25
21
76.66
31
0.0
0
LINE
8
OUTLINE
10
72.25
20
76.66
30
0.0
11
1.75
21
76.66
31
0.0
0
LINE
8
OUTLINE
10
1.75
20
76.66
30
0.0
11
1.75
21
76.66
31
0.0
0
LINE
8
OUTLINE
10
1.75
20
76.66
30
0.0
11
1.75
21
76.6599
31
0.0
0
LINE
8
OUTLINE
10
72.25
20
76.66
30
0.0
11
72.25
21
76.6599
31
0.0
0
LINE
8
OUTLINE
10
72.25
20
76.66
30
0.0
11
72.25
21
76.6599
31
0.0
0
LINE
8
OUTLINE
10
1.75
20
76.66
30
0.0
11
1.75
21
76.6599
31
0.0
0
LINE
8
OUTLINE
10
1.0
20
76.66
30
0.0
11
73.0
21
76.66
31
0.0
0
LINE
8
OUTLINE
10
73.0
20
76.66
30
0.0
11
73.0
21
76.66
31
0.0
0
LINE
8
OUTLINE
10
73.0
20
76.66
30
0.0
11
1.0
21
76.66
31
0.0
0
LINE
8
OUTLINE
10
1.0
20
76.66
30
0.0
11
1.0
21
76.66
31
0.0
0
LINE
8
OUTLINE
10
1.0
20
76.66
30
0.0
11
1.0
21
76.6599
31
0.0
0
LINE
8
OUTLINE
10
73.0
20
76.66
30
0.0
11
73.0
21
76.6599
31
0.0
0
LINE
8
OUTLINE
10
73.0
20
76.66
30
0.0
11
73.0
21
76.6599
31
0.0
0
LINE
8
OUTLINE
10
1.0
20
76.66
30
0.0
11
1.0
21
76.6599
31
0.0
0
LINE
8
OUTLINE
10
7.577083
20
55.16
30
0.0
11
18.339583
21
55.16
31
0.0
0
LINE
8
OUTLINE
10
18.339583
20
55.16
30
0.0
11
18.339583
21
55.16
31
0.0
0
LINE
8
OUTLINE
10
18.339583
20
55.16
30
0.0
11
7.577083
21
55.16
31
0.0
0
LINE
8
OUTLINE
10
7.577083
20
55.16
30
0.0
11
7.577083
21
55.16
31
0.0
0
LINE
8
OUTLINE
10
7.577083
20
55.6601
30
0.0
11
7.577083
21
55.16
31
0.0
0
LINE
8
OUTLINE
10
18.339583
20
55.6601
30
0.0
11
18.339583
21
55.16
31
0.0
0
LINE
8
OUTLINE
10
18.339583
20
55.6601
30
0.0
11
18.339583
21
55.16
31
0.0
0
LINE
8
OUTLINE
10
7.577083
20
55.6601
30
0.0
11
7.577083
21
55.16
31
0.0
0
LINE
8
OUTLINE
10
31.61875
20
55.16
30
0.0
11
42.38125
21
55.16
31
0.0
0
LINE
8
OUTLINE
10
42.38125
20
55.16
30
0.0
11
42.38125
21
55.16
31
0.0
0
LINE
8
OUTLINE
10
42.38125
20
55.16
30
0.0
11
31.61875
21
55.16
31
0.0
0
LINE
8
OUTLINE
10
31.61875
20
55.16
30
0.0
11
31.61875
21
55.16
31
0.0
0
LINE
8
OUTLINE
10
31.61875
20
55.6601
30
0.0
11
31.61875
21
55.16
31
0.0
0
LINE
8
OUTLINE
10
42.38125
20
55.6601
30
0.0
11
42.38125
21
55.16
31
0.0
0
LINE
8
OUTLINE
10
42.38125
20
55.6601
30
0.0
11
42.38125
21
55.16
31
0.0
0
LINE
8
OUTLINE
10
31.61875
20
55.6601
30
0.0
11
31.61875
21
55.16
31
0.0
0
LINE
8
OUTLINE
10
55.660417
20
55.16
30
0.0
11
66.422917
21
55.16
31
0.0
0
LINE
8
OUTLINE
10
66.422917
20
55.16
30
0.0
11
66.422917
21
55.16
31
0.0
0
LINE
8
OUTLINE
10
66.422917
20
55.16
30
0.0
11
55.660417
21
55.16
31
0.0
0
LINE
8
OUTLINE
10
55.660417
20
55.16
30
0.0
11
55.660417
21
55.16
31
0.0
0
LINE
8
OUTLINE
10
55.660417
20
55.6601
30
0.0
11
55.660417
21
55.16
31
0.0
0
LINE
8
OUTLINE
10
66.422917
20
55.6601
30
0.0
11
66.422917
21
55.16
31
0.0
0
LINE
8
OUTLINE
10
66.422917
20
55.6601
30
0.0
11
66.422917
21
55.16
31
0.0
0
LINE
8
OUTLINE
10
55.660417
20
55.6601
30
0.0
11
55.660417
21
55.16
31
0.0
0
LINE
8
OUTLINE
10
0.0
20
76.66
30
0.0
11
74.0
21
76.66
31
0.0
0
LINE
8
OUTLINE
10
74.0
20
76.66
30
0.0
11
74.0
21
76.66
31
0.0
0
LINE
8
OUTLINE
10
74.0
20
76.66
30
0.0
11
0.0
21
76.66
31
0.0
0
LINE
8
OUTLINE
10
0.0
20
76.66
30
0.0
11
0.0
21
76.66
31
0.0
0
LINE
8
OUTLINE
10
0.0
20
55.66
30
0.0
11
74.0
21
55.66
31
0.0
0
LINE
8
OUTLINE
10
74.0
20
55.66
30
0.0
11
74.0
21
55.66
31
0.0
0
LINE
8
OUTLINE
10
74.0
20
55.66
30
0.0
11
0.0
21
55.66
31
0.0
0
LINE
8
OUTLINE
10
0.0
20
55.66
30
0.0
11
0.0
21
55.66
31
0.0
0
LINE
8
OUTLINE
10
0.0
20
76.66
30
0.0
11
0.0
21
55.66
31
0.0
0
LINE
8
OUTLINE
10
74.0
20
76.66
30
0.0
11
74.0
21
55.66
31
0.0
0
LINE
8
OUTLINE
10
74.0
20
76.66
30
0.0
11
74.0
21
55.66
31
0.0
0
LINE
8
OUTLINE
10
0.0
20
76.66
30
0.0
11
0.0
21
55.66
31
0.0
0
TEXT
8
VIEWLABEL
10
0.0
20
82.58
30
0.0
40
1.702
1
PLAN
50
0.0
72
0.0
73
0.0
11
0.0
21
82.58
31
0.0
0
LINE
8
OUTLINE
10
162.667775
20
62.265832
30
0.0
11
162.668037
21
62.265757
31
0.0
0
LINE
8
OUTLINE
10
162.668037
20
62.265757
30
0.0
11
162.668037
21
85.589072
31
0.0
0
LINE
8
OUTLINE
10
149.055969
20
58.390618
30
0.0
11
149.056232
21
58.390543
31
0.0
0
LINE
8
OUTLINE
10
149.056232
20
58.390543
30
0.0
11
149.056232
21
81.713858
31
0.0
0
LINE
8
OUTLINE
10
162.668037
20
62.265757
30
0.0
11
149.056232
21
58.390543
31
0.0
0
LINE
8
OUTLINE
10
162.667775
20
58.431359
30
0.0
11
162.668037
21
58.431284
31
0.0
0
LINE
8
OUTLINE
10
162.668037
20
58.431284
30
0.0
11
162.668037
21
62.265757
31
0.0
0
LINE
8
OUTLINE
10
162.668037
20
62.265757
30
0.0
11
162.667775
21
62.265832
31
0.0
0
LINE
8
OUTLINE
10
100.265864
20
69.654306
30
0.0
11
151.177552
21
55.16
31
0.0
0
LINE
8
OUTLINE
10
151.177552
20
55.16
30
0.0
11
151.177552
21
58.994473
31
0.0
0
LINE
8
OUTLINE
10
151.177552
20
58.994473
30
0.0
11
151.177289
21
58.994547
31
0.0
0
LINE
8
OUTLINE
10
100.265864
20
71.979091
30
0.0
11
100.265864
21
69.654306
31
0.0
0
LINE
8
OUTLINE
10
100.266127
20
69.654381
30
0.0
11
100.265864
21
69.654306
31
0.0
0
LINE
8
OUTLINE
10
162.668037
20
58.431284
30
0.0
11
151.177552
21
55.16
31
0.0
0
LINE
8
OUTLINE
10
162.668037
20
62.265757
30
0.0
11
151.177552
21
58.994473
31
0.0
0
LINE
8
OUTLINE
10
97.614214
20
72.733867
30
0.0
11
114.525851
21
67.919207
31
0.0
0
LINE
8
OUTLINE
10
114.525851
20
67.919207
30
0.0
11
114.525851
21
91.242523
31
0.0
0
LINE
8
OUTLINE
10
97.614214
20
96.057182
30
0.0
11
97.614214
21
72.733867
31
0.0
0
LINE
8
OUTLINE
10
97.614476
20
72.733942
30
0.0
11
97.614214
21
72.733867
31
0.0
0
LINE
8
OUTLINE
10
114.614381
20
67.944411
30
0.0
11
114.525851
21
67.919207
31
0.0
0
LINE
8
OUTLINE
10
109.256169
20
89.617544
30
0.0
11
109.256432
21
89.617469
31
0.0
0
LINE
8
OUTLINE
10
109.256432
20
89.617469
30
0.0
11
109.256432
21
90.216605
31
0.0
0
LINE
8
OUTLINE
10
109.256432
20
90.216605
30
0.0
11
101.646195
21
92.383202
31
0.0
0
LINE
8
OUTLINE
10
101.646195
20
92.383202
30
0.0
11
101.646195
21
92.382997
31
0.0
0
LINE
8
OUTLINE
10
101.204254
20
91.658247
30
0.0
11
108.81449
21
89.49165
31
0.0
0
LINE
8
OUTLINE
10
108.81449
20
89.49165
30
0.0
11
108.81449
21
90.090787
31
0.0
0
LINE
8
OUTLINE
10
108.81449
20
90.090787
30
0.0
11
101.204254
21
92.257383
31
0.0
0
LINE
8
OUTLINE
10
101.204254
20
92.257383
30
0.0
11
101.204254
21
91.658247
31
0.0
0
LINE
8
OUTLINE
10
101.204517
20
91.658322
30
0.0
11
101.204254
21
91.658247
31
0.0
0
LINE
8
OUTLINE
10
109.256432
20
89.617469
30
0.0
11
108.81449
21
89.49165
31
0.0
0
LINE
8
OUTLINE
10
109.256432
20
90.216605
30
0.0
11
108.81449
21
90.090787
31
0.0
0
LINE
8
OUTLINE
10
101.646195
20
92.383202
30
0.0
11
101.204254
21
92.257383
31
0.0
0
LINE
8
OUTLINE
10
103.848391
20
91.756112
30
0.0
11
103.848391
21
92.10854
31
0.0
0
LINE
8
OUTLINE
10
103.848391
20
92.10854
30
0.0
11
103.406449
21
92.234359
31
0.0
0
LINE
8
OUTLINE
10
103.406449
20
92.234359
30
0.0
11
103.406449
21
92.234153
31
0.0
0
LINE
8
OUTLINE
10
103.229673
20
91.932189
30
0.0
11
103.229673
21
91.932394
31
0.0
0
LINE
8
OUTLINE
10
103.229673
20
91.932394
30
0.0
11
102.787731
21
92.058212
31
0.0
0
LINE
8
OUTLINE
10
102.787731
20
92.058212
30
0.0
11
102.787731
21
92.058007
31
0.0
0
LINE
8
OUTLINE
10
103.848391
20
92.10854
30
0.0
11
103.229673
21
91.932394
31
0.0
0
LINE
8
OUTLINE
10
103.406449
20
92.234359
30
0.0
11
102.787731
21
92.058212
31
0.0
0
LINE
8
OUTLINE
10
108.733615
20
90.365312
30
0.0
11
108.733615
21
90.717741
31
0.0
0
LINE
8
OUTLINE
10
108.733615
20
90.717741
30
0.0
11
108.291673
21
90.843559
31
0.0
0
LINE
8
OUTLINE
10
108.291673
20
90.843559
30
0.0
11
108.291673
21
90.843354
31
0.0
0
LINE
8
OUTLINE
10
108.114897
20
90.541389
30
0.0
11
108.114897
21
90.541595
31
0.0
0
LINE
8
OUTLINE
10
108.114897
20
90.541595
30
0.0
11
107.672955
21
90.667413
31
0.0
0
LINE
8
OUTLINE
10
107.672955
20
90.667413
30
0.0
11
107.672955
21
90.667208
31
0.0
0
LINE
8
OUTLINE
10
108.733615
20
90.717741
30
0.0
11
108.114897
21
90.541595
31
0.0
0
LINE
8
OUTLINE
10
108.291673
20
90.843559
30
0.0
11
107.672955
21
90.667413
31
0.0
0
LINE
8
OUTLINE
10
114.614239
20
67.894044
30
0.0
11
131.525876
21
63.079384
31
0.0
0
LINE
8
OUTLINE
10
131.525876
20
63.079384
30
0.0
11
131.525876
21
86.402699
31
0.0
0
LINE
8
OUTLINE
10
114.614239
20
91.217359
30
0.0
11
114.614239
21
67.894044
31
0.0
0
LINE
8
OUTLINE
10
114.614502
20
67.894118
30
0.0
11
114.614239
21
67.894044
31
0.0
0
LINE
8
OUTLINE
10
131.614406
20
63.104588
30
0.0
11
131.525876
21
63.079384
31
0.0
0
LINE
8
OUTLINE
10
126.256195
20
84.77772
30
0.0
11
126.256458
21
84.777646
31
0.0
0
LINE
8
OUTLINE
10
126.256458
20
84.777646
30
0.0
11
126.256458
21
85.376782
31
0.0
0
LINE
8
OUTLINE
10
126.256458
20
85.376782
30
0.0
11
118.646221
21
87.543379
31
0.0
0
LINE
8
OUTLINE
10
118.646221
20
87.543379
30
0.0
11
118.646221
21
87.543173
31
0.0
0
LINE
8
OUTLINE
10
118.204279
20
86.818424
30
0.0
11
125.814516
21
84.651827
31
0.0
0
LINE
8
OUTLINE
10
125.814516
20
84.651827
30
0.0
11
125.814516
21
85.250963
31
0.0
0
LINE
8
OUTLINE
10
125.814516
20
85.250963
30
0.0
11
118.204279
21
87.41756
31
0.0
0
LINE
8
OUTLINE
10
118.204279
20
87.41756
30
0.0
11
118.204279
21
86.818424
31
0.0
0
LINE
8
OUTLINE
10
118.204542
20
86.818499
30
0.0
11
118.204279
21
86.818424
31
0.0
0
LINE
8
OUTLINE
10
126.256458
20
84.777646
30
0.0
11
125.814516
21
84.651827
31
0.0
0
LINE
8
OUTLINE
10
126.256458
20
85.376782
30
0.0
11
125.814516
21
85.250963
31
0.0
0
LINE
8
OUTLINE
10
118.646221
20
87.543379
30
0.0
11
118.204279
21
87.41756
31
0.0
0
LINE
8
OUTLINE
10
120.848417
20
86.916288
30
0.0
11
120.848417
21
87.268717
31
0.0
0
LINE
8
OUTLINE
10
120.848417
20
87.268717
30
0.0
11
120.406475
21
87.394535
31
0.0
0
LINE
8
OUTLINE
10
120.406475
20
87.394535
30
0.0
11
120.406475
21
87.39433
31
0.0
0
LINE
8
OUTLINE
10
120.229698
20
87.092365
30
0.0
11
120.229698
21
87.092571
31
0.0
0
LINE
8
OUTLINE
10
120.229698
20
87.092571
30
0.0
11
119.787756
21
87.218389
31
0.0
0
LINE
8
OUTLINE
10
119.787756
20
87.218389
30
0.0
11
119.787756
21
87.218184
31
0.0
0
LINE
8
OUTLINE
10
120.848417
20
87.268717
30
0.0
11
120.229698
21
87.092571
31
0.0
0
LINE
8
OUTLINE
10
120.406475
20
87.394535
30
0.0
11
119.787756
21
87.218389
31
0.0
0
LINE
8
OUTLINE
10
125.733641
20
85.525489
30
0.0
11
125.733641
21
85.877917
31
0.0
0
LINE
8
OUTLINE
10
125.733641
20
85.877917
30
0.0
11
125.291699
21
86.003736
31
0.0
0
LINE
8
OUTLINE
10
125.291699
20
86.003736
30
0.0
11
125.291699
21
86.003531
31
0.0
0
LINE
8
OUTLINE
10
125.114922
20
85.701566
30
0.0
11
125.114922
21
85.701771
31
0.0
0
LINE
8
OUTLINE
10
125.114922
20
85.701771
30
0.0
11
124.67298
21
85.82759
31
0.0
0
LINE
8
OUTLINE
10
124.67298
20
85.82759
30
0.0
11
124.67298
21
85.827385
31
0.0
0
LINE
8
OUTLINE
10
125.733641
20
85.877917
30
0.0
11
125.114922
21
85.701771
31
0.0
0
LINE
8
OUTLINE
10
125.291699
20
86.003736
30
0.0
11
124.67298
21
85.82759
31
0.0
0
LINE
8
OUTLINE
10
149.055969
20
58.390618
30
0.0
11
149.056232
21
58.390543
31
0.0
0
LINE
8
OUTLINE
10
149.056232
20
58.390543
30
0.0
11
149.056232
21
81.713858
31
0.0
0
LINE
8
OUTLINE
10
131.614265
20
63.05422
30
0.0
11
148.525902
21
58.239561
31
0.0
0
LINE
8
OUTLINE
10
148.525902
20
58.239561
30
0.0
11
148.525902
21
81.562876
31
0.0
0
LINE
8
OUTLINE
10
131.614265
20
86.377536
30
0.0
11
131.614265
21
63.05422
31
0.0
0
LINE
8
OUTLINE
10
131.614528
20
63.054295
30
0.0
11
131.614265
21
63.05422
31
0.0
0
LINE
8
OUTLINE
10
149.056232
20
58.390543
30
0.0
11
148.525902
21
58.239561
31
0.0
0
LINE
8
OUTLINE
10
143.25622
20
79.937897
30
0.0
11
143.256483
21
79.937822
31
0.0
0
LINE
8
OUTLINE
10
143.256483
20
79.937822
30
0.0
11
143.256483
21
80.536959
31
0.0
0
LINE
8
OUTLINE
10
143.256483
20
80.536959
30
0.0
11
135.646246
21
82.703555
31
0.0
0
LINE
8
OUTLINE
10
135.646246
20
82.703555
30
0.0
11
135.646246
21
82.70335
31
0.0
0
LINE
8
OUTLINE
10
135.204305
20
81.9786
30
0.0
11
142.814541
21
79.812004
31
0.0
0
LINE
8
OUTLINE
10
142.814541
20
79.812004
30
0.0
11
142.814541
21
80.41114
31
0.0
0
LINE
8
OUTLINE
10
142.814541
20
80.41114
30
0.0
11
135.204305
21
82.577737
31
0.0
0
LINE
8
OUTLINE
10
135.204305
20
82.577737
30
0.0
11
135.204305
21
81.9786
31
0.0
0
LINE
8
OUTLINE
10
135.204568
20
81.978675
30
0.0
11
135.204305
21
81.9786
31
0.0
0
LINE
8
OUTLINE
10
143.256483
20
79.937822
30
0.0
11
142.814541
21
79.812004
31
0.0
0
LINE
8
OUTLINE
10
143.256483
20
80.536959
30
0.0
11
142.814541
21
80.41114
31
0.0
0
LINE
8
OUTLINE
10
135.646246
20
82.703555
30
0.0
11
135.204305
21
82.577737
31
0.0
0
LINE
8
OUTLINE
10
137.848442
20
82.076465
30
0.0
11
137.848442
21
82.428893
31
0.0
0
LINE
8
OUTLINE
10
137.848442
20
82.428893
30
0.0
11
137.4065
21
82.554712
31
0.0
0
LINE
8
OUTLINE
10
137.4065
20
82.554712
30
0.0
11
137.4065
21
82.554507
31
0.0
0
LINE
8
OUTLINE
10
137.229724
20
82.252542
30
0.0
11
137.229724
21
82.252747
31
0.0
0
LINE
8
OUTLINE
10
137.229724
20
82.252747
30
0.0
11
136.787782
21
82.378566
31
0.0
0
LINE
8
OUTLINE
10
136.787782
20
82.378566
30
0.0
11
136.787782
21
82.378361
31
0.0
0
LINE
8
OUTLINE
10
137.848442
20
82.428893
30
0.0
11
137.229724
21
82.252747
31
0.0
0
LINE
8
OUTLINE
10
137.4065
20
82.554712
30
0.0
11
136.787782
21
82.378566
31
0.0
0
LINE
8
OUTLINE
10
142.733666
20
80.685666
30
0.0
11
142.733666
21
81.038094
31
0.0
0
LINE
8
OUTLINE
10
142.733666
20
81.038094
30
0.0
11
142.291724
21
81.163913
31
0.0
0
LINE
8
OUTLINE
10
142.291724
20
81.163913
30
0.0
11
142.291724
21
81.163708
31
0.0
0
LINE
8
OUTLINE
10
142.114948
20
80.861743
30
0.0
11
142.114948
21
80.861948
31
0.0
0
LINE
8
OUTLINE
10
142.114948
20
80.861948
30
0.0
11
141.673006
21
80.987767
31
0.0
0
LINE
8
OUTLINE
10
141.673006
20
80.987767
30
0.0
11
141.673006
21
80.987561
31
0.0
0
LINE
8
OUTLINE
10
142.733666
20
81.038094
30
0.0
11
142.114948
21
80.861948
31
0.0
0
LINE
8
OUTLINE
10
142.291724
20
81.163913
30
0.0
11
141.673006
21
80.987767
31
0.0
0
LINE
8
OUTLINE
10
163.374881
20
85.790321
30
0.0
11
163.375144
21
85.790246
31
0.0
0
LINE
8
OUTLINE
10
163.375144
20
85.790246
30
0.0
11
163.375144
21
86.988519
31
0.0
0
LINE
8
OUTLINE
10
163.375144
20
86.988519
30
0.0
11
111.049242
21
101.885444
31
0.0
0
LINE
8
OUTLINE
10
111.049242
20
101.885444
30
0.0
11
111.049242
21
101.885239
31
0.0
0
LINE
8
OUTLINE
10
96.2
20
96.459666
30
0.0
11
148.525902
21
81.56274
31
0.0
0
LINE
8
OUTLINE
10
148.525902
20
81.56274
30
0.0
11
148.525902
21
82.761013
31
0.0
0
LINE
8
OUTLINE
10
148.525902
20
82.761013
30
0.0
11
96.2
21
97.657938
31
0.0
0
LINE
8
OUTLINE
10
96.2
20
97.657938
30
0.0
11
96.2
21
96.459666
31
0.0
0
LINE
8
OUTLINE
10
96.200263
20
96.459741
30
0.0
11
96.2
21
96.459666
31
0.0
0
LINE
8
OUTLINE
10
163.375144
20
85.790246
30
0.0
11
148.525902
21
81.56274
31
0.0
0
LINE
8
OUTLINE
10
163.375144
20
86.988519
30
0.0
11
148.525902
21
82.761013
31
0.0
0
LINE
8
OUTLINE
10
111.049242
20
101.885444
30
0.0
11
96.2
21
97.657938
31
0.0
0
TEXT
8
VIEWLABEL
10
96.2
20
107.805444
30
0.0
40
1.702
1
ISOMETRIC
50
0.0
72
0.0
73
0.0
11
96.2
21
107.805444
31
0.0
0
LINE
8
DIMS
10
0.0
20
0.0
30
0.0
11
0.0
21
-8.288
31
0.0
0
LINE
8
DIMS
10
74.0
20
0.0
30
0.0
11
74.0
21
-8.288
31
0.0
0
LINE
8
DIMS
10
0.0
20
-7.4
30
0.0
11
74.0
21
-7.4
31
0.0
0
SOLID
8
DIMS
10
0.0
20
-7.4
30
0.0
11
1.332
21
-7.63976
31
0.0
12
1.332
22
-7.16024
32
0.0
13
1.332
23
-7.16024
33
0.0
0
SOLID
8
DIMS
10
74.0
20
-7.4
30
0.0
11
72.668
21
-7.16024
31
0.0
12
72.668
22
-7.63976
32
0.0
13
72.668
23
-7.63976
33
0.0
0
TEXT
8
DIMS
10
37.0
20
-6.808
30
0.0
40
1.48
1
74"
50
0.0
72
1.0
73
0.0
11
37.0
21
-6.808
31
0.0
0
LINE
8
DIMS
10
0.0
20
0.0
30
0.0
11
-8.288
21
0.0
31
0.0
0
LINE
8
DIMS
10
0.0
20
30.0
30
0.0
11
-8.288
21
30.0
31
0.0
0
LINE
8
DIMS
10
-7.4
20
0.0
30
0.0
11
-7.4
21
30.0
31
0.0
0
SOLID
8
DIMS
10
-7.4
20
0.0
30
0.0
11
-7.16024
21
1.332
31
0.0
12
-7.63976
22
1.332
32
0.0
13
-7.63976
23
1.332
33
0.0
0
SOLID
8
DIMS
10
-7.4
20
30.0
30
0.0
11
-7.63976
21
28.668
31
0.0
12
-7.16024
22
28.668
32
0.0
13
-7.16024
23
28.668
33
0.0
0
TEXT
8
DIMS
10
-7.992
20
15.0
30
0.0
40
1.48
1
30"
50
90.0
72
1.0
73
0.0
11
-7.992
21
15.0
31
0.0
0
LINE
8
DIMS
10
96.2
20
0.0
30
0.0
11
96.2
21
-8.288
31
0.0
0
LINE
8
DIMS
10
117.7
20
0.0
30
0.0
11
117.7
21
-8.288
31
0.0
0
LINE
8
DIMS
10
96.2
20
-7.4
30
0.0
11
117.7
21
-7.4
31
0.0
0
SOLID
8
DIMS
10
96.2
20
-7.4
30
0.0
11
97.532
21
-7.63976
31
0.0
12
97.532
22
-7.16024
32
0.0
13
97.532
23
-7.16024
33
0.0
0
SOLID
8
DIMS
10
117.7
20
-7.4
30
0.0
11
116.368
21
-7.16024
31
0.0
12
116.368
22
-7.63976
32
0.0
13
116.368
23
-7.63976
33
0.0
0
TEXT
8
DIMS
10
106.95
20
-6.808
30
0.0
40
1.48
1
21 1/2"
50
0.0
72
1.0
73
0.0
11
106.95
21
-6.808
31
0.0
0
LINE
8
TITLE
10
-22.2
20
-43.66
30
0.0
11
172.255144
21
-43.66
31
0.0
0
LINE
8
TITLE
10
172.255144
20
-43.66
30
0.0
11
172.255144
21
125.565444
31
0.0
0
LINE
8
TITLE
10
172.255144
20
125.565444
30
0.0
11
-22.2
21
125.565444
31
0.0
0
LINE
8
TITLE
10
-22.2
20
125.565444
30
0.0
11
-22.2
21
-43.66
31
0.0
0
LINE
8
TITLE
10
109.355144
20
-43.66
30
0.0
11
172.255144
21
-43.66
31
0.0
0
LINE
8
TITLE
10
172.255144
20
-43.66
30
0.0
11
172.255144
21
-32.56
31
0.0
0
LINE
8
TITLE
10
172.255144
20
-32.56
30
0.0
11
109.355144
21
-32.56
31
0.0
0
LINE
8
TITLE
10
109.355144
20
-32.56
30
0.0
11
109.355144
21
-43.66
31
0.0
0
LINE
8
TITLE
10
109.355144
20
-40.885
30
0.0
11
172.255144
21
-40.885
31
0.0
0
LINE
8
TITLE
10
109.355144
20
-38.11
30
0.0
11
172.255144
21
-38.11
31
0.0
0
LINE
8
TITLE
10
109.355144
20
-35.335
30
0.0
11
172.255144
21
-35.335
31
0.0
0
LINE
8
TITLE
10
148.353144
20
-43.66
30
0.0
11
148.353144
21
-35.335
31
0.0
0
TEXT
8
TITLE
10
110.095144
20
-35.0575
30
0.0
40
2.22
1
ARNOLD CONTRACT
50
0.0
72
0.0
73
0.0
11
110.095144
21
-35.0575
31
0.0
0
TEXT
8
TITLE
10
110.095144
20
-37.4625
30
0.0
40
1.48
1
PROJECT: —
50
0.0
72
0.0
73
0.0
11
110.095144
21
-37.4625
31
0.0
0
TEXT
8
TITLE
10
110.095144
20
-40.2375
30
0.0
40
1.48
1
ITEM: Reception credenza
50
0.0
72
0.0
73
0.0
11
110.095144
21
-40.2375
31
0.0
0
TEXT
8
TITLE
10
110.095144
20
-43.0125
30
0.0
40
1.48
1
74" W  x  21 1/2" D  x  30" H
50
0.0
72
0.0
73
0.0
11
110.095144
21
-43.0125
31
0.0
0
TEXT
8
TITLE
10
149.093144
20
-37.4625
30
0.0
40
1.48
1
QUOTE: MIN-002
50
0.0
72
0.0
73
0.0
11
149.093144
21
-37.4625
31
0.0
0
TEXT
8
TITLE
10
149.093144
20
-40.2375
30
0.0
40
1.48
1
ITEM No: —
50
0.0
72
0.0
73
0.0
11
149.093144
21
-40.2375
31
0.0
0
TEXT
8
TITLE
10
149.093144
20
-43.0125
30
0.0
40
1.48
1
DATE: 2026-08-26
50
0.0
72
0.0
73
0.0
11
149.093144
21
-43.0125
31
0.0
0
TEXT
8
TITLE
10
171.515144
20
-34.6875
30
0.0
40
1.48
1
FULL SIZE (1:1)
50
0.0
72
2.0
73
0.0
11
171.515144
21
-34.6875
31
0.0
0
ENDSEC
0
EOF
